<svg width="210" height="325" viewBox="0 0 210 325" fill="none" xmlns="http://www.w3.org/2000/svg">
<path d="M210 101.81C210 101.181 210 100.568 210 99.922C210 45.2901 162.983 0.987366 104.992 0.987366C47.3016 0.987366 0.485917 44.822 0 99.0666V212.607C0 212.769 0 212.914 0 213.076V223.679C0 224.309 0 224.922 0 225.551C0 280.199 47.0167 324.486 105.008 324.486C162.699 324.486 209.514 280.667 210 226.423V112.882C210 112.721 210 112.559 210 112.414V101.81Z" fill="#929AB7"/>
<path d="M104.925 313.979C79.6765 313.915 55.4858 304.207 37.6594 286.985C19.833 269.763 9.82662 246.433 9.83558 222.114C9.83558 221.775 9.83558 221.436 9.83558 221.113V210.332C9.84732 210.192 9.84732 210.052 9.83558 209.912V103.747V102.601C9.94445 78.3099 20.0672 55.055 37.9768 37.9525C55.8865 20.8499 80.1159 11.3008 105.335 11.4056C130.554 11.5105 154.697 21.2608 172.453 38.5117C190.209 55.7625 200.122 79.1008 200.013 103.392C200.013 103.731 200.013 104.07 200.013 104.409V115.19C200.002 115.33 200.002 115.47 200.013 115.61V221.759V222.921C199.758 247.087 189.641 270.186 171.848 287.225C154.054 304.264 130.015 313.875 104.925 313.979Z" fill="url(#paint0_linear_1299_4000)"/>
<path d="M104.925 313.979C79.6765 313.915 55.4858 304.207 37.6594 286.985C19.833 269.763 9.82662 246.433 9.83558 222.114C9.83558 221.775 9.83558 221.436 9.83558 221.113V210.332C9.84732 210.192 9.84732 210.052 9.83558 209.912V103.747V102.601C9.94445 78.3099 20.0672 55.055 37.9768 37.9525C55.8865 20.8499 80.1159 11.3008 105.335 11.4056C130.554 11.5105 154.697 21.2608 172.453 38.5117C190.209 55.7625 200.122 79.1008 200.013 103.392C200.013 103.731 200.013 104.07 200.013 104.409V115.19C200.002 115.33 200.002 115.47 200.013 115.61V221.759V222.921C199.758 247.087 189.641 270.186 171.848 287.225C154.054 304.264 130.015 313.875 104.925 313.979Z" fill="black" fill-opacity="0.2"/>
<path d="M104.958 13.1566C129.76 13.2164 153.525 22.7508 171.037 39.6677C188.55 56.5846 198.38 79.5022 198.371 103.392C198.371 103.715 198.371 104.038 198.371 104.36C198.371 104.683 198.371 104.861 198.371 105.184V115.368C198.364 115.502 198.364 115.637 198.371 115.771V219.709V222.937C198.262 246.8 188.316 269.645 170.721 286.445C153.126 303.244 129.322 312.624 104.547 312.519C79.7727 312.414 56.0559 302.833 38.6145 285.885C21.1731 268.937 11.4357 246.009 11.5446 222.146C11.5446 221.839 11.5446 221.517 11.5446 221.194C11.5446 220.871 11.5446 220.693 11.5446 220.371V210.171C11.5515 210.042 11.5515 209.912 11.5446 209.783V105.845V102.617C11.717 78.8528 21.6311 56.1164 39.1275 39.3603C56.6239 22.6042 80.2852 13.1858 104.958 13.1566ZM104.958 9.92871C79.4036 9.96211 54.8974 19.7175 36.7744 37.071C18.6514 54.4246 8.37902 77.9713 8.19345 102.585V209.88C8.19345 210.041 8.19345 210.187 8.19345 210.332V220.338C8.19345 220.936 8.19345 221.517 8.19345 222.114C8.08013 246.833 18.1662 270.584 36.233 288.14C54.2997 305.697 78.8671 315.621 104.531 315.73C130.194 315.84 154.852 306.124 173.079 288.722C191.306 271.32 201.609 247.656 201.723 222.937V115.626C201.723 115.481 201.723 115.335 201.723 115.19V105.184C201.723 104.586 201.723 103.989 201.723 103.392C201.74 91.1353 199.251 78.9951 194.398 67.6648C189.545 56.3344 182.422 46.0358 173.436 37.357C164.451 28.6781 153.779 21.7889 142.029 17.0827C130.28 12.3766 117.683 9.94565 104.958 9.92871Z" fill="#FFFEFE"/>
<path d="M31.9218 69.4725C31.718 69.832 31.4805 70.1078 31.2094 70.3001C30.934 70.4901 30.6256 70.5859 30.284 70.5873C29.9381 70.5865 29.5603 70.4893 29.1506 70.2956C28.9589 70.2002 28.777 70.1073 28.6049 70.0167C28.4285 69.9239 28.2469 69.8255 28.06 69.7217C27.6738 69.4965 27.3903 69.2429 27.2094 68.9611C27.0266 68.6727 26.9438 68.3656 26.9611 68.0397C26.9764 67.7073 27.0812 67.3699 27.2755 67.0274C27.4722 66.6806 27.7104 66.4134 27.99 66.2256C28.2678 66.0314 28.582 65.9304 28.9327 65.9228C29.2791 65.9129 29.6538 66.0057 30.0568 66.2014C30.2509 66.2925 30.4361 66.3845 30.6125 66.4773C30.7846 66.5679 30.9629 66.6672 31.1474 66.7753C31.5403 66.9985 31.8293 67.2522 32.0145 67.5364C32.1978 67.814 32.2808 68.1158 32.2636 68.4416C32.242 68.7652 32.1281 69.1089 31.9218 69.4725ZM31.3733 69.1839C31.558 68.8583 31.609 68.5419 31.5262 68.2348C31.4458 67.9234 31.1889 67.6427 30.7553 67.3926C30.5665 67.2823 30.3969 67.1875 30.2463 67.1082C30.0914 67.0267 29.9169 66.9404 29.7228 66.8492C29.4212 66.7015 29.1491 66.6297 28.9065 66.6338C28.6664 66.6337 28.4565 66.6935 28.2769 66.8131C28.0973 66.9327 27.9464 67.1004 27.824 67.3161C27.7065 67.5233 27.644 67.732 27.6365 67.9422C27.629 68.1523 27.689 68.3569 27.8164 68.5557C27.9462 68.7503 28.1559 68.9321 28.4456 69.101C28.6325 69.2048 28.8034 69.2975 28.9583 69.379C29.1088 69.4582 29.2821 69.5467 29.4781 69.6443C29.9308 69.8606 30.3149 69.9172 30.6303 69.8142C30.9458 69.7111 31.1934 69.501 31.3733 69.1839Z" fill="white"/>
<path d="M35.4855 63.2916C35.4545 63.3351 35.4183 63.3607 35.3771 63.3683C35.3317 63.3733 35.2888 63.3623 35.2483 63.3355L31.2776 60.7069C31.233 60.6774 31.2071 60.6427 31.1997 60.6029C31.1882 60.5604 31.1981 60.5173 31.2291 60.4738L32.2626 59.0254C32.5817 58.5782 32.9418 58.2951 33.343 58.1762C33.7443 58.0572 34.1557 58.1373 34.5772 58.4164C34.8894 58.623 35.0897 58.8692 35.1782 59.1551C35.2655 59.4343 35.2545 59.73 35.1451 60.0421L37.4148 60.1987C37.4476 60.2029 37.4742 60.2118 37.4944 60.2252C37.5269 60.2467 37.5453 60.2793 37.5499 60.3231C37.5573 60.3629 37.5497 60.3987 37.5271 60.4304L37.3238 60.7153C37.2758 60.7826 37.2222 60.82 37.1632 60.8275C37.1041 60.835 37.0478 60.8385 36.9944 60.8381L34.8358 60.6764L34.0946 61.7152L35.6634 62.7538C35.7039 62.7806 35.7285 62.8173 35.7371 62.8638C35.7445 62.9036 35.7326 62.9453 35.7016 62.9888L35.4855 63.2916ZM33.5777 61.3731L34.2766 60.3936C34.4884 60.0968 34.5837 59.8336 34.5625 59.604C34.5372 59.3717 34.3989 59.1723 34.1476 59.006C33.9003 58.8423 33.6596 58.7907 33.4254 58.8512C33.194 58.9078 32.971 59.0865 32.7564 59.3873L32.0576 60.3667L33.5777 61.3731Z" fill="white"/>
<path d="M40.5517 56.3981C40.5163 56.4382 40.4777 56.46 40.4359 56.4634C40.3902 56.4637 40.3486 56.4484 40.311 56.4177L36.6257 53.402C36.5843 53.3681 36.562 53.331 36.5587 53.2907C36.5517 53.2472 36.5659 53.2055 36.6012 53.1654L37.9229 51.6669C38.1641 51.3934 38.4073 51.2095 38.6525 51.1151C38.8971 51.014 39.1339 50.988 39.3626 51.0371C39.5946 51.0825 39.8084 51.1853 40.0041 51.3454C40.1583 51.4716 40.2694 51.6064 40.3372 51.7499C40.4045 51.8865 40.4418 52.0206 40.4489 52.152C40.4523 52.2803 40.4423 52.3945 40.4188 52.4946C40.6157 52.4109 40.8433 52.3806 41.1016 52.4036C41.363 52.4229 41.6085 52.5265 41.838 52.7143C42.045 52.8837 42.1948 53.0847 42.2874 53.3175C42.3801 53.5503 42.3987 53.8009 42.3433 54.0694C42.2873 54.3312 42.1419 54.5952 41.9072 54.8613L40.5517 56.3981ZM40.4564 55.6138L41.3873 54.5583C41.5964 54.3213 41.6913 54.0852 41.6722 53.8498C41.653 53.6144 41.5475 53.4182 41.3557 53.2612C41.1562 53.098 40.9363 53.0279 40.6958 53.0509C40.4516 53.0707 40.225 53.1991 40.0159 53.4361L39.085 54.4916L40.4564 55.6138ZM38.6335 54.1222L39.5211 53.1159C39.7269 52.8825 39.8283 52.6611 39.8253 52.4515C39.8185 52.2388 39.7192 52.0539 39.5273 51.8969C39.3355 51.7399 39.1357 51.68 38.928 51.7172C38.7203 51.7544 38.5135 51.8896 38.3077 52.123L37.4201 53.1293L38.6335 54.1222Z" fill="white"/>
<path d="M46.4045 50.0261C46.3663 50.0635 46.3262 50.0823 46.2841 50.0827C46.2386 50.0797 46.1982 50.0615 46.1629 50.028L42.7016 46.7471C42.6663 46.7137 42.6485 46.6767 42.6482 46.6363C42.6443 46.5924 42.6615 46.5518 42.6997 46.5144L42.9759 46.2441C43.0107 46.2101 43.0508 46.1946 43.0964 46.1976C43.1418 46.1938 43.1822 46.2087 43.2175 46.2421L46.6788 49.523C46.7141 49.5565 46.7319 49.5968 46.7323 49.644C46.7326 49.6845 46.7154 49.7217 46.6807 49.7557L46.4045 50.0261Z" fill="white"/>
<path d="M49.8756 46.7647C49.8388 46.7963 49.7978 46.8125 49.7524 46.8131C49.7074 46.807 49.6686 46.7861 49.6358 46.7503L46.7501 43.5916L45.6909 44.5025C45.6541 44.5342 45.613 44.5503 45.5676 44.551C45.5227 44.5449 45.4838 44.5239 45.4511 44.4881L45.245 44.2625C45.209 44.2231 45.1922 44.1832 45.1946 44.1427C45.1975 44.0955 45.2173 44.0561 45.2541 44.0244L47.9131 41.7376C47.9536 41.7028 47.9963 41.6885 48.0413 41.6946C48.0866 41.6939 48.1273 41.7133 48.1633 41.7527L48.3694 41.9783C48.4021 42.0141 48.4171 42.0556 48.4142 42.1028C48.4118 42.1433 48.3904 42.1809 48.3499 42.2157L47.2962 43.1219L50.182 46.2806C50.2147 46.3164 50.2297 46.3579 50.2268 46.4051C50.2244 46.4456 50.2029 46.4832 50.1625 46.518L49.8756 46.7647Z" fill="white"/>
<path d="M58.6228 40.0581C58.2474 40.3012 57.8879 40.4357 57.5444 40.4613C57.2049 40.4844 56.8871 40.4153 56.5909 40.2541C56.2946 40.0929 56.0276 39.8548 55.79 39.5398C55.6718 39.379 55.5473 39.205 55.4165 39.0176C55.2857 38.8303 55.1625 38.6496 55.0469 38.4755C54.8337 38.1447 54.7055 37.8168 54.6623 37.4917C54.619 37.1666 54.6724 36.857 54.8226 36.5629C54.9769 36.2661 55.2418 35.9962 55.6171 35.753C55.8987 35.5707 56.172 35.4486 56.437 35.3869C56.7021 35.3252 56.9485 35.3132 57.1763 35.3509C57.4082 35.386 57.6165 35.4594 57.8012 35.5713C57.9832 35.6792 58.1367 35.8142 58.2618 35.9763C58.2909 36.0096 58.2995 36.0474 58.2877 36.0898C58.2799 36.1296 58.2576 36.1614 58.2209 36.1852L57.8843 36.4032C57.8476 36.427 57.808 36.4382 57.7655 36.4367C57.7271 36.4327 57.6837 36.4087 57.6353 36.3648C57.3488 36.0988 57.0694 35.9701 56.7969 35.9787C56.5285 35.9847 56.2515 36.0802 55.9658 36.2652C55.6394 36.4767 55.4443 36.7362 55.3806 37.0438C55.314 37.3474 55.4118 37.7037 55.6737 38.1129C55.8897 38.4477 56.1235 38.7826 56.375 39.1174C56.6697 39.5055 56.9769 39.7291 57.2967 39.7882C57.6137 39.8434 57.9354 39.7652 58.2618 39.5538C58.5474 39.3688 58.7437 39.1577 58.8507 38.9205C58.9618 38.6807 58.9435 38.3829 58.7958 38.027C58.7718 37.9673 58.7651 37.9195 58.7757 37.8837C58.7904 37.8453 58.816 37.8142 58.8528 37.7904L59.1894 37.5723C59.2261 37.5485 59.2651 37.5407 59.3062 37.5487C59.3515 37.5542 59.3846 37.5761 59.4056 37.6146C59.5143 37.7874 59.5876 37.9772 59.6255 38.1842C59.6606 38.3873 59.6512 38.5988 59.5975 38.8189C59.5478 39.0363 59.4433 39.2516 59.284 39.4648C59.1247 39.6779 58.9043 39.8757 58.6228 40.0581Z" fill="white"/>
<path d="M66.1769 35.5133C65.8075 35.6983 65.457 35.7951 65.1253 35.8037C64.7913 35.8079 64.4826 35.7154 64.199 35.526C63.9131 35.3323 63.6547 35.0407 63.4236 34.6512C63.3181 34.4649 63.2195 34.2862 63.1276 34.1149C63.0333 33.9393 62.9379 33.7562 62.8411 33.5656C62.6471 33.1629 62.5539 32.794 62.5614 32.4588C62.571 32.1171 62.6739 31.8157 62.87 31.5544C63.0682 31.2867 63.3433 31.0648 63.6952 30.8885C64.0515 30.71 64.3978 30.6208 64.7341 30.6208C65.0725 30.6143 65.3889 30.7057 65.6835 30.895C65.9757 31.0801 66.2341 31.3663 66.4585 31.7538C66.5683 31.9378 66.6703 32.1176 66.7645 32.2932C66.8564 32.4645 66.9486 32.6465 67.041 32.8393C67.2417 33.2441 67.3394 33.6162 67.3341 33.9557C67.3309 34.2888 67.2312 34.5859 67.0351 34.8471C66.8366 35.1041 66.5506 35.3261 66.1769 35.5133ZM65.8839 34.9673C66.2185 34.7997 66.4372 34.5652 66.5401 34.2638C66.6473 33.9601 66.5913 33.5834 66.372 33.1337C66.2773 32.9366 66.1897 32.7631 66.1093 32.6133C66.0266 32.4591 65.9303 32.29 65.8205 32.1059C65.6533 31.8148 65.4681 31.6033 65.265 31.4714C65.0663 31.3373 64.8592 31.2699 64.6438 31.2691C64.4283 31.2683 64.2098 31.3235 63.9882 31.4345C63.7753 31.5411 63.6071 31.6797 63.4836 31.8502C63.3601 32.0207 63.2956 32.2242 63.2901 32.4605C63.289 32.6947 63.3612 32.9628 63.5067 33.2648C63.6034 33.4554 63.6932 33.6278 63.7759 33.782C63.8563 33.9319 63.9504 34.1021 64.0581 34.2926C64.3122 34.725 64.5985 34.9863 64.9172 35.0766C65.2358 35.167 65.558 35.1305 65.8839 34.9673Z" fill="white"/>
<path d="M72.7425 32.2333C72.6968 32.2499 72.6527 32.2504 72.6101 32.2349C72.5703 32.2131 72.5415 32.1796 72.5238 32.1343L70.7895 27.6995C70.77 27.6497 70.7687 27.6063 70.7855 27.5691C70.8051 27.5258 70.8377 27.4959 70.8834 27.4793L71.2262 27.355C71.281 27.3351 71.3275 27.3337 71.3655 27.3509C71.4036 27.3682 71.4284 27.385 71.4401 27.4014L73.9663 29.6179L74.3535 26.3444C74.3555 26.323 74.3627 26.2945 74.3749 26.2591C74.3917 26.222 74.4275 26.1935 74.4823 26.1736L74.8182 26.0517C74.8685 26.0335 74.9136 26.0352 74.9534 26.057C74.996 26.0725 75.027 26.1052 75.0465 26.155L76.7808 30.5898C76.7985 30.6351 76.7975 30.6794 76.7779 30.7227C76.7611 30.7598 76.7276 30.7875 76.6773 30.8057L76.3414 30.9276C76.2957 30.9442 76.2516 30.9447 76.209 30.9291C76.1691 30.9074 76.1404 30.8739 76.1227 30.8286L74.816 27.4872L74.537 30.1166C74.5364 30.1685 74.5232 30.2146 74.4973 30.2551C74.4695 30.291 74.4283 30.3189 74.3734 30.3388L74.1609 30.4159C74.1015 30.4374 74.0491 30.4435 74.0037 30.4341C73.9611 30.4186 73.9195 30.3923 73.8789 30.3553L71.8683 28.5567L73.175 31.8981C73.1927 31.9433 73.1918 31.9876 73.1722 32.0309C73.1554 32.068 73.1241 32.0949 73.0784 32.1115L72.7425 32.2333Z" fill="white"/>
<path d="M82.7356 28.7558C82.6882 28.7664 82.6444 28.7612 82.6044 28.7402C82.568 28.7134 82.5441 28.6764 82.5328 28.6292L81.422 23.9987C81.4096 23.9467 81.4142 23.9033 81.4358 23.8686C81.4611 23.8281 81.4975 23.8026 81.5449 23.792L81.9008 23.7128C81.9578 23.7001 82.0039 23.7048 82.0392 23.7269C82.0745 23.7489 82.0967 23.7688 82.106 23.7867L84.3023 26.3156L85.1312 23.1134C85.1362 23.0924 85.1471 23.0651 85.164 23.0314C85.1857 22.9967 85.225 22.973 85.282 22.9603L85.6307 22.8827C85.6829 22.8711 85.7272 22.8787 85.7637 22.9054C85.8037 22.9264 85.8299 22.9629 85.8424 23.0149L86.9531 27.6454C86.9645 27.6927 86.9575 27.7365 86.9322 27.777C86.9106 27.8117 86.8736 27.8349 86.8214 27.8465L86.4726 27.9241C86.4252 27.9347 86.3815 27.9295 86.3414 27.9085C86.305 27.8818 86.2811 27.8447 86.2698 27.7975L85.4329 24.3086L84.7987 26.8849C84.7911 26.9364 84.7717 26.9806 84.7405 27.0174C84.7082 27.0495 84.6636 27.0718 84.6067 27.0845L84.386 27.1336C84.3243 27.1473 84.2716 27.1466 84.228 27.1314C84.188 27.1105 84.1504 27.079 84.1154 27.037L82.3721 24.9898L83.209 28.4787C83.2204 28.5259 83.2134 28.5698 83.1881 28.6103C83.1664 28.645 83.1319 28.6676 83.0844 28.6782L82.7356 28.7558Z" fill="white"/>
<path d="M94.8182 26.5172C94.4117 26.5572 94.0533 26.5192 93.7428 26.4032C93.4371 26.2867 93.1888 26.0889 92.9979 25.8097C92.8113 25.5252 92.6932 25.1484 92.6435 24.6795L92.3314 21.7353C92.3257 21.6821 92.3359 21.6396 92.3618 21.6078C92.3873 21.5711 92.4266 21.5501 92.4798 21.5449L92.8499 21.5085C92.9032 21.5032 92.9461 21.5161 92.9787 21.5471C93.0156 21.5728 93.0369 21.6122 93.0426 21.6654L93.3562 24.624C93.4064 25.0978 93.5549 25.4374 93.8015 25.6427C94.0481 25.848 94.365 25.9317 94.752 25.8936C95.1343 25.856 95.4246 25.7127 95.6231 25.4636C95.8264 25.214 95.9029 24.8523 95.8527 24.3785L95.5391 21.4198C95.5334 21.3667 95.5436 21.3241 95.5695 21.2923C95.5998 21.2551 95.6392 21.2341 95.6875 21.2294L96.0649 21.1923C96.1133 21.1875 96.1538 21.2006 96.1864 21.2316C96.2234 21.2573 96.2446 21.2967 96.2503 21.3499L96.5624 24.2941C96.6121 24.763 96.573 25.1552 96.4451 25.4706C96.3216 25.7808 96.1223 26.0226 95.8474 26.1962C95.5725 26.3698 95.2294 26.4768 94.8182 26.5172Z" fill="white"/>
<path d="M102.41 25.8017C102.356 25.8007 102.315 25.7855 102.287 25.7558C102.258 25.7213 102.245 25.6797 102.246 25.6311L102.344 20.8694C102.346 20.8159 102.361 20.7749 102.391 20.7462C102.421 20.7126 102.462 20.6963 102.516 20.6973L102.851 20.703C102.91 20.704 102.953 20.7193 102.982 20.749C103.01 20.7738 103.027 20.7935 103.031 20.8082L105.375 24.5684L105.451 20.9224C105.452 20.8689 105.468 20.8278 105.497 20.7991C105.527 20.7656 105.569 20.7493 105.622 20.7502L105.972 20.7562C106.026 20.7571 106.067 20.7748 106.095 20.8093C106.129 20.8391 106.145 20.8807 106.144 20.9342L106.045 25.6886C106.044 25.7372 106.026 25.7782 105.991 25.8117C105.962 25.8452 105.922 25.8615 105.874 25.8607L105.524 25.8547C105.47 25.8538 105.429 25.8385 105.401 25.8089C105.377 25.7793 105.36 25.7596 105.351 25.7497L103.013 22.0261L102.938 25.6429C102.937 25.6915 102.919 25.7325 102.885 25.766C102.855 25.7947 102.813 25.8085 102.76 25.8076L102.41 25.8017Z" fill="white"/>
<path d="M111.569 26.0767C111.516 26.0717 111.476 26.0533 111.45 26.0215C111.424 25.9849 111.413 25.9424 111.418 25.894L111.861 21.1456C111.866 21.0972 111.884 21.0599 111.916 21.0336C111.948 21.0024 111.991 20.9894 112.044 20.9944L112.429 21.0308C112.477 21.0354 112.514 21.056 112.54 21.0926C112.571 21.1249 112.585 21.1652 112.58 21.2136L112.136 25.9619C112.132 26.0103 112.111 26.0499 112.074 26.0806C112.042 26.1069 112.002 26.1177 111.954 26.1131L111.569 26.0767Z" fill="white"/>
<path d="M116.39 26.5714C116.342 26.5635 116.304 26.5424 116.276 26.5082C116.253 26.4699 116.246 26.4268 116.254 26.3789L117.007 22.1554L115.625 21.9275C115.577 21.9196 115.539 21.8985 115.51 21.8642C115.488 21.8259 115.48 21.7829 115.489 21.735L115.543 21.4333C115.552 21.3806 115.574 21.3423 115.608 21.3183C115.647 21.2903 115.691 21.2803 115.739 21.2882L119.209 21.8603C119.262 21.869 119.3 21.8925 119.322 21.9308C119.351 21.965 119.36 22.0085 119.351 22.0612L119.297 22.3629C119.289 22.4108 119.265 22.4487 119.225 22.4767C119.191 22.5006 119.148 22.5083 119.095 22.4996L117.72 22.2729L116.967 26.4964C116.959 26.5443 116.934 26.5822 116.895 26.6102C116.861 26.6342 116.818 26.6419 116.765 26.6331L116.39 26.5714Z" fill="white"/>
<path d="M124.251 28.0889C124.204 28.0764 124.168 28.0517 124.144 28.0149C124.125 27.9747 124.122 27.9312 124.135 27.8845L124.61 26.2303L123.732 22.9183C123.732 22.9031 123.731 22.8878 123.73 22.8725C123.73 22.8572 123.732 22.8403 123.737 22.8216C123.748 22.7842 123.772 22.7552 123.808 22.7347C123.844 22.7142 123.881 22.7089 123.919 22.7189L124.285 22.8165C124.327 22.8277 124.362 22.8494 124.388 22.8815C124.415 22.909 124.431 22.9433 124.434 22.9844L125.157 25.6213L127.182 23.716C127.217 23.6849 127.25 23.6637 127.284 23.6526C127.324 23.6379 127.364 23.6363 127.407 23.6475L127.766 23.7432C127.808 23.7545 127.84 23.7779 127.86 23.8134C127.88 23.8489 127.885 23.8854 127.874 23.9228C127.869 23.9415 127.861 23.9572 127.853 23.97C127.844 23.9827 127.833 23.9949 127.82 24.0064L125.308 26.416L124.833 28.0702C124.82 28.117 124.792 28.1523 124.75 28.1763C124.713 28.1968 124.669 28.2002 124.618 28.1864L124.251 28.0889Z" fill="white"/>
<path d="M133.943 30.9478C133.893 30.9272 133.861 30.8979 133.846 30.86C133.833 30.8176 133.837 30.7742 133.857 30.7298L135.822 26.3766C135.844 26.3277 135.874 26.2955 135.914 26.2801C135.955 26.2603 136 26.2606 136.049 26.2813L137.764 26.996C138.097 27.1348 138.361 27.3082 138.556 27.5161C138.756 27.726 138.875 27.9657 138.913 28.2353C138.954 28.5005 138.903 28.7908 138.761 29.1064C138.618 29.4219 138.432 29.656 138.203 29.8086C137.974 29.9612 137.711 30.0393 137.416 30.0427C137.124 30.0481 136.812 29.9814 136.479 29.8426L135.284 29.3445L134.532 31.0112C134.512 31.0556 134.479 31.0868 134.434 31.1048C134.395 31.1202 134.35 31.1176 134.301 31.097L133.943 30.9478ZM135.53 28.7817L136.698 29.2685C137.031 29.4073 137.314 29.4381 137.547 29.3609C137.78 29.2836 137.959 29.105 138.086 28.825C138.21 28.5494 138.225 28.3023 138.131 28.0837C138.038 27.8651 137.82 27.6845 137.478 27.5419L136.31 27.0551L135.53 28.7817Z" fill="white"/>
<path d="M141.793 34.3884C141.747 34.3626 141.718 34.3301 141.707 34.2909C141.699 34.2476 141.708 34.205 141.732 34.1632L144.167 30.0706C144.194 30.0247 144.228 29.9962 144.268 29.9852C144.311 29.9701 144.356 29.9754 144.403 30.0013L145.961 30.861C146.442 31.1264 146.757 31.4474 146.906 31.8238C147.055 32.2003 147.001 32.6058 146.742 33.0404C146.551 33.3621 146.311 33.5795 146.023 33.6926C145.742 33.8039 145.438 33.8218 145.11 33.7461L145.101 35.9558C145.099 35.988 145.092 36.0145 145.079 36.0353C145.06 36.0688 145.027 36.0898 144.983 36.0984C144.942 36.1094 144.905 36.1055 144.871 36.0867L144.564 35.9176C144.492 35.8776 144.45 35.8295 144.438 35.7731C144.427 35.7167 144.419 35.6626 144.416 35.6109L144.437 33.5081L143.32 32.8915L142.358 34.5085C142.333 34.5503 142.297 34.5776 142.25 34.5904C142.21 34.6014 142.166 34.594 142.119 34.5681L141.793 34.3884ZM143.637 32.3588L144.69 32.9402C145.009 33.1164 145.286 33.1831 145.521 33.1405C145.758 33.0937 145.953 32.9408 146.107 32.6818C146.259 32.4269 146.296 32.1891 146.218 31.9685C146.144 31.7503 145.946 31.5519 145.622 31.3733L144.569 30.792L143.637 32.3588Z" fill="white"/>
<path d="M150.693 39.6124C150.355 39.3761 150.107 39.1171 149.949 38.8352C149.794 38.5495 149.741 38.2427 149.788 37.9148C149.838 37.583 149.991 37.2315 150.248 36.8603C150.373 36.6872 150.494 36.5232 150.611 36.3683C150.731 36.2096 150.857 36.0465 150.99 35.8789C151.275 35.5338 151.575 35.2905 151.889 35.1488C152.209 35.0061 152.535 34.9614 152.866 35.0148C153.203 35.0671 153.533 35.2059 153.855 35.4311C154.182 35.659 154.421 35.9178 154.573 36.2074C154.732 36.4959 154.79 36.8088 154.748 37.1461C154.708 37.4796 154.56 37.8286 154.303 38.1931C154.182 38.369 154.061 38.5363 153.941 38.6951C153.824 38.8499 153.697 39.0098 153.56 39.1746C153.276 39.5263 152.976 39.7749 152.659 39.9204C152.349 40.0649 152.029 40.1104 151.698 40.0569C151.371 39.9996 151.036 39.8515 150.693 39.6124ZM151.067 39.1188C151.373 39.3328 151.689 39.4175 152.015 39.3728C152.344 39.331 152.668 39.1162 152.985 38.7285C153.125 38.5599 153.246 38.4078 153.349 38.2723C153.454 38.1329 153.567 37.9753 153.688 37.7994C153.882 37.5266 153.994 37.2737 154.025 37.0405C154.059 36.8101 154.028 36.602 153.931 36.4161C153.835 36.2303 153.685 36.0665 153.482 35.9247C153.287 35.7885 153.083 35.7049 152.869 35.6739C152.655 35.6429 152.438 35.6773 152.216 35.7771C151.999 35.8796 151.783 36.0603 151.569 36.3191C151.436 36.4867 151.317 36.6401 151.212 36.7795C151.109 36.915 150.994 37.0713 150.867 37.2483C150.581 37.6582 150.468 38.0203 150.529 38.3346C150.589 38.6489 150.768 38.9103 151.067 39.1188Z" fill="white"/>
<path d="M157.859 44.9523C157.537 44.6711 157.317 44.373 157.199 44.058C157.086 43.7462 157.068 43.4313 157.147 43.1133C157.23 42.7985 157.399 42.4913 157.654 42.1916C157.797 42.0325 157.95 41.8662 158.113 41.6927C158.279 41.5155 158.439 41.3489 158.593 41.1927C158.877 40.9186 159.176 40.7281 159.49 40.6214C159.807 40.5179 160.134 40.5067 160.471 40.5879C160.808 40.6692 161.136 40.8488 161.455 41.1268C161.715 41.3537 161.907 41.5856 162.031 41.8226C162.155 42.0596 162.226 42.2857 162.244 42.501C162.268 42.7159 162.255 42.9074 162.204 43.0754C162.156 43.2466 162.093 43.3781 162.013 43.4698C161.987 43.5049 161.953 43.5235 161.911 43.5256C161.872 43.5241 161.834 43.5074 161.798 43.4754L161.473 43.1926C161.437 43.1607 161.416 43.1296 161.411 43.0995C161.41 43.0725 161.418 43.035 161.437 42.9868C161.49 42.8659 161.52 42.7276 161.527 42.572C161.537 42.4195 161.504 42.259 161.429 42.0905C161.361 41.9217 161.228 41.751 161.031 41.5784C160.741 41.326 160.435 41.1976 160.112 41.1933C159.793 41.1923 159.462 41.3607 159.117 41.6986C158.81 42.0042 158.514 42.3195 158.228 42.6443C157.91 43.0113 157.767 43.351 157.8 43.6635C157.837 43.9724 158 44.253 158.289 44.5055C158.483 44.6748 158.687 44.7914 158.9 44.8551C159.121 44.9184 159.343 44.9159 159.568 44.8473C159.792 44.7788 160.009 44.6329 160.219 44.4098L160.429 44.1866L159.605 43.4676C159.568 43.4357 159.547 43.3979 159.541 43.3543C159.542 43.3103 159.561 43.2688 159.598 43.2299L159.758 43.0599C159.795 43.0209 159.834 43.0004 159.876 42.9983C159.925 42.9959 159.968 43.0106 160.004 43.0426L161.246 44.1258C161.287 44.161 161.306 44.2006 161.305 44.2445C161.307 44.2849 161.289 44.3246 161.253 44.3636L160.773 44.8737C160.5 45.1641 160.2 45.3631 159.872 45.4705C159.548 45.5811 159.212 45.5944 158.865 45.5103C158.52 45.4227 158.185 45.2367 157.859 44.9523Z" fill="white"/>
<path d="M163.306 49.729C163.27 49.6899 163.253 49.6501 163.255 49.6097C163.261 49.5661 163.282 49.5284 163.319 49.4967L166.925 46.3861C166.965 46.3512 167.006 46.3348 167.048 46.3371C167.094 46.3363 167.135 46.3554 167.171 46.3946L168.383 47.6976C168.757 48.0999 168.956 48.5027 168.979 48.906C169.003 49.3093 168.823 49.676 168.44 50.0063C168.157 50.2508 167.86 50.3815 167.551 50.3982C167.248 50.4154 166.953 50.3366 166.664 50.162L165.96 52.2515C165.948 52.2812 165.933 52.304 165.914 52.3199C165.885 52.3453 165.848 52.3551 165.802 52.3492C165.76 52.3469 165.726 52.3315 165.7 52.303L165.461 52.0467C165.405 51.9862 165.38 51.9274 165.387 51.8703C165.394 51.8133 165.404 51.7598 165.417 51.7098L166.099 49.7256L165.23 48.791L163.806 50.02C163.769 50.0518 163.726 50.0663 163.677 50.0636C163.635 50.0613 163.596 50.0406 163.56 50.0014L163.306 49.729ZM165.7 48.3861L166.519 49.2673C166.767 49.5343 167.01 49.6844 167.246 49.7177C167.487 49.7478 167.721 49.6644 167.949 49.4675C168.174 49.2738 168.283 49.0603 168.279 48.8269C168.277 48.5971 168.151 48.347 167.899 48.0764L167.08 47.1952L165.7 48.3861Z" fill="white"/>
<path d="M168.816 55.6314C168.793 55.6003 168.784 55.5648 168.791 55.5248C168.797 55.4848 168.816 55.4537 168.848 55.4314C168.868 55.4174 168.891 55.4041 168.918 55.3912L173.86 54.1281C173.912 54.1157 173.96 54.1147 174.004 54.1252C174.048 54.1356 174.091 54.1679 174.132 54.2222L174.429 54.6177C174.467 54.6681 174.485 54.7153 174.481 54.7591C174.481 54.8069 174.467 54.8525 174.438 54.8959L171.664 59.0381C171.646 59.0626 171.627 59.0818 171.607 59.0958C171.575 59.1181 171.539 59.126 171.497 59.1194C171.456 59.1129 171.424 59.0941 171.4 59.0631L171.177 58.7664C171.142 58.7199 171.128 58.6766 171.134 58.6366C171.143 58.6005 171.155 58.5716 171.169 58.5499L171.774 57.6362L170.338 55.7284L169.251 56.0023C169.228 56.0124 169.196 56.0141 169.154 56.0076C169.113 56.0011 169.075 55.9745 169.04 55.928L168.816 55.6314ZM170.977 55.5375L172.16 57.1079L173.685 54.8381L170.977 55.5375Z" fill="white"/>
<path d="M174.333 63.0636C174.308 63.0217 174.3 62.9791 174.308 62.9358C174.323 62.8943 174.352 62.862 174.395 62.8386L178.573 60.5543C178.62 60.5286 178.664 60.5214 178.704 60.5325C178.751 60.5455 178.787 60.5729 178.812 60.6148L178.997 60.9289C179.026 60.9792 179.036 61.0239 179.025 61.063C179.014 61.1021 179.002 61.1285 178.987 61.142L177.187 63.8872L180.56 63.8121C180.582 63.8111 180.612 63.8141 180.65 63.8211C180.691 63.8322 180.726 63.8629 180.755 63.9132L180.937 64.221C180.964 64.2671 180.97 64.3108 180.955 64.3523C180.947 64.3956 180.919 64.4301 180.872 64.4557L176.694 66.7401C176.651 66.7634 176.606 66.7686 176.559 66.7556C176.519 66.7445 176.485 66.7158 176.458 66.6698L176.276 66.3619C176.252 66.32 176.244 66.2774 176.252 66.2341C176.267 66.1927 176.296 66.1603 176.339 66.137L179.487 64.4158L176.782 64.5071C176.73 64.5136 176.681 64.5072 176.636 64.4877C176.594 64.4658 176.559 64.4298 176.53 64.3795L176.415 64.1847C176.383 64.1303 176.367 64.0805 176.369 64.0353C176.377 63.992 176.397 63.9482 176.427 63.9039L177.895 61.7143L174.747 63.4355C174.704 63.4588 174.659 63.464 174.612 63.451C174.571 63.4398 174.539 63.4133 174.514 63.3714L174.333 63.0636Z" fill="white"/>
<path d="M103.282 286.937L94.4855 271.444L78.4 262.954L94.4855 254.481L103.282 238.987L112.079 254.481L128.181 262.954L112.079 271.444L103.282 286.937Z" fill="#A8B2CC" stroke="white" stroke-miterlimit="10"/>
<path d="M155.93 87.0882C158.058 83.8599 148.295 74.2174 134.123 65.5512C119.951 56.8849 106.737 52.4766 104.61 55.7049C102.482 58.9332 112.245 68.5756 126.417 77.2418C140.589 85.9081 153.803 90.3165 155.93 87.0882Z" stroke="white" stroke-width="0.75" stroke-miterlimit="10"/>
<path d="M122.898 124.935C125.026 121.706 117.84 113.64 106.848 106.918C95.8558 100.197 85.22 97.3644 83.0922 100.593C80.9644 103.821 88.1504 111.887 99.1426 118.609C110.135 125.331 120.771 128.163 122.898 124.935Z" stroke="white" stroke-width="0.75" stroke-miterlimit="10"/>
<path d="M136.534 104.263C138.662 101.035 131.476 92.9689 120.484 86.2471C109.492 79.5252 98.8559 76.6931 96.7281 79.9213C94.6003 83.1496 101.786 91.2159 112.779 97.9377C123.771 104.66 134.407 107.492 136.534 104.263Z" stroke="white" stroke-width="0.75" stroke-miterlimit="10"/>
<path d="M104.623 55.7166L99.2444 72.8405C95.4766 84.9132 88.4176 95.7922 78.8024 104.345L63.7222 117.773" stroke="white" stroke-width="0.75" stroke-miterlimit="10"/>
<path d="M155.963 86.9944L142.139 98.9698C132.392 107.388 125.16 118.165 121.194 130.183L114.995 149.05" stroke="white" stroke-width="0.75" stroke-miterlimit="10"/>
<path d="M136.392 83.0724L125.048 96.565C116.957 106.231 109.995 116.726 104.288 127.859L95.4745 145.145" stroke="white" stroke-width="0.75" stroke-miterlimit="10"/>
<path d="M117.223 70.9516L109.365 86.5746C103.735 97.7453 96.8338 108.279 88.7888 117.982L76.3225 133.008" stroke="white" stroke-width="0.75" stroke-miterlimit="10"/>
<path d="M127.461 69.3541C133.143 69.3541 137.749 64.9174 137.749 59.4445C137.749 53.9716 133.143 49.5349 127.461 49.5349C121.779 49.5349 117.173 53.9716 117.173 59.4445C117.173 64.9174 121.779 69.3541 127.461 69.3541Z" fill="#0090FF" stroke="white" stroke-width="0.75" stroke-miterlimit="10"/>
<path d="M45.8942 149.47C52.5108 149.47 57.8746 144.303 57.8746 137.93C57.8746 131.557 52.5108 126.39 45.8942 126.39C39.2777 126.39 33.9138 131.557 33.9138 137.93C33.9138 144.303 39.2777 149.47 45.8942 149.47Z" fill="#FF7E7E" stroke="white" stroke-width="0.75" stroke-miterlimit="10"/>
<path d="M143.228 79.3212C146.18 79.3212 148.573 77.0177 148.573 74.1762C148.573 71.3346 146.18 69.0311 143.228 69.0311C140.276 69.0311 137.883 71.3346 137.883 74.1762C137.883 77.0177 140.276 79.3212 143.228 79.3212Z" fill="#001D33" stroke="white" stroke-width="0.75" stroke-miterlimit="10"/>
<path d="M72.9548 131.001C71.9322 131.877 70.5993 132.342 69.2312 132.3C67.8631 132.258 66.5639 131.712 65.6014 130.775C64.6388 129.839 64.0864 128.582 64.0579 127.265C64.0294 125.947 64.527 124.67 65.4482 123.695" fill="#001D33"/>
<path d="M72.9548 131.001C71.9322 131.877 70.5993 132.342 69.2312 132.3C67.8631 132.258 66.5639 131.712 65.6014 130.775C64.6388 129.839 64.0864 128.582 64.0579 127.265C64.0294 125.947 64.527 124.67 65.4482 123.695" stroke="white" stroke-width="0.75" stroke-miterlimit="10"/>
<path d="M64.8112 116.788L63.7054 117.772C61.5774 121 71.346 130.684 85.4879 139.302C99.6298 147.921 112.884 152.375 115.012 149.147L115.531 147.533" stroke="white" stroke-width="0.75" stroke-miterlimit="10"/>
<path d="M66.7214 152.988L71.6141 150.374L74.2615 145.629L76.9927 150.342L81.9189 152.892L77.0263 155.506L74.3788 160.251L71.6476 155.555L66.7214 152.988Z" stroke="white" stroke-width="0.75" stroke-miterlimit="10"/>
<path d="M153.483 123.97L149.109 117.546L141.821 114.415L148.489 110.203L151.757 103.182L156.13 109.605L163.402 112.753L156.733 116.965L153.483 123.97Z" stroke="white" stroke-width="0.75" stroke-miterlimit="10"/>
<path d="M62.1135 97.534L58.0251 93.3862L52.2611 92.0144L56.5674 88.0602L57.9917 82.5082L62.08 86.6561L67.8439 88.0279L63.5378 91.9659L62.1135 97.534Z" stroke="white" stroke-width="0.75" stroke-miterlimit="10"/>
<path d="M170.813 270.121C170.841 270.084 170.873 270.063 170.91 270.057C170.949 270.054 170.986 270.065 171.021 270.09L174.402 272.501C174.436 272.526 174.456 272.555 174.461 272.59C174.47 272.628 174.46 272.665 174.431 272.702L174.226 272.969C174.201 273.002 174.168 273.02 174.128 273.023C174.09 273.032 174.053 273.024 174.018 273L170.638 270.588C170.603 270.563 170.583 270.531 170.577 270.49C170.572 270.455 170.582 270.421 170.608 270.387L170.813 270.121Z" fill="white"/>
<path d="M168.879 272.651C168.909 272.616 168.943 272.597 168.979 272.594C169.019 272.594 169.055 272.607 169.088 272.633L172.301 275.255C172.337 275.284 172.356 275.317 172.359 275.352C172.365 275.39 172.353 275.426 172.322 275.461L172.13 275.68C172.096 275.718 172.061 275.739 172.025 275.742C171.991 275.748 171.968 275.748 171.956 275.743L168.055 275.279L170.514 277.286C170.55 277.316 170.57 277.348 170.573 277.383C170.579 277.421 170.567 277.457 170.536 277.492L170.335 277.721C170.304 277.756 170.269 277.774 170.229 277.774C170.19 277.78 170.152 277.769 170.116 277.739L166.908 275.122C166.876 275.095 166.857 275.061 166.854 275.02C166.848 274.982 166.859 274.947 166.887 274.916L167.088 274.687C167.119 274.652 167.152 274.633 167.189 274.63C167.222 274.63 167.245 274.63 167.258 274.629L171.13 275.078L168.69 273.086C168.657 273.06 168.639 273.026 168.636 272.985C168.633 272.95 168.647 272.915 168.677 272.88L168.879 272.651Z" fill="white"/>
<path d="M163.64 278.537C163.674 278.505 163.71 278.49 163.746 278.49C163.786 278.494 163.821 278.51 163.851 278.54L166.799 281.461C166.832 281.494 166.848 281.528 166.848 281.563C166.85 281.601 166.835 281.637 166.801 281.668L165.749 282.656C165.431 282.955 165.128 283.149 164.84 283.24C164.552 283.33 164.272 283.326 163.998 283.228C163.728 283.134 163.459 282.956 163.191 282.697C163.053 282.566 162.932 282.449 162.83 282.348C162.728 282.247 162.612 282.129 162.482 281.995C162.212 281.715 162.029 281.441 161.935 281.175C161.841 280.915 161.845 280.651 161.946 280.381C162.047 280.118 162.254 279.84 162.565 279.547L163.64 278.537ZM163.677 279.244L162.972 279.905C162.759 280.105 162.618 280.293 162.549 280.469C162.479 280.644 162.48 280.821 162.551 280.998C162.618 281.179 162.755 281.373 162.959 281.582C163.043 281.677 163.118 281.758 163.185 281.823C163.254 281.892 163.322 281.959 163.388 282.024C163.457 282.093 163.538 282.168 163.632 282.248C163.93 282.532 164.216 282.678 164.491 282.688C164.768 282.7 165.067 282.556 165.388 282.254L166.069 281.615L163.677 279.244Z" fill="white"/>
<path d="M157.858 283.712C157.894 283.682 157.93 283.668 157.967 283.671C158.006 283.677 158.04 283.696 158.068 283.728L160.826 286.834C160.854 286.865 160.866 286.899 160.864 286.934C160.864 286.972 160.846 287.006 160.81 287.036L160.551 287.251C160.518 287.278 160.482 287.288 160.443 287.282C160.403 287.282 160.369 287.266 160.341 287.234L157.583 284.128C157.555 284.097 157.543 284.06 157.546 284.019C157.549 283.984 157.566 283.953 157.599 283.926L157.858 283.712Z" fill="white"/>
<path d="M154.472 286.419C154.524 286.382 154.574 286.364 154.624 286.365C154.669 286.369 154.717 286.385 154.765 286.412L158.427 288.811C158.45 288.826 158.468 288.842 158.481 288.859C158.502 288.885 158.509 288.916 158.504 288.951C158.499 288.986 158.483 289.013 158.456 289.033L158.187 289.226C158.146 289.255 158.106 289.266 158.067 289.257C158.027 289.254 157.999 289.246 157.982 289.232L154.756 287.114L155.958 290.683C155.964 290.705 155.964 290.733 155.959 290.768C155.957 290.806 155.935 290.84 155.894 290.87L155.625 291.063C155.598 291.082 155.566 291.09 155.529 291.084C155.49 291.082 155.459 291.067 155.439 291.04C155.426 291.023 155.415 291.003 155.406 290.978L154.052 286.924C154.035 286.874 154.032 286.826 154.045 286.78C154.055 286.737 154.085 286.697 154.137 286.66L154.472 286.419Z" fill="white"/>
<path d="M149.307 289.991C149.347 289.967 149.384 289.958 149.42 289.965C149.458 289.976 149.489 289.999 149.513 290.034L151.843 293.472C151.867 293.507 151.875 293.542 151.868 293.576C151.863 293.614 151.841 293.646 151.801 293.671L151.516 293.85C151.481 293.872 151.444 293.878 151.405 293.867C151.366 293.862 151.335 293.842 151.311 293.807L148.981 290.369C148.957 290.334 148.949 290.296 148.958 290.256C148.965 290.222 148.987 290.193 149.023 290.17L149.307 289.991Z" fill="white"/>
<path d="M146.655 291.653C146.696 291.631 146.734 291.625 146.77 291.635C146.807 291.648 146.836 291.673 146.858 291.71L148.953 295.293C148.976 295.333 148.983 295.37 148.974 295.404C148.966 295.442 148.942 295.472 148.901 295.494L147.632 296.18C147.248 296.387 146.905 296.498 146.604 296.511C146.303 296.525 146.033 296.449 145.795 296.285C145.558 296.124 145.344 295.883 145.152 295.563C145.052 295.401 144.966 295.257 144.893 295.133C144.82 295.009 144.739 294.865 144.649 294.702C144.459 294.361 144.353 294.05 144.331 293.769C144.307 293.493 144.379 293.238 144.545 293.003C144.711 292.774 144.982 292.558 145.358 292.354L146.655 291.653ZM146.509 292.346L145.659 292.806C145.402 292.945 145.217 293.09 145.105 293.242C144.993 293.394 144.948 293.565 144.971 293.755C144.99 293.947 145.071 294.17 145.215 294.425C145.272 294.538 145.323 294.636 145.371 294.716C145.42 294.8 145.468 294.882 145.515 294.963C145.564 295.047 145.623 295.14 145.693 295.242C145.908 295.593 146.146 295.808 146.409 295.888C146.673 295.971 146.999 295.908 147.387 295.698L148.209 295.254L146.509 292.346Z" fill="white"/>
<path d="M138.203 295.924C138.532 295.785 138.842 295.724 139.133 295.74C139.421 295.757 139.682 295.856 139.918 296.038C140.152 296.226 140.353 296.507 140.523 296.883L141.587 299.24C141.606 299.283 141.609 299.321 141.596 299.354C141.585 299.391 141.558 299.418 141.515 299.436L141.215 299.562C141.172 299.581 141.133 299.581 141.097 299.564C141.059 299.552 141.031 299.525 141.011 299.482L139.942 297.113C139.771 296.734 139.554 296.491 139.292 296.385C139.029 296.279 138.742 296.291 138.429 296.423C138.119 296.553 137.916 296.747 137.818 297.005C137.716 297.264 137.75 297.584 137.922 297.963L138.991 300.333C139.01 300.375 139.014 300.413 139.001 300.446C138.985 300.485 138.958 300.512 138.919 300.529L138.614 300.657C138.575 300.674 138.537 300.673 138.501 300.656C138.463 300.644 138.435 300.617 138.416 300.575L137.351 298.217C137.182 297.842 137.108 297.507 137.128 297.212C137.147 296.923 137.248 296.671 137.43 296.456C137.613 296.241 137.87 296.064 138.203 295.924Z" fill="white"/>
<path d="M132.709 298.197C132.741 298.187 132.773 298.191 132.806 298.207C132.838 298.224 132.859 298.248 132.87 298.28C132.877 298.3 132.882 298.323 132.886 298.348L132.69 302.711C132.688 302.756 132.676 302.795 132.656 302.828C132.636 302.861 132.598 302.886 132.541 302.904L132.129 303.032C132.076 303.049 132.032 303.049 131.995 303.034C131.955 303.02 131.92 302.995 131.89 302.96L129.085 299.532C129.069 299.511 129.058 299.49 129.051 299.47C129.04 299.438 129.043 299.406 129.059 299.374C129.075 299.342 129.099 299.322 129.132 299.311L129.441 299.215C129.489 299.2 129.53 299.201 129.562 299.217C129.59 299.235 129.612 299.253 129.627 299.27L130.247 300.021L132.236 299.402L132.282 298.443C132.28 298.422 132.286 298.395 132.302 298.364C132.319 298.332 132.351 298.309 132.399 298.294L132.709 298.197ZM132.234 299.974L130.597 300.484L132.133 302.366L132.234 299.974Z" fill="white"/>
<path d="M124.913 300.527C124.958 300.517 124.997 300.522 125.027 300.541C125.059 300.565 125.079 300.597 125.089 300.638L126.041 304.68C126.051 304.721 126.046 304.757 126.027 304.787C126.009 304.822 125.977 304.844 125.932 304.854L125.603 304.925C125.562 304.934 125.525 304.927 125.494 304.904C125.463 304.885 125.443 304.854 125.433 304.813L124.574 301.166L122.509 301.618C122.463 301.628 122.425 301.621 122.393 301.598C122.362 301.578 122.342 301.546 122.331 301.501L122.273 301.253C122.263 301.212 122.267 301.174 122.285 301.14C122.304 301.11 122.336 301.09 122.382 301.08L124.913 300.527Z" fill="white"/>
<path d="M114.541 302.278C114.927 302.241 115.256 302.282 115.527 302.4C115.793 302.519 116.005 302.7 116.162 302.943C116.319 303.186 116.421 303.477 116.469 303.815C116.492 303.986 116.513 304.171 116.534 304.368C116.554 304.565 116.572 304.753 116.587 304.934C116.61 305.275 116.57 305.579 116.466 305.847C116.363 306.115 116.193 306.333 115.956 306.499C115.716 306.666 115.402 306.768 115.016 306.805C114.727 306.832 114.469 306.817 114.242 306.758C114.016 306.699 113.824 306.609 113.667 306.489C113.507 306.369 113.38 306.229 113.286 306.068C113.194 305.912 113.134 305.746 113.107 305.571C113.099 305.534 113.108 305.501 113.135 305.473C113.158 305.446 113.188 305.43 113.226 305.426L113.572 305.393C113.609 305.39 113.644 305.397 113.676 305.415C113.703 305.434 113.726 305.47 113.744 305.523C113.85 305.843 114.007 306.054 114.217 306.157C114.423 306.26 114.673 306.298 114.966 306.27C115.302 306.238 115.558 306.116 115.735 305.904C115.913 305.697 115.988 305.383 115.961 304.962C115.937 304.617 115.9 304.265 115.85 303.906C115.789 303.488 115.65 303.193 115.433 303.019C115.216 302.849 114.939 302.78 114.604 302.812C114.31 302.84 114.073 302.924 113.893 303.064C113.709 303.204 113.598 303.441 113.561 303.775C113.554 303.831 113.539 303.87 113.516 303.894C113.489 303.918 113.456 303.931 113.419 303.935L113.073 303.968C113.035 303.971 113.002 303.962 112.974 303.939C112.942 303.917 112.926 303.887 112.927 303.848C112.917 303.672 112.94 303.496 112.998 303.321C113.057 303.15 113.152 302.991 113.285 302.843C113.414 302.695 113.583 302.571 113.793 302.47C114.002 302.37 114.252 302.306 114.541 302.278Z" fill="white"/>
<path d="M106.914 302.834C107.274 302.828 107.584 302.884 107.844 303.003C108.105 303.126 108.307 303.315 108.451 303.571C108.596 303.831 108.68 304.158 108.703 304.551C108.711 304.737 108.716 304.915 108.719 305.084C108.722 305.258 108.723 305.438 108.722 305.624C108.712 306.014 108.638 306.339 108.498 306.6C108.355 306.864 108.155 307.062 107.899 307.194C107.639 307.329 107.337 307.4 106.994 307.405C106.647 307.411 106.344 307.35 106.083 307.223C105.818 307.1 105.61 306.909 105.457 306.649C105.304 306.393 105.218 306.071 105.199 305.682C105.187 305.496 105.18 305.316 105.176 305.142C105.173 304.973 105.175 304.795 105.18 304.609C105.186 304.215 105.258 303.886 105.397 303.621C105.533 303.36 105.728 303.165 105.984 303.033C106.24 302.906 106.55 302.84 106.914 302.834ZM106.924 303.374C106.598 303.379 106.335 303.481 106.135 303.679C105.931 303.877 105.825 304.194 105.815 304.63C105.81 304.821 105.809 304.99 105.811 305.138C105.814 305.291 105.821 305.46 105.833 305.646C105.847 305.938 105.906 306.174 106.011 306.354C106.111 306.535 106.245 306.666 106.411 306.748C106.578 306.83 106.769 306.869 106.985 306.866C107.192 306.862 107.378 306.817 107.541 306.729C107.705 306.642 107.836 306.507 107.934 306.323C108.029 306.139 108.079 305.901 108.087 305.609C108.088 305.423 108.087 305.254 108.084 305.101C108.082 304.953 108.077 304.784 108.069 304.593C108.045 304.158 107.927 303.844 107.716 303.653C107.505 303.462 107.241 303.368 106.924 303.374Z" fill="white"/>
<path d="M100.458 302.926C100.505 302.93 100.539 302.946 100.562 302.974C100.584 303.006 100.593 303.043 100.589 303.085L100.16 307.211C100.156 307.257 100.139 307.292 100.111 307.315C100.083 307.342 100.046 307.353 99.9992 307.349L99.7083 307.321C99.6577 307.316 99.6211 307.3 99.5984 307.272C99.5753 307.249 99.5623 307.23 99.5594 307.217L97.7944 303.794L97.4664 306.954C97.4616 307 97.4452 307.035 97.4173 307.058C97.3889 307.085 97.3516 307.096 97.3052 307.092L97.0017 307.063C96.9553 307.058 96.921 307.04 96.8987 307.008C96.8719 306.98 96.8608 306.943 96.8656 306.896L97.2933 302.777C97.2977 302.735 97.3162 302.7 97.3488 302.673C97.3771 302.646 97.4124 302.635 97.4545 302.639L97.7581 302.668C97.8045 302.672 97.839 302.688 97.8616 302.716C97.8801 302.743 97.8931 302.762 97.9007 302.771L99.6626 306.162L99.988 303.028C99.9923 302.985 100.011 302.951 100.043 302.924C100.071 302.901 100.108 302.892 100.155 302.897L100.458 302.926Z" fill="white"/>
<path d="M91.5536 301.857C91.5952 301.864 91.6281 301.883 91.6523 301.914C91.6715 301.947 91.677 301.985 91.6687 302.026L90.9414 305.689L92.1404 305.91C92.182 305.917 92.2149 305.936 92.2391 305.966C92.2583 306 92.2638 306.038 92.2556 306.079L92.2036 306.341C92.1945 306.387 92.175 306.42 92.1451 306.44C92.1102 306.464 92.0719 306.472 92.0303 306.464L89.0204 305.909C88.9746 305.901 88.9421 305.88 88.9229 305.846C88.8987 305.816 88.8911 305.778 88.9002 305.732L88.9521 305.471C88.9604 305.429 88.982 305.396 89.0169 305.373C89.0468 305.352 89.0847 305.346 89.1305 305.355L90.3232 305.575L91.0505 301.913C91.0588 301.871 91.0804 301.838 91.1153 301.815C91.1452 301.794 91.1831 301.788 91.2288 301.797L91.5536 301.857Z" fill="white"/>
<path d="M85.899 300.771C85.944 300.784 85.975 300.805 85.9922 300.837C86.0081 300.872 86.0099 300.91 85.9976 300.95L84.794 304.925C84.7805 304.97 84.7578 305.001 84.7259 305.018C84.6928 305.04 84.6537 305.045 84.6088 305.032L83.1131 304.619C82.6513 304.491 82.3181 304.282 82.1135 303.993C81.9089 303.703 81.8705 303.347 81.9983 302.925C82.0929 302.613 82.25 302.379 82.4696 302.224C82.6839 302.072 82.9375 301.995 83.2306 301.993L82.7769 300.113C82.772 300.085 82.7726 300.061 82.7787 300.041C82.7886 300.008 82.8115 299.984 82.8475 299.967C82.8794 299.95 82.9116 299.945 82.9443 299.954L83.2386 300.036C83.3081 300.055 83.3536 300.087 83.3752 300.133C83.3969 300.178 83.4144 300.223 83.4279 300.266L83.8486 302.058L84.9213 302.355L85.3969 300.784C85.4092 300.744 85.4339 300.713 85.4711 300.693C85.503 300.675 85.5414 300.672 85.5864 300.685L85.899 300.771ZM84.7647 302.872L83.7532 302.592C83.4467 302.508 83.1988 302.507 83.0095 302.591C82.819 302.679 82.6856 302.849 82.6094 303.101C82.5345 303.348 82.5529 303.558 82.6648 303.73C82.7726 303.9 82.9818 304.028 83.2924 304.114L84.3039 304.394L84.7647 302.872Z" fill="white"/>
<path d="M78.726 298.678C78.77 298.694 78.7995 298.717 78.8145 298.75C78.8281 298.786 78.8275 298.824 78.8126 298.863L77.3531 302.751C77.3382 302.791 77.3143 302.818 77.2814 302.834C77.247 302.853 77.2078 302.855 77.1638 302.84L76.846 302.729C76.806 302.715 76.7792 302.69 76.7657 302.654C76.7466 302.62 76.7445 302.584 76.7594 302.544L78.2189 298.656C78.2338 298.617 78.2605 298.588 78.2988 298.57C78.3318 298.555 78.3682 298.554 78.4082 298.568L78.726 298.678Z" fill="white"/>
<path d="M75.6689 297.683C75.7117 297.701 75.7396 297.726 75.7525 297.76C75.7637 297.796 75.7606 297.834 75.7432 297.873L74.0385 301.649C74.0193 301.692 73.9928 301.72 73.959 301.733C73.9235 301.75 73.8843 301.749 73.8415 301.731L72.2414 301.051C71.9494 300.927 71.7336 300.778 71.5942 300.604C71.449 300.432 71.3702 300.247 71.3577 300.048C71.3412 299.848 71.3782 299.648 71.4687 299.448C71.5401 299.289 71.6291 299.164 71.7358 299.072C71.8369 298.981 71.9429 298.916 72.0539 298.876C72.1631 298.84 72.2633 298.818 72.3547 298.811C72.2359 298.673 72.1556 298.496 72.1136 298.281C72.0678 298.064 72.0979 297.838 72.2041 297.603C72.2998 297.391 72.4364 297.217 72.6137 297.081C72.7911 296.945 73.0015 296.864 73.2449 296.839C73.4827 296.816 73.7437 296.865 74.0279 296.985L75.6689 297.683ZM75.0194 297.965L73.8923 297.486C73.6393 297.378 73.4141 297.363 73.217 297.44C73.0198 297.517 72.8768 297.654 72.7881 297.851C72.6958 298.055 72.6883 298.252 72.7653 298.441C72.8407 298.634 73.0049 298.784 73.258 298.891L74.3851 299.37L75.0194 297.965ZM74.1762 299.833L73.1017 299.376C72.8525 299.271 72.6384 299.246 72.4595 299.303C72.2788 299.364 72.1441 299.493 72.0553 299.69C71.9666 299.887 71.9629 300.064 72.0444 300.223C72.1259 300.382 72.2912 300.514 72.5404 300.62L73.6149 301.076L74.1762 299.833Z" fill="white"/>
<path d="M67.3168 293.804C67.6299 293.973 67.8681 294.174 68.0313 294.407C68.1908 294.638 68.2668 294.898 68.2593 295.187C68.246 295.479 68.1356 295.802 67.9281 296.157L66.6256 298.384C66.6021 298.424 66.5727 298.449 66.5375 298.459C66.5002 298.473 66.461 298.468 66.42 298.446L66.1349 298.292C66.0939 298.27 66.0697 298.24 66.0623 298.202C66.049 298.166 66.0542 298.128 66.0777 298.088L67.3866 295.849C67.5962 295.491 67.6656 295.179 67.5946 294.915C67.5237 294.65 67.3391 294.437 67.0409 294.276C66.7465 294.117 66.4632 294.077 66.1913 294.156C65.9156 294.233 65.6729 294.451 65.4633 294.81L64.1544 297.048C64.1308 297.088 64.1015 297.113 64.0663 297.123C64.0252 297.135 63.986 297.13 63.9488 297.11L63.658 296.953C63.6208 296.933 63.5984 296.904 63.591 296.866C63.5778 296.83 63.5829 296.792 63.6064 296.752L64.9089 294.524C65.1164 294.17 65.3479 293.912 65.6036 293.752C65.8533 293.593 66.1221 293.519 66.4099 293.531C66.6977 293.542 67 293.633 67.3168 293.804Z" fill="white"/>
<path d="M60.7693 290.124C60.8045 290.148 60.8269 290.178 60.8367 290.215C60.8405 290.253 60.83 290.29 60.8052 290.324L58.621 293.351L59.6335 294.029C59.6686 294.052 59.6911 294.083 59.7008 294.12C59.7046 294.158 59.6941 294.194 59.6693 294.229L59.5133 294.445C59.4861 294.482 59.4545 294.505 59.4185 294.511C59.3766 294.519 59.338 294.511 59.3029 294.487L56.7612 292.784C56.7225 292.758 56.7013 292.726 56.6976 292.688C56.6878 292.651 56.6966 292.613 56.7238 292.576L56.8798 292.359C56.9046 292.325 56.9379 292.304 56.9799 292.297C57.0158 292.29 57.0531 292.3 57.0918 292.326L58.099 293.001L60.2831 289.974C60.3079 289.94 60.3413 289.919 60.3832 289.911C60.4192 289.905 60.4565 289.915 60.4951 289.941L60.7693 290.124Z" fill="white"/>
<path d="M55.1149 286.154C55.3961 286.377 55.5976 286.616 55.7193 286.869C55.8382 287.125 55.8681 287.395 55.8088 287.677C55.7468 287.962 55.594 288.258 55.3504 288.567C55.2322 288.71 55.1179 288.846 55.0074 288.974C54.8942 289.105 54.7752 289.24 54.6504 289.378C54.3831 289.662 54.109 289.857 53.8281 289.962C53.5411 290.069 53.2553 290.09 52.9706 290.025C52.6799 289.961 52.4006 289.823 52.1326 289.61C51.8613 289.394 51.6676 289.156 51.5514 288.896C51.4291 288.637 51.3957 288.363 51.4511 288.072C51.5037 287.785 51.6521 287.49 51.8963 287.188C52.0111 287.042 52.1252 286.903 52.2384 286.772C52.3489 286.644 52.4682 286.512 52.5963 286.376C52.863 286.087 53.1382 285.887 53.4219 285.778C53.6995 285.67 53.9806 285.648 54.2653 285.713C54.5472 285.78 54.8304 285.927 55.1149 286.154ZM54.7628 286.562C54.5081 286.359 54.2378 286.268 53.952 286.289C53.6628 286.307 53.3695 286.476 53.0718 286.795C52.9409 286.934 52.8272 287.059 52.7305 287.171C52.6311 287.286 52.524 287.417 52.4091 287.563C52.2252 287.789 52.1135 288.003 52.0742 288.203C52.0315 288.401 52.0471 288.584 52.1209 288.75C52.1947 288.917 52.316 289.067 52.4847 289.202C52.6468 289.33 52.82 289.414 53.0042 289.453C53.1885 289.491 53.3797 289.474 53.5778 289.399C53.7726 289.322 53.9703 289.177 54.1707 288.964C54.2955 288.826 54.4076 288.699 54.5071 288.584C54.6037 288.472 54.7125 288.343 54.8335 288.196C55.1046 287.856 55.2227 287.548 55.1876 287.272C55.1525 286.996 55.0109 286.759 54.7628 286.562Z" fill="white"/>
<path d="M50.2224 282.253C50.2561 282.285 50.273 282.318 50.2732 282.354C50.2703 282.392 50.2537 282.426 50.2234 282.455L47.2506 285.346C47.2172 285.378 47.1822 285.395 47.1456 285.395C47.106 285.398 47.0693 285.383 47.0356 285.351L45.9147 284.282C45.5686 283.951 45.3749 283.612 45.3337 283.262C45.2924 282.913 45.4296 282.585 45.7452 282.278C45.9789 282.051 46.2298 281.922 46.498 281.891C46.7601 281.861 47.021 281.914 47.2808 282.051L47.7843 280.198C47.7933 280.172 47.8054 280.151 47.8206 280.136C47.8449 280.113 47.8768 280.102 47.9165 280.105C47.9531 280.105 47.9836 280.116 48.0081 280.14L48.2286 280.35C48.2807 280.4 48.3053 280.45 48.3025 280.5C48.2997 280.549 48.2938 280.597 48.2849 280.641L47.7946 282.401L48.5986 283.168L49.7731 282.026C49.8035 281.996 49.84 281.981 49.8827 281.981C49.9193 281.981 49.9544 281.997 49.9881 282.029L50.2224 282.253ZM48.2116 283.544L47.4536 282.821C47.2239 282.601 47.0054 282.484 46.798 282.467C46.5875 282.453 46.3882 282.538 46.2001 282.721C46.0149 282.901 45.9305 283.092 45.9466 283.295C45.9598 283.494 46.0827 283.705 46.3155 283.927L47.0735 284.651L48.2116 283.544Z" fill="white"/>
<path d="M44.0594 276.055C44.3026 276.331 44.4641 276.598 44.5439 276.855C44.6203 277.115 44.6344 277.352 44.5861 277.566C44.5318 277.779 44.4287 277.954 44.2769 278.089C44.2507 278.11 44.2193 278.119 44.1829 278.116C44.1404 278.113 44.1065 278.097 44.0813 278.068L43.8674 277.825C43.8339 277.787 43.8185 277.75 43.8214 277.715C43.8243 277.68 43.8361 277.648 43.8568 277.621C43.9215 277.54 43.9666 277.438 43.9922 277.313C44.0117 277.188 43.9988 277.049 43.9534 276.895C43.9019 276.74 43.7978 276.574 43.6413 276.396C43.4008 276.122 43.1754 275.962 42.9652 275.916C42.7489 275.868 42.5571 275.913 42.3899 276.049C42.2751 276.143 42.214 276.253 42.2067 276.379C42.1932 276.505 42.2202 276.66 42.2875 276.846C42.3547 277.031 42.4535 277.262 42.5836 277.538C42.7189 277.826 42.8126 278.08 42.8649 278.299C42.9171 278.519 42.9161 278.716 42.8619 278.891C42.8049 279.064 42.6829 279.226 42.496 279.378C42.3189 279.523 42.1209 279.605 41.9021 279.626C41.68 279.649 41.4524 279.608 41.2195 279.503C40.9837 279.395 40.7567 279.217 40.5386 278.969C40.3653 278.772 40.2421 278.578 40.1693 278.386C40.0903 278.194 40.0534 278.011 40.0585 277.838C40.0604 277.667 40.0914 277.513 40.1516 277.377C40.2085 277.243 40.2848 277.134 40.3804 277.051C40.4033 277.032 40.4333 277.021 40.4702 277.018C40.5039 277.018 40.5361 277.036 40.5668 277.071L40.7892 277.323C40.8087 277.346 40.8231 277.375 40.8324 277.411C40.8388 277.444 40.8296 277.481 40.8047 277.524C40.6871 277.652 40.6382 277.818 40.6583 278.02C40.6783 278.222 40.7778 278.425 40.9568 278.628C41.1385 278.835 41.3277 278.97 41.5243 279.033C41.7182 279.093 41.902 279.052 42.0758 278.911C42.1873 278.82 42.2542 278.713 42.2765 278.591C42.2955 278.472 42.2756 278.324 42.2167 278.148C42.1578 277.973 42.0672 277.754 41.945 277.494C41.7934 277.181 41.6873 276.91 41.6267 276.681C41.5628 276.454 41.5579 276.253 41.6122 276.078C41.6603 275.902 41.7779 275.738 41.9648 275.585C42.1714 275.417 42.3946 275.325 42.6344 275.309C42.871 275.296 43.1125 275.353 43.359 275.479C43.5994 275.605 43.8329 275.797 44.0594 276.055Z" fill="white"/>
<path d="M71.9401 197.489C70.7947 198.438 69.5118 199.166 68.0915 199.674C66.6712 200.181 65.1993 200.435 63.6759 200.435C62.5076 200.435 61.3794 200.286 60.2912 199.988C59.2146 199.701 58.2009 199.293 57.2502 198.764C56.3109 198.223 55.4519 197.578 54.673 196.827C53.8941 196.077 53.224 195.25 52.6628 194.345C52.113 193.429 51.6835 192.453 51.3742 191.416C51.0764 190.368 50.9275 189.281 50.9275 188.156C50.9275 187.03 51.0764 185.943 51.3742 184.895C51.6835 183.847 52.113 182.871 52.6628 181.966C53.224 181.05 53.8941 180.217 54.673 179.467C55.4519 178.717 56.3109 178.077 57.2502 177.547C58.2009 177.007 59.2146 176.593 60.2912 176.306C61.3794 176.008 62.5076 175.859 63.6759 175.859C65.1993 175.859 66.6712 176.113 68.0915 176.621C69.5118 177.117 70.7947 177.845 71.9401 178.805L69.3286 182.942C68.6069 182.192 67.7536 181.619 66.7686 181.221C65.7835 180.813 64.7526 180.609 63.6759 180.609C62.5878 180.609 61.5684 180.808 60.6177 181.205C59.667 181.602 58.8366 182.143 58.1264 182.827C57.4163 183.5 56.855 184.3 56.4427 185.226C56.0303 186.142 55.8241 187.118 55.8241 188.156C55.8241 189.193 56.0303 190.169 56.4427 191.085C56.855 191.989 57.4163 192.784 58.1264 193.468C58.8366 194.152 59.667 194.692 60.6177 195.09C61.5684 195.487 62.5878 195.685 63.6759 195.685C64.7526 195.685 65.7835 195.487 66.7686 195.09C67.7536 194.681 68.6069 194.102 69.3286 193.352L71.9401 197.489Z" fill="#A8B2CC"/>
<path d="M89.3103 190.439V185.69C89.3103 185.039 89.1786 184.426 88.9151 183.853C88.6631 183.268 88.3138 182.76 87.8671 182.33C87.4204 181.9 86.8935 181.563 86.2864 181.321C85.6908 181.067 85.0551 180.94 84.3793 180.94C83.7035 180.94 83.0621 181.067 82.455 181.321C81.8594 181.563 81.3382 181.9 80.8915 182.33C80.4448 182.76 80.0897 183.268 79.8263 183.853C79.5743 184.426 79.4483 185.039 79.4483 185.69V190.439H89.3103ZM94.2413 199.922H89.3103V195.172H79.4483V199.922H74.5345V185.69C74.5345 184.377 74.7922 183.147 75.3076 181.999C75.823 180.841 76.5218 179.831 77.4037 178.971C78.2971 178.11 79.3395 177.432 80.5307 176.935C81.7334 176.439 83.0162 176.19 84.3793 176.19C85.7423 176.19 87.0195 176.439 88.2107 176.935C89.4134 177.432 90.4614 178.11 91.3549 178.971C92.2483 179.831 92.9527 180.841 93.4681 181.999C93.9836 183.147 94.2413 184.377 94.2413 185.69V199.922Z" fill="#A8B2CC"/>
<path d="M118.261 188.056C118.261 189.148 118.112 190.202 117.814 191.217C117.528 192.221 117.115 193.164 116.577 194.047C116.039 194.919 115.397 195.718 114.653 196.447C113.908 197.164 113.078 197.782 112.161 198.3C111.245 198.819 110.26 199.221 109.206 199.508C108.164 199.784 107.076 199.922 105.942 199.922H98.5194V176.19H105.942C107.076 176.19 108.164 176.334 109.206 176.621C110.26 176.897 111.245 177.294 112.161 177.812C113.078 178.331 113.908 178.954 114.653 179.682C115.397 180.399 116.039 181.199 116.577 182.082C117.115 182.954 117.528 183.897 117.814 184.912C118.112 185.916 118.261 186.964 118.261 188.056ZM113.33 188.056C113.33 187.074 113.135 186.153 112.745 185.292C112.367 184.432 111.841 183.682 111.165 183.042C110.5 182.391 109.716 181.878 108.811 181.503C107.918 181.128 106.961 180.94 105.942 180.94H103.485V195.172H105.942C106.961 195.172 107.918 194.99 108.811 194.626C109.716 194.251 110.5 193.744 111.165 193.104C111.841 192.453 112.367 191.697 112.745 190.836C113.135 189.965 113.33 189.038 113.33 188.056Z" fill="#A8B2CC"/>
<path d="M138.431 199.922H121.542V176.19H138.431V180.94H126.473V185.69H134.566V190.439H126.473V195.172H138.431V199.922Z" fill="#A8B2CC"/>
<path d="M152.228 199.922H147.314V180.94H139.909V176.19H159.616V180.94H152.228V199.922Z" fill="#A8B2CC"/>
<path d="M90.3833 220.452C90.3833 221.097 90.2946 221.72 90.1173 222.321C89.9466 222.915 89.7036 223.475 89.3884 224C89.0732 224.519 88.6923 224.993 88.2457 225.423C87.7991 225.854 87.3066 226.224 86.7681 226.533C86.2296 226.837 85.6484 227.071 85.0246 227.236C84.4007 227.406 83.7539 227.492 83.084 227.492C82.4142 227.492 81.7673 227.406 81.1435 227.236C80.5262 227.071 79.945 226.837 79.3999 226.533C78.8614 226.224 78.3689 225.854 77.9223 225.423C77.4758 224.993 77.0916 224.519 76.7698 224C76.4546 223.475 76.2083 222.915 76.031 222.321C75.8603 221.72 75.7749 221.097 75.7749 220.452C75.7749 219.806 75.8603 219.183 76.031 218.582C76.2083 217.981 76.4546 217.422 76.7698 216.903C77.0916 216.384 77.4758 215.91 77.9223 215.48C78.3689 215.05 78.8614 214.683 79.3999 214.379C79.945 214.075 80.5262 213.841 81.1435 213.677C81.7673 213.506 82.4142 213.421 83.084 213.421C83.7539 213.421 84.4007 213.506 85.0246 213.677C85.6484 213.841 86.2296 214.075 86.7681 214.379C87.3066 214.683 87.7991 215.05 88.2457 215.48C88.6923 215.91 89.0732 216.384 89.3884 216.903C89.7036 217.422 89.9466 217.981 90.1173 218.582C90.2946 219.183 90.3833 219.806 90.3833 220.452ZM87.5759 220.452C87.5759 219.857 87.4577 219.297 87.2212 218.772C86.9848 218.241 86.663 217.782 86.2559 217.396C85.8553 217.004 85.3792 216.694 84.8276 216.466C84.2825 216.239 83.7013 216.125 83.084 216.125C82.4601 216.125 81.8757 216.239 81.3306 216.466C80.7856 216.694 80.3094 217.004 79.9023 217.396C79.4951 217.782 79.1733 218.241 78.9369 218.772C78.7005 219.297 78.5823 219.857 78.5823 220.452C78.5823 221.046 78.7005 221.606 78.9369 222.131C79.1733 222.65 79.4951 223.105 79.9023 223.497C80.3094 223.889 80.7856 224.199 81.3306 224.427C81.8757 224.655 82.4601 224.769 83.084 224.769C83.7013 224.769 84.2825 224.655 84.8276 224.427C85.3792 224.199 85.8553 223.889 86.2559 223.497C86.663 223.105 86.9848 222.65 87.2212 222.131C87.4577 221.606 87.5759 221.046 87.5759 220.452Z" fill="white"/>
<path d="M95.0721 216.315V221.761H97.8993C98.2867 221.761 98.6512 221.691 98.9927 221.552C99.3342 221.407 99.6329 221.211 99.8891 220.964C100.145 220.717 100.345 220.429 100.49 220.1C100.641 219.765 100.717 219.411 100.717 219.038C100.717 218.665 100.641 218.314 100.49 217.985C100.345 217.649 100.145 217.358 99.8891 217.112C99.6329 216.865 99.3342 216.672 98.9927 216.533C98.6512 216.387 98.2867 216.315 97.8993 216.315H95.0721ZM95.0721 227.198H92.245V213.592H97.8993C98.418 213.592 98.9171 213.658 99.3965 213.791C99.8759 213.917 100.322 214.101 100.736 214.341C101.157 214.575 101.537 214.86 101.879 215.195C102.227 215.524 102.522 215.891 102.765 216.296C103.015 216.701 103.205 217.134 103.337 217.596C103.475 218.057 103.544 218.538 103.544 219.038C103.544 219.506 103.481 219.961 103.356 220.404C103.238 220.847 103.064 221.268 102.834 221.666C102.611 222.065 102.335 222.431 102.007 222.767C101.679 223.102 101.311 223.393 100.904 223.64L102.47 227.198H99.4655L98.2342 224.456L95.0721 224.475V227.198Z" fill="white"/>
<path d="M116.704 223.118C116.704 223.681 116.592 224.209 116.369 224.702C116.146 225.196 115.84 225.629 115.453 226.002C115.072 226.369 114.625 226.66 114.113 226.875C113.601 227.09 113.053 227.198 112.468 227.198H105.405V213.592H112.468C113.053 213.592 113.601 213.699 114.113 213.914C114.625 214.129 115.072 214.423 115.453 214.797C115.84 215.163 116.146 215.594 116.369 216.087C116.592 216.58 116.704 217.109 116.704 217.671C116.704 217.925 116.668 218.184 116.596 218.45C116.523 218.715 116.422 218.971 116.29 219.218C116.159 219.465 116.001 219.689 115.817 219.892C115.634 220.094 115.43 220.262 115.207 220.395C115.437 220.515 115.643 220.679 115.827 220.888C116.011 221.09 116.169 221.315 116.3 221.562C116.431 221.808 116.53 222.068 116.596 222.34C116.668 222.605 116.704 222.865 116.704 223.118ZM108.232 224.475H112.468C112.665 224.475 112.849 224.44 113.02 224.37C113.191 224.301 113.338 224.206 113.463 224.086C113.594 223.959 113.696 223.814 113.768 223.649C113.841 223.485 113.877 223.307 113.877 223.118C113.877 222.928 113.841 222.751 113.768 222.586C113.696 222.422 113.594 222.28 113.463 222.159C113.338 222.033 113.191 221.935 113.02 221.865C112.849 221.796 112.665 221.761 112.468 221.761H108.232V224.475ZM108.232 219.038H112.468C112.665 219.038 112.849 219.003 113.02 218.933C113.191 218.864 113.338 218.769 113.463 218.649C113.594 218.522 113.696 218.377 113.768 218.212C113.841 218.042 113.877 217.861 113.877 217.671C113.877 217.482 113.841 217.305 113.768 217.14C113.696 216.976 113.594 216.833 113.463 216.713C113.338 216.587 113.191 216.489 113.02 216.419C112.849 216.349 112.665 216.315 112.468 216.315H108.232V219.038Z" fill="white"/>
<path d="M121.669 227.198H118.842V213.592H121.669V227.198Z" fill="white"/>
<path d="M130.229 227.198H127.412V216.315H123.166V213.592H134.465V216.315H130.229V227.198Z" fill="white"/>
<path d="M21.9502 215.432H69.0338" stroke="white" stroke-miterlimit="10"/>
<path d="M21.9502 220.597H69.0338" stroke="white" stroke-miterlimit="10"/>
<path d="M21.9502 225.745H69.0338" stroke="white" stroke-miterlimit="10"/>
<path d="M140.849 215.432H187.933" stroke="white" stroke-miterlimit="10"/>
<path d="M140.849 220.597H187.933" stroke="white" stroke-miterlimit="10"/>
<path d="M140.849 225.745H187.933" stroke="white" stroke-miterlimit="10"/>
<defs>
<linearGradient id="paint0_linear_1299_4000" x1="104.941" y1="313.979" x2="104.941" y2="11.5428" gradientUnits="userSpaceOnUse">
<stop stop-color="#929AB7"/>
<stop offset="0.21" stop-color="#3B5069"/>
<stop offset="0.37" stop-color="#001D33"/>
</linearGradient>
</defs>
</svg>
