<svg width="211" height="324" viewBox="0 0 211 324" fill="none" xmlns="http://www.w3.org/2000/svg">
<path d="M105.52 319.006C50.3965 319.006 5.54407 276.804 5.54407 224.919C5.54407 224.596 5.54407 224.273 5.54407 223.95V223.143V212.169C5.55238 212.024 5.55238 211.879 5.54407 211.734V100.766V98.458C6.0132 47.0249 50.7818 5.17798 105.503 5.17798C160.626 5.17798 205.478 47.3961 205.478 99.265C205.478 99.6039 205.478 99.9266 205.478 100.249V101.056V112.03C205.47 112.176 205.47 112.321 205.478 112.466V223.434V225.742C205.009 277.175 160.173 319.006 105.52 319.006Z" fill="#001D33"/>
<path d="M105.536 10.0195C157.895 10.0195 200.485 50.0589 200.485 99.2649C200.485 99.5393 200.485 99.7975 200.485 100.056C200.485 100.314 200.485 100.669 200.485 100.976V112.273C200.485 112.402 200.485 112.547 200.485 112.676V221.175V225.661C200.382 237.351 197.852 248.904 193.044 259.638C188.236 270.372 181.247 280.072 172.488 288.165C154.537 304.933 130.474 314.25 105.469 314.116C53.1107 314.116 10.5202 274.092 10.5202 224.87C10.5202 224.612 10.5202 224.354 10.5202 224.079C10.5202 223.805 10.5202 223.482 10.5202 223.176V211.879C10.5202 211.734 10.5202 211.605 10.5202 211.475V102.977V98.4903C10.6408 86.8024 13.1873 75.2557 18.0098 64.5298C22.8323 53.804 29.8334 44.1155 38.6011 36.0346C56.5287 19.2805 80.5575 9.95881 105.536 10.0679V10.0195ZM105.536 0.384851C47.8497 0.384851 1.05375 44.2168 0.551106 98.458V211.943C0.54286 212.099 0.54286 212.256 0.551106 212.411V223.014C0.551106 223.644 0.551106 224.257 0.551106 224.886C0.551106 279.531 47.5649 323.815 105.553 323.815C163.239 323.815 210.035 279.999 210.538 225.758V112.224C210.547 112.068 210.547 111.912 210.538 111.756V101.153C210.538 100.524 210.538 99.9105 210.538 99.2649C210.538 44.6364 163.524 0.336426 105.536 0.336426V0.384851Z" fill="#FF7E7E"/>
<path d="M105.52 312.905C80.3071 312.876 56.1361 303.215 38.3082 286.043C20.4802 268.871 10.4508 245.589 10.4198 221.304C10.4198 220.965 10.4198 220.626 10.4198 220.287V219.545V209.539C10.4198 209.345 10.4198 209.232 10.4198 209.119V103.267V102.105C10.8418 78.0137 21.1016 55.0523 38.9764 38.1959C56.8513 21.3395 80.9016 11.9457 105.917 12.0497C130.932 12.1537 154.897 21.7471 172.62 38.7516C190.343 55.756 200.397 78.8018 200.603 102.896C200.603 103.235 200.603 103.574 200.603 103.913V104.639V114.661C200.603 114.855 200.603 114.968 200.603 115.065V220.933V222.095C200.317 246.228 190.182 269.283 172.389 286.276C154.597 303.269 130.576 312.835 105.52 312.905Z" fill="url(#paint0_linear_1299_4346)"/>
<path d="M105.536 12.9182C130.294 12.9611 154.024 22.4863 171.525 39.4058C189.025 56.3252 198.867 79.2583 198.894 103.177C198.894 103.501 198.894 103.825 198.894 104.132C198.894 104.44 198.894 104.65 198.894 104.958V115.156C198.886 115.291 198.886 115.426 198.894 115.561V219.514V222.751C198.476 246.488 188.396 269.11 170.837 285.717C153.278 302.324 129.653 311.579 105.081 311.477C80.5084 311.375 56.9672 301.924 39.5565 285.171C22.1458 268.419 12.2676 245.714 12.0618 221.975C12.0618 221.651 12.0618 221.327 12.0618 221.003C12.0618 220.68 12.0618 220.501 12.0618 220.178V209.964V209.559V105.605V102.368C12.2738 78.5675 22.208 55.8113 39.7019 39.0526C57.1958 22.2938 80.8333 12.8892 105.469 12.8858L105.536 12.9182ZM105.469 9.64844C79.9504 9.65178 55.4656 19.393 37.3442 36.7519C19.2228 54.1108 8.93173 77.6822 8.71083 102.336V209.656C8.7017 209.807 8.7017 209.958 8.71083 210.109V220.113C8.71083 220.712 8.71083 221.311 8.71083 221.91C8.91696 246.505 19.146 270.03 37.1815 287.389C55.217 304.748 79.6062 314.542 105.064 314.648C130.522 314.755 154.998 305.165 173.188 287.958C191.379 270.751 201.818 247.311 202.245 222.719V115.431C202.253 115.285 202.253 115.14 202.245 114.994V104.974C202.245 104.391 202.245 103.793 202.245 103.194C202.245 78.3968 192.049 54.6156 173.9 37.0815C155.751 19.5475 131.136 9.697 105.469 9.697V9.64844Z" fill="white"/>
<path d="M115.572 140.789C122.275 138.292 128.057 133.935 132.187 128.27C136.317 122.605 138.609 115.887 138.772 108.966C138.935 102.046 136.963 95.2346 133.104 89.3948C129.245 83.5551 123.674 78.9496 117.096 76.1618C110.518 73.374 103.23 72.5292 96.1528 73.7343C89.076 74.9395 82.5297 78.1404 77.343 82.9318C72.1562 87.7231 68.5623 93.8893 67.0165 100.649C65.4706 107.41 66.0423 114.46 68.6591 120.907C72.1499 129.53 79.0505 136.467 87.846 140.195C96.6416 143.922 106.613 144.136 115.572 140.789V140.789Z" stroke="white" stroke-width="0.75" stroke-miterlimit="10"/>
<path d="M115.522 140.66C128.557 135.818 133.215 117.275 125.96 99.3453C118.706 81.4155 102.269 70.861 89.234 75.7671C76.1988 80.6731 71.541 99.1516 78.7958 117.065C86.0506 134.979 102.504 145.55 115.522 140.66Z" stroke="white" stroke-width="0.75" stroke-miterlimit="10"/>
<path d="M115.522 140.66C121.956 138.239 121.286 121.762 114.014 103.832C106.742 85.9022 95.5838 73.3465 89.2338 75.7672C82.8837 78.188 83.4869 94.6653 90.7417 112.579C97.9965 130.493 109.088 143.081 115.522 140.66Z" fill="#FF7E7E" stroke="white" stroke-width="0.75" stroke-miterlimit="10"/>
<path d="M88.9659 77.2183C90.1781 77.2183 91.1607 76.2721 91.1607 75.105C91.1607 73.9379 90.1781 72.9917 88.9659 72.9917C87.7537 72.9917 86.771 73.9379 86.771 75.105C86.771 76.2721 87.7537 77.2183 88.9659 77.2183Z" fill="white" stroke="white" stroke-width="0.75" stroke-miterlimit="10"/>
<path d="M115.472 142.643C116.684 142.643 117.667 141.697 117.667 140.53C117.667 139.363 116.684 138.417 115.472 138.417C114.26 138.417 113.277 139.363 113.277 140.53C113.277 141.697 114.26 142.643 115.472 142.643Z" fill="white" stroke="white" stroke-width="0.75" stroke-miterlimit="10"/>
<path d="M159.001 92.3896L156.136 94.4379L159.185 99.2761C159.302 99.4213 160.224 98.9536 161.229 98.2278C162.234 97.5021 162.988 96.8086 162.904 96.6151L159.001 92.3896Z" fill="#0090FF" stroke="white" stroke-width="0.75" stroke-linecap="round" stroke-linejoin="round"/>
<path d="M166.607 83.998L164.345 86.6752L168.551 90.562C168.685 90.6749 169.455 90.0136 170.226 89.0621C170.997 88.1106 171.55 87.2558 171.399 87.1429L166.607 83.998Z" fill="#0090FF" stroke="white" stroke-width="0.75" stroke-linecap="round" stroke-linejoin="round"/>
<path d="M163.608 89.001L161.145 91.5007L164.999 95.6939C165.133 95.8229 165.954 95.2101 166.825 94.3392C167.696 93.4683 168.283 92.7264 168.148 92.5168L163.608 89.001Z" fill="#0090FF" stroke="white" stroke-width="0.75" stroke-linecap="round" stroke-linejoin="round"/>
<path d="M146.518 85.6281L156.202 94.8754C156.521 95.1659 160.056 93.9071 163.072 90.986C166.088 88.065 167.411 84.5307 167.093 84.3047L157.409 75.0413L146.518 85.6281Z" fill="#0090FF" stroke="white" stroke-width="0.75" stroke-linecap="round" stroke-linejoin="round"/>
<path d="M157.308 75.0413C158.28 75.9774 156.638 79.1082 153.622 82.0293C150.607 84.9503 147.39 86.5642 146.418 85.6281C145.446 84.6921 147.071 81.5613 150.087 78.6402C153.103 75.7192 156.32 74.1053 157.308 75.0413Z" fill="#0090FF" stroke="white" stroke-width="0.75" stroke-linecap="round" stroke-linejoin="round"/>
<path d="M150.757 68.6988C151.746 69.6348 150.087 72.7495 147.088 75.6706C144.089 78.5917 140.838 80.2055 139.867 79.2695C138.895 78.3334 140.537 75.2187 143.536 72.2977C146.535 69.3766 149.785 67.7628 150.757 68.6988Z" fill="#0090FF" stroke="white" stroke-width="0.75" stroke-linecap="round" stroke-linejoin="round"/>
<path d="M147.077 75.6636C150.086 72.7401 151.732 69.6125 150.753 68.6778C149.774 67.7432 146.541 69.3554 143.532 72.2789C140.524 75.2023 138.878 78.3299 139.857 79.2646C140.836 80.1993 144.069 78.587 147.077 75.6636Z" fill="#0090FF" stroke="white" stroke-width="0.75" stroke-linecap="round" stroke-linejoin="round"/>
<path d="M151.126 69.0376C152.047 69.9252 150.355 73.0077 147.356 75.9287C144.357 78.8498 141.157 80.512 140.235 79.6244" fill="#0090FF"/>
<path d="M151.126 69.0376C152.047 69.9252 150.355 73.0077 147.356 75.9287C144.357 78.8498 141.157 80.512 140.235 79.6244" stroke="white" stroke-width="0.75" stroke-linecap="round" stroke-linejoin="round"/>
<path d="M134.74 74.3312L142.983 82.1906C143.988 83.1589 147.239 81.5612 150.255 78.6401C153.271 75.7191 154.879 72.5721 153.874 71.6038L145.63 63.7444L134.74 74.3312Z" fill="#0090FF" stroke="white" stroke-width="0.75" stroke-linecap="round" stroke-linejoin="round"/>
<path d="M134.74 74.3312L143.503 82.6747C144.575 83.7076 147.876 82.1583 150.875 79.2373C153.874 76.3162 155.465 73.1208 154.393 72.1041L145.63 63.7444L134.74 74.3312Z" fill="#0090FF" stroke="white" stroke-width="0.75" stroke-linecap="round" stroke-linejoin="round"/>
<path d="M145.63 63.7927C146.133 64.2768 144.106 67.0204 141.107 69.9576C138.108 72.8948 135.242 74.7991 134.74 74.3795C134.237 73.9599 136.265 71.1518 139.28 68.2146C142.296 65.2774 145.128 63.3731 145.63 63.7927Z" fill="#0090FF" stroke="white" stroke-width="0.75" stroke-linecap="round" stroke-linejoin="round"/>
<path d="M141.1 69.9562C144.109 67.0328 146.138 64.2713 145.632 63.7883C145.126 63.3053 142.277 65.2837 139.269 68.2071C136.26 71.1306 134.231 73.892 134.737 74.375C135.243 74.8581 138.092 72.8797 141.1 69.9562Z" fill="#0090FF" stroke="white" stroke-width="0.75" stroke-linecap="round" stroke-linejoin="round"/>
<path d="M145.63 63.7926C146.619 64.7286 144.977 67.8595 141.961 70.7805C138.945 73.7016 135.728 75.3154 134.74 74.3794C133.751 73.4434 135.41 70.3286 138.409 67.3914C141.408 64.4542 144.659 62.8727 145.63 63.7926Z" fill="#0090FF" stroke="white" stroke-width="0.75" stroke-linecap="round" stroke-linejoin="round"/>
<path d="M141.957 70.7739C144.965 67.8505 146.611 64.7229 145.632 63.7882C144.653 62.8535 141.421 64.4658 138.412 67.3892C135.403 70.3127 133.758 73.4403 134.737 74.375C135.715 75.3096 138.948 73.6974 141.957 70.7739Z" fill="#0090FF" stroke="white" stroke-width="0.75" stroke-linecap="round" stroke-linejoin="round"/>
<path d="M127.904 67.8434L134.773 74.4117C135.779 75.38 139.046 73.7823 142.045 70.8613C145.044 67.9402 146.669 64.7932 145.664 63.8249L138.795 57.2727L127.904 67.8434Z" fill="#0090FF" stroke="white" stroke-width="0.75" stroke-linecap="round" stroke-linejoin="round"/>
<path d="M137.722 56.7242L132.243 55.1104L125.29 61.8562L127.334 66.9721C127.459 67.2457 127.604 67.5101 127.77 67.7629C128.775 68.7312 132.042 67.1496 135.041 64.2285C138.041 61.3075 139.666 58.1444 138.66 57.1922C138.364 57.02 138.05 56.8793 137.722 56.7726" fill="#0090FF"/>
<path d="M137.722 56.7242L132.243 55.1104L125.29 61.8562L127.334 66.9721C127.459 67.2457 127.604 67.5101 127.77 67.7629C128.775 68.7312 132.042 67.1496 135.041 64.2285C138.041 61.3075 139.666 58.1444 138.66 57.1922C138.364 57.02 138.05 56.8793 137.722 56.7726" stroke="white" stroke-width="0.75" stroke-linecap="round" stroke-linejoin="round"/>
<path d="M137.722 56.7242L132.243 55.1104L125.29 61.8562L127.334 66.9721C127.459 67.2457 127.604 67.5101 127.77 67.7629C128.775 68.7312 132.042 67.1496 135.041 64.2285C138.041 61.3075 139.666 58.1444 138.66 57.1922C138.367 57.0032 138.052 56.8463 137.722 56.7242Z" fill="#0090FF" stroke="white" stroke-width="0.75" stroke-linecap="round" stroke-linejoin="round"/>
<path d="M123.497 53.3668C122.492 54.3345 122.86 55.3344 123.363 56.7375L125.34 61.8338C126.772 61.0043 128.109 60.0313 129.328 58.9308C130.457 57.7479 131.456 56.4563 132.31 55.0763L126.999 53.2055C125.675 52.8185 124.502 52.3992 123.497 53.3668Z" fill="#0090FF" stroke="white" stroke-width="0.75" stroke-linecap="round" stroke-linejoin="round"/>
<path d="M139.85 63.47C139.404 64.329 138.841 65.1266 138.175 65.8414L140.085 67.6643C140.797 66.9149 141.405 66.0798 141.894 65.18L139.9 63.47H139.85Z" fill="#0090FF" stroke="white" stroke-width="0.75" stroke-linecap="round" stroke-linejoin="round"/>
<path d="M135.527 69.0861C135.572 69.1281 135.607 69.1784 135.632 69.2338C135.656 69.2892 135.668 69.3486 135.668 69.4087C135.668 69.4688 135.656 69.5283 135.632 69.5837C135.607 69.6391 135.572 69.6893 135.527 69.7314C135.484 69.7743 135.431 69.8084 135.374 69.8317C135.316 69.855 135.255 69.8669 135.192 69.8669C135.13 69.8669 135.068 69.855 135.01 69.8317C134.953 69.8084 134.901 69.7743 134.857 69.7314C134.813 69.6893 134.777 69.6391 134.753 69.5837C134.729 69.5283 134.716 69.4688 134.716 69.4087C134.716 69.3486 134.729 69.2892 134.753 69.2338C134.777 69.1784 134.813 69.1281 134.857 69.0861C134.947 69.0032 135.067 68.957 135.192 68.957C135.317 68.957 135.437 69.0032 135.527 69.0861Z" fill="#0090FF" stroke="white" stroke-width="0.75" stroke-linecap="round" stroke-linejoin="round"/>
<path d="M143.782 59.2912L142.803 60.2419L144.421 61.7862L145.399 60.8355L143.782 59.2912Z" fill="#0090FF" stroke="white" stroke-width="0.75" stroke-linecap="round" stroke-linejoin="round"/>
<path d="M131.968 72.4741L130.99 73.4248L132.607 74.9691L133.585 74.0184L131.968 72.4741Z" fill="#0090FF" stroke="white" stroke-width="0.75" stroke-linecap="round" stroke-linejoin="round"/>
<path d="M156.856 105.059C157.26 116.096 154.075 126.979 147.746 136.189C141.417 145.398 132.26 152.474 121.554 156.427C93.1881 167.079 61.4044 154.023 50.5473 127.233C39.6903 100.443 53.8983 70.1028 82.264 59.4514C93.154 55.3359 105.113 54.6301 116.444 57.4341" stroke="white" stroke-width="0.75" stroke-linecap="round" stroke-linejoin="round"/>
<path d="M32.1092 68.8059C31.9055 69.1655 31.6682 69.4416 31.3972 69.6341C31.1219 69.8244 30.8135 69.9203 30.4718 69.922C30.1259 69.9214 29.748 69.8244 29.3381 69.631C29.1463 69.5357 28.9643 69.4429 28.7921 69.3524C28.6156 69.2597 28.4339 69.1615 28.2469 69.0577C27.8605 68.8327 27.5767 68.5793 27.3956 68.2975C27.2126 68.0092 27.1296 67.7021 27.1466 67.3762C27.1617 67.0437 27.2663 66.7062 27.4604 66.3634C27.6568 66.0165 27.8949 65.749 28.1745 65.561C28.4522 65.3666 28.7664 65.2654 29.1171 65.2575C29.4635 65.2474 29.8383 65.34 30.2415 65.5354C30.4357 65.6264 30.6211 65.7183 30.7976 65.811C30.9697 65.9015 31.1481 66.0007 31.3327 66.1086C31.7258 66.3317 32.0151 66.5852 32.2005 66.8693C32.384 67.1469 32.4673 67.4486 32.4503 67.7746C32.4289 68.0982 32.3152 68.442 32.1092 68.8059ZM31.5604 68.5175C31.7449 68.1917 31.7956 67.8753 31.7126 67.5682C31.632 67.2568 31.3748 66.9762 30.941 66.7263C30.7521 66.6161 30.5824 66.5214 30.4317 66.4423C30.2767 66.3609 30.1022 66.2746 29.908 66.1836C29.6062 66.036 29.334 65.9644 29.0914 65.9687C28.8512 65.9687 28.6413 66.0287 28.4618 66.1484C28.2823 66.2682 28.1314 66.436 28.0092 66.6518C27.8918 66.8591 27.8294 67.0679 27.8221 67.2781C27.8147 67.4884 27.8748 67.6929 28.0024 67.8917C28.1324 68.0862 28.3423 68.2679 28.6321 68.4366C28.8191 68.5404 28.9901 68.6329 29.145 68.7144C29.2957 68.7935 29.4691 68.8819 29.6652 68.9794C30.1181 69.1954 30.5023 69.2518 30.8177 69.1485C31.1331 69.0452 31.3807 68.8349 31.5604 68.5175Z" fill="white"/>
<path d="M35.6998 62.6373C35.6687 62.6809 35.6326 62.7064 35.5913 62.7141C35.546 62.719 35.503 62.7081 35.4625 62.6813L31.4919 60.0527C31.4473 60.0232 31.4213 59.9885 31.4139 59.9487C31.4025 59.9061 31.4123 59.8631 31.4434 59.8196L32.4768 58.3712C32.7959 57.924 33.1561 57.6409 33.5573 57.5219C33.9585 57.403 34.3699 57.483 34.7915 57.7621C35.1036 57.9688 35.3039 58.215 35.3924 58.5008C35.4797 58.78 35.4687 59.0757 35.3593 59.3879L37.6291 59.5445C37.6619 59.5487 37.6884 59.5575 37.7087 59.571C37.7411 59.5924 37.7596 59.6251 37.7641 59.6689C37.7715 59.7087 37.7639 59.7445 37.7413 59.7761L37.538 60.0611C37.49 60.1283 37.4365 60.1657 37.3774 60.1732C37.3183 60.1807 37.2621 60.1843 37.2087 60.1839L35.05 60.0222L34.3088 61.061L35.8776 62.0995C35.9181 62.1264 35.9427 62.163 35.9513 62.2095C35.9587 62.2494 35.9469 62.291 35.9158 62.3346L35.6998 62.6373ZM33.7919 60.7188L34.4908 59.7394C34.7026 59.4426 34.7979 59.1794 34.7767 58.9497C34.7515 58.7174 34.6132 58.5181 34.3618 58.3517C34.1146 58.188 33.8738 58.1365 33.6396 58.197C33.4082 58.2536 33.1853 58.4323 32.9707 58.733L32.2718 59.7125L33.7919 60.7188Z" fill="white"/>
<path d="M40.7658 55.7439C40.7305 55.784 40.6918 55.8057 40.65 55.8091C40.6043 55.8094 40.5627 55.7942 40.5251 55.7634L36.8398 52.7477C36.7985 52.7139 36.7761 52.6768 36.7728 52.6364C36.7658 52.593 36.78 52.5512 36.8153 52.5111L38.137 51.0126C38.3782 50.7392 38.6214 50.5553 38.8666 50.4609C39.1113 50.3598 39.348 50.3337 39.5767 50.3828C39.8087 50.4283 40.0225 50.5311 40.2182 50.6912C40.3724 50.8174 40.4835 50.9522 40.5513 51.0956C40.6186 51.2323 40.6559 51.3664 40.663 51.4978C40.6664 51.6261 40.6564 51.7403 40.6329 51.8404C40.8298 51.7567 41.0574 51.7263 41.3157 51.7493C41.5771 51.7687 41.8226 51.8723 42.0521 52.0601C42.2591 52.2294 42.4089 52.4305 42.5015 52.6633C42.5942 52.896 42.6128 53.1467 42.5574 53.4152C42.5014 53.677 42.356 53.9409 42.1213 54.2071L40.7658 55.7439ZM40.6705 54.9596L41.6014 53.9041C41.8105 53.6671 41.9054 53.4309 41.8863 53.1956C41.8672 52.9602 41.7616 52.764 41.5698 52.607C41.3704 52.4438 41.1504 52.3737 40.9099 52.3966C40.6657 52.4165 40.4391 52.5449 40.2301 52.7819L39.2991 53.8374L40.6705 54.9596ZM38.8476 53.4679L39.7352 52.4616C39.941 52.2283 40.0424 52.0068 40.0394 51.7972C40.0326 51.5845 39.9333 51.3997 39.7414 51.2427C39.5496 51.0857 39.3498 51.0257 39.1421 51.0629C38.9344 51.1001 38.7276 51.2354 38.5218 51.4687L37.6342 52.475L38.8476 53.4679Z" fill="white"/>
<path d="M46.642 49.3907C46.604 49.4282 46.564 49.4472 46.5222 49.4476C46.4768 49.4447 46.4365 49.4265 46.4012 49.393L42.9459 46.1117C42.9107 46.0782 42.8929 46.0412 42.8925 46.0007C42.8885 45.9568 42.9056 45.916 42.9436 45.8785L43.2184 45.6071C43.2529 45.573 43.2929 45.5574 43.3383 45.5603C43.3836 45.5565 43.4239 45.5713 43.4591 45.6048L46.9145 48.8862C46.9497 48.9196 46.9675 48.96 46.968 49.0073C46.9684 49.0478 46.9513 49.0852 46.9168 49.1193L46.642 49.3907Z" fill="white"/>
<path d="M50.0886 46.1116C50.0518 46.1432 50.0108 46.1593 49.9654 46.16C49.9204 46.1539 49.8816 46.133 49.8489 46.0971L46.9631 42.9385L45.9039 43.8494C45.8671 43.881 45.826 43.8972 45.7806 43.8978C45.7357 43.8917 45.6968 43.8708 45.6641 43.835L45.458 43.6094C45.422 43.57 45.4052 43.53 45.4077 43.4896C45.4105 43.4424 45.4303 43.4029 45.4671 43.3713L48.1261 41.0845C48.1666 41.0497 48.2093 41.0353 48.2543 41.0414C48.2996 41.0408 48.3403 41.0602 48.3763 41.0996L48.5824 41.3252C48.6152 41.361 48.6301 41.4025 48.6273 41.4497C48.6248 41.4902 48.6034 41.5278 48.5629 41.5626L47.5092 42.4688L50.395 45.6274C50.4277 45.6633 50.4427 45.7048 50.4398 45.752C50.4374 45.7924 50.4159 45.8301 50.3755 45.8649L50.0886 46.1116Z" fill="white"/>
<path d="M58.8354 39.4044C58.46 39.6475 58.1006 39.782 57.757 39.8077C57.4176 39.8307 57.0997 39.7616 56.8035 39.6004C56.5072 39.4392 56.2403 39.2011 56.0026 38.8861C55.8844 38.7254 55.76 38.5513 55.6292 38.3639C55.4984 38.1766 55.3752 37.9959 55.2596 37.8218C55.0464 37.491 54.9182 37.1631 54.8749 36.838C54.8316 36.5129 54.8851 36.2033 55.0353 35.9092C55.1896 35.6124 55.4544 35.3425 55.8298 35.0993C56.1113 34.917 56.3846 34.7949 56.6497 34.7332C56.9147 34.6715 57.1612 34.6595 57.3889 34.6972C57.6208 34.7323 57.8291 34.8057 58.0139 34.9176C58.1959 35.0255 58.3494 35.1605 58.4744 35.3226C58.5036 35.3559 58.5122 35.3937 58.5003 35.4361C58.4925 35.4759 58.4703 35.5077 58.4336 35.5315L58.0969 35.7495C58.0602 35.7733 58.0206 35.7845 57.9781 35.7831C57.9397 35.779 57.8963 35.755 57.8479 35.7111C57.5615 35.4451 57.282 35.3164 57.0095 35.3251C56.7411 35.331 56.4641 35.4265 56.1785 35.6115C55.8521 35.823 55.657 36.0825 55.5932 36.3901C55.5267 36.6937 55.6244 37.0501 55.8864 37.4592C56.1023 37.794 56.3361 38.1289 56.5877 38.4638C56.8823 38.8518 57.1895 39.0754 57.5093 39.1345C57.8263 39.1897 58.148 39.1116 58.4744 38.9001C58.7601 38.7151 58.9564 38.504 59.0634 38.2668C59.1744 38.027 59.1561 37.7292 59.0084 37.3733C58.9845 37.3136 58.9778 37.2658 58.9884 37.23C59.003 37.1916 59.0287 37.1605 59.0654 37.1367L59.402 36.9186C59.4388 36.8949 59.4777 36.887 59.5189 36.8951C59.5641 36.9005 59.5973 36.9224 59.6182 36.961C59.727 37.1337 59.8002 37.3235 59.8381 37.5305C59.8732 37.7336 59.8639 37.9451 59.8101 38.1652C59.7604 38.3826 59.656 38.5979 59.4967 38.8111C59.3374 39.0242 59.1169 39.222 58.8354 39.4044Z" fill="white"/>
<path d="M66.3893 34.8608C66.0199 35.0458 65.6694 35.1426 65.3377 35.1512C65.0037 35.1555 64.695 35.0629 64.4114 34.8735C64.1255 34.6799 63.8671 34.3882 63.636 33.9987C63.5305 33.8125 63.4319 33.6337 63.34 33.4624C63.2457 33.2868 63.1503 33.1037 63.0535 32.9131C62.8595 32.5105 62.7663 32.1415 62.7738 31.8063C62.7834 31.4646 62.8863 31.1632 63.0824 30.902C63.2806 30.6343 63.5557 30.4123 63.9076 30.236C64.264 30.0575 64.6103 29.9683 64.9465 29.9683C65.2849 29.9618 65.6013 30.0532 65.8959 30.2426C66.1881 30.4276 66.4465 30.7139 66.6709 31.1013C66.7807 31.2854 66.8827 31.4652 66.9769 31.6408C67.0688 31.812 67.161 31.9941 67.2534 32.1868C67.4541 32.5916 67.5518 32.9638 67.5465 33.3033C67.5433 33.6363 67.4436 33.9334 67.2475 34.1947C67.049 34.4516 66.763 34.6737 66.3893 34.8608ZM66.0963 34.3148C66.4309 34.1473 66.6496 33.9127 66.7525 33.6113C66.8597 33.3077 66.8037 32.931 66.5844 32.4812C66.4897 32.2841 66.4021 32.1107 66.3217 31.9608C66.239 31.8066 66.1427 31.6375 66.0329 31.4534C65.8657 31.1623 65.6805 30.9508 65.4774 30.8189C65.2787 30.6848 65.0716 30.6174 64.8562 30.6166C64.6407 30.6159 64.4222 30.671 64.2006 30.782C63.9877 30.8886 63.8195 31.0272 63.696 31.1977C63.5725 31.3683 63.508 31.5717 63.5025 31.8081C63.5014 32.0423 63.5736 32.3104 63.7191 32.6124C63.8158 32.803 63.9056 32.9754 63.9883 33.1295C64.0687 33.2794 64.1628 33.4496 64.2705 33.6401C64.5246 34.0725 64.8109 34.3338 65.1296 34.4242C65.4482 34.5145 65.7704 34.4781 66.0963 34.3148Z" fill="white"/>
<path d="M72.9594 31.5432C72.9136 31.5598 72.8693 31.5603 72.8267 31.5447C72.7869 31.5229 72.7582 31.4892 72.7407 31.4437L71.0189 26.9896C70.9995 26.9396 70.9983 26.8959 71.0153 26.8587C71.035 26.8152 71.0678 26.7851 71.1137 26.7684L71.4573 26.6435C71.5123 26.6235 71.5588 26.6222 71.5968 26.6395C71.6349 26.6568 71.6597 26.6737 71.6713 26.6902L74.1936 28.9163L74.5924 25.6285C74.5945 25.607 74.6017 25.5784 74.6141 25.5428C74.631 25.5055 74.667 25.4769 74.722 25.4569L75.0588 25.3345C75.1092 25.3162 75.1543 25.3179 75.1941 25.3398C75.2367 25.3554 75.2677 25.3882 75.287 25.4382L77.0088 29.8924C77.0264 29.9379 77.0253 29.9823 77.0055 30.0258C76.9886 30.0631 76.9549 30.0909 76.9045 30.1092L76.5677 30.2316C76.5219 30.2483 76.4777 30.2488 76.435 30.2332C76.3952 30.2113 76.3666 30.1777 76.349 30.1322L75.0517 26.7762L74.7635 29.4171C74.7627 29.4692 74.7493 29.5156 74.7232 29.5562C74.6953 29.5923 74.6539 29.6203 74.5989 29.6403L74.3859 29.7177C74.3263 29.7394 74.2738 29.7455 74.2283 29.7361C74.1857 29.7205 74.1442 29.6941 74.1037 29.6569L72.0963 27.8505L73.3936 31.2064C73.4112 31.2519 73.4101 31.2964 73.3903 31.3399C73.3734 31.3771 73.342 31.4041 73.2962 31.4208L72.9594 31.5432Z" fill="white"/>
<path d="M82.9467 28.1041C82.8992 28.1146 82.8555 28.1094 82.8155 28.0885C82.7791 28.0617 82.7552 28.0247 82.7438 27.9774L81.6331 23.3469C81.6206 23.2949 81.6252 23.2516 81.6469 23.2169C81.6722 23.1764 81.7085 23.1509 81.756 23.1403L82.1119 23.0611C82.1688 23.0484 82.215 23.0531 82.2502 23.0751C82.2855 23.0971 82.3078 23.1171 82.3171 23.1349L84.5133 25.6639L85.3423 22.4617C85.3472 22.4407 85.3582 22.4133 85.3751 22.3797C85.3968 22.345 85.4361 22.3213 85.493 22.3086L85.8418 22.231C85.894 22.2194 85.9383 22.2269 85.9747 22.2537C86.0147 22.2747 86.041 22.3112 86.0535 22.3632L87.1642 26.9937C87.1755 27.0409 87.1686 27.0848 87.1433 27.1253C87.1216 27.16 87.0847 27.1832 87.0325 27.1948L86.6837 27.2724C86.6363 27.283 86.5925 27.2778 86.5525 27.2568C86.5161 27.23 86.4922 27.193 86.4809 27.1457L85.644 23.6569L85.0098 26.2332C85.0021 26.2847 84.9827 26.3288 84.9516 26.3656C84.9193 26.3977 84.8747 26.4201 84.8177 26.4328L84.5971 26.4819C84.5354 26.4956 84.4827 26.4949 84.4391 26.4797C84.399 26.4587 84.3615 26.4272 84.3264 26.3852L82.5832 24.3381L83.4201 27.8269C83.4314 27.8742 83.4244 27.9181 83.3992 27.9586C83.3775 27.9933 83.3429 28.0159 83.2955 28.0265L82.9467 28.1041Z" fill="white"/>
<path d="M95.0285 25.865C94.6221 25.905 94.2636 25.867 93.9531 25.751C93.6475 25.6345 93.3992 25.4366 93.2082 25.1574C93.0216 24.8729 92.9035 24.4962 92.8538 24.0273L92.5417 21.0831C92.536 21.0299 92.5462 20.9874 92.5722 20.9555C92.5976 20.9188 92.6369 20.8979 92.6902 20.8926L93.0603 20.8562C93.1135 20.851 93.1564 20.8639 93.189 20.8949C93.226 20.9205 93.2473 20.96 93.2529 21.0132L93.5665 23.9718C93.6168 24.4456 93.7652 24.7852 94.0118 24.9905C94.2585 25.1958 94.5753 25.2794 94.9624 25.2414C95.3446 25.2038 95.6349 25.0604 95.8334 24.8113C96.0367 24.5618 96.1133 24.2001 96.063 23.7263L95.7494 20.7676C95.7438 20.7144 95.7539 20.6719 95.7799 20.6401C95.8102 20.6029 95.8495 20.5819 95.8979 20.5772L96.2752 20.5401C96.3236 20.5353 96.3641 20.5484 96.3967 20.5794C96.4337 20.6051 96.455 20.6445 96.4606 20.6977L96.7727 23.6418C96.8224 24.1108 96.7833 24.503 96.6554 24.8184C96.5319 25.1285 96.3326 25.3704 96.0577 25.544C95.7828 25.7176 95.4397 25.8246 95.0285 25.865Z" fill="white"/>
<path d="M102.62 25.1494C102.566 25.1485 102.525 25.1332 102.497 25.1035C102.468 25.069 102.454 25.0274 102.456 24.9788L102.554 20.2171C102.555 20.1636 102.571 20.1226 102.601 20.0939C102.631 20.0604 102.672 20.0441 102.726 20.045L103.061 20.0507C103.12 20.0517 103.163 20.067 103.192 20.0967C103.22 20.1215 103.237 20.1412 103.241 20.1559L105.585 23.9161L105.661 20.2701C105.662 20.2166 105.678 20.1755 105.707 20.1469C105.737 20.1133 105.779 20.097 105.832 20.0979L106.182 20.1039C106.236 20.1048 106.277 20.1225 106.305 20.1571C106.339 20.1868 106.355 20.2284 106.354 20.2819L106.255 25.0363C106.254 25.0849 106.236 25.1259 106.201 25.1594C106.172 25.1929 106.132 25.2093 106.084 25.2084L105.734 25.2025C105.68 25.2015 105.639 25.1863 105.611 25.1566C105.587 25.127 105.57 25.1073 105.561 25.0974L103.223 21.3738L103.148 24.9906C103.147 25.0392 103.129 25.0803 103.095 25.1137C103.065 25.1424 103.023 25.1563 102.97 25.1553L102.62 25.1494Z" fill="white"/>
<path d="M111.778 25.4246C111.725 25.4195 111.685 25.4011 111.659 25.3693C111.633 25.3327 111.622 25.2902 111.627 25.2418L112.07 20.4935C112.075 20.4451 112.093 20.4077 112.125 20.3814C112.157 20.3503 112.2 20.3372 112.253 20.3423L112.638 20.3787C112.686 20.3832 112.723 20.4038 112.749 20.4405C112.78 20.4727 112.793 20.513 112.789 20.5614L112.345 25.3098C112.341 25.3582 112.32 25.3977 112.283 25.4284C112.251 25.4547 112.211 25.4656 112.163 25.461L111.778 25.4246Z" fill="white"/>
<path d="M116.599 25.9188C116.551 25.9109 116.513 25.8898 116.485 25.8556C116.462 25.8173 116.455 25.7742 116.463 25.7263L117.216 21.5028L115.834 21.2749C115.786 21.267 115.748 21.2459 115.719 21.2116C115.696 21.1734 115.689 21.1303 115.698 21.0824L115.752 20.7807C115.761 20.728 115.783 20.6897 115.817 20.6657C115.856 20.6377 115.9 20.6277 115.948 20.6356L119.418 21.2077C119.471 21.2164 119.508 21.2399 119.531 21.2782C119.56 21.3124 119.569 21.3559 119.56 21.4086L119.506 21.7103C119.498 21.7582 119.474 21.7961 119.434 21.8241C119.4 21.8481 119.357 21.8557 119.304 21.847L117.929 21.6203L117.176 25.8438C117.167 25.8917 117.143 25.9297 117.104 25.9576C117.07 25.9816 117.026 25.9893 116.974 25.9806L116.599 25.9188Z" fill="white"/>
<path d="M124.459 27.4368C124.413 27.4243 124.377 27.3996 124.352 27.3628C124.333 27.3226 124.33 27.2791 124.344 27.2324L124.818 25.5782L123.941 22.2662C123.94 22.251 123.939 22.2357 123.939 22.2204C123.938 22.2051 123.94 22.1882 123.946 22.1695C123.956 22.1321 123.98 22.1031 124.016 22.0826C124.052 22.0621 124.089 22.0568 124.127 22.0668L124.493 22.1644C124.536 22.1756 124.57 22.1973 124.596 22.2294C124.623 22.2569 124.639 22.2912 124.642 22.3323L125.365 24.9692L127.391 23.0639C127.425 23.0328 127.459 23.0116 127.492 23.0005C127.532 22.9858 127.573 22.9842 127.615 22.9954L127.974 23.0911C128.017 23.1024 128.048 23.1258 128.068 23.1613C128.088 23.1968 128.093 23.2333 128.082 23.2707C128.077 23.2894 128.07 23.3051 128.061 23.3179C128.052 23.3306 128.041 23.3428 128.028 23.3543L125.516 25.7639L125.041 27.4181C125.028 27.4649 125 27.5002 124.958 27.5242C124.922 27.5447 124.878 27.5481 124.826 27.5343L124.459 27.4368Z" fill="white"/>
<path d="M134.151 30.2959C134.101 30.2752 134.069 30.2459 134.054 30.208C134.041 30.1657 134.044 30.1222 134.065 30.0778L136.029 25.7246C136.052 25.6757 136.082 25.6435 136.121 25.6281C136.162 25.6083 136.207 25.6087 136.257 25.6293L137.972 26.344C138.305 26.4828 138.569 26.6562 138.764 26.8642C138.963 27.074 139.082 27.3137 139.121 27.5833C139.162 27.8485 139.111 28.1388 138.968 28.4544C138.826 28.7699 138.64 29.004 138.411 29.1566C138.181 29.3092 137.919 29.3873 137.623 29.3908C137.332 29.3961 137.02 29.3294 136.687 29.1906L135.492 28.6926L134.74 30.3592C134.72 30.4036 134.687 30.4348 134.641 30.4528C134.602 30.4682 134.558 30.4656 134.508 30.445L134.151 30.2959ZM135.738 28.1298L136.906 28.6165C137.239 28.7554 137.522 28.7861 137.755 28.7089C137.987 28.6316 138.167 28.453 138.293 28.173C138.418 27.8975 138.433 27.6504 138.339 27.4317C138.245 27.2131 138.027 27.0325 137.685 26.8899L136.517 26.4031L135.738 28.1298Z" fill="white"/>
<path d="M142.017 33.736C141.971 33.7102 141.942 33.6777 141.931 33.6385C141.923 33.5952 141.931 33.5526 141.956 33.5108L144.391 29.4182C144.418 29.3723 144.452 29.3438 144.492 29.3328C144.535 29.3177 144.58 29.323 144.627 29.3489L146.185 30.2086C146.666 30.474 146.981 30.795 147.13 31.1714C147.279 31.5479 147.225 31.9534 146.966 32.388C146.775 32.7097 146.535 32.9271 146.247 33.0402C145.966 33.1515 145.662 33.1694 145.334 33.0937L145.325 35.3034C145.323 35.3355 145.316 35.3621 145.303 35.3829C145.283 35.4164 145.251 35.4374 145.206 35.446C145.166 35.457 145.129 35.4531 145.095 35.4343L144.788 35.2652C144.716 35.2252 144.674 35.1771 144.662 35.1207C144.651 35.0643 144.643 35.0102 144.64 34.9585L144.661 32.8557L143.544 32.2391L142.582 33.8561C142.557 33.8979 142.521 33.9252 142.474 33.938C142.433 33.949 142.39 33.9415 142.343 33.9157L142.017 33.736ZM143.861 31.7064L144.914 32.2878C145.233 32.4639 145.51 32.5307 145.745 32.4881C145.982 32.4413 146.177 32.2884 146.331 32.0293C146.483 31.7745 146.52 31.5367 146.442 31.3161C146.368 31.0978 146.17 30.8995 145.846 30.7209L144.793 30.1396L143.861 31.7064Z" fill="white"/>
<path d="M150.9 38.9592C150.562 38.7229 150.314 38.4639 150.156 38.182C150.001 37.8963 149.947 37.5895 149.995 37.2616C150.045 36.9298 150.198 36.5783 150.454 36.2071C150.579 36.034 150.7 35.87 150.817 35.7151C150.937 35.5564 151.064 35.3933 151.197 35.2257C151.482 34.8806 151.781 34.6373 152.095 34.4956C152.416 34.3529 152.742 34.3082 153.072 34.3616C153.41 34.4139 153.74 34.5527 154.062 34.7779C154.388 35.0058 154.627 35.2646 154.779 35.5542C154.938 35.8427 154.997 36.1556 154.954 36.4929C154.915 36.8264 154.767 37.1754 154.509 37.5399C154.388 37.7158 154.268 37.8831 154.148 38.0419C154.031 38.1967 153.904 38.3566 153.767 38.5214C153.483 38.8731 153.182 39.1217 152.866 39.2672C152.556 39.4117 152.235 39.4572 151.905 39.4037C151.577 39.3465 151.242 39.1983 150.9 38.9592ZM151.273 38.4656C151.58 38.6796 151.896 38.7643 152.221 38.7197C152.551 38.6778 152.875 38.463 153.192 38.0753C153.332 37.9067 153.453 37.7546 153.555 37.6191C153.661 37.4797 153.774 37.3221 153.895 37.1462C154.089 36.8735 154.201 36.6205 154.231 36.3873C154.266 36.1569 154.235 35.9488 154.138 35.7629C154.041 35.5771 153.892 35.4133 153.689 35.2715C153.494 35.1353 153.289 35.0517 153.076 35.0207C152.862 34.9897 152.644 35.0241 152.423 35.1239C152.206 35.2264 151.99 35.4071 151.776 35.6659C151.643 35.8335 151.524 35.9869 151.419 36.1263C151.316 36.2618 151.201 36.4181 151.073 36.5951C150.788 37.005 150.675 37.3671 150.735 37.6814C150.796 37.9957 150.975 38.2571 151.273 38.4656Z" fill="white"/>
<path d="M158.065 44.2986C157.742 44.0174 157.523 43.7193 157.405 43.4043C157.292 43.0925 157.274 42.7776 157.353 42.4596C157.436 42.1448 157.605 41.8376 157.86 41.5379C158.002 41.3788 158.155 41.2125 158.319 41.039C158.485 40.8619 158.645 40.6952 158.799 40.539C159.083 40.2649 159.382 40.0744 159.696 39.9677C160.013 39.8642 160.34 39.853 160.677 39.9342C161.014 40.0155 161.342 40.1951 161.661 40.4731C161.921 40.7 162.113 40.9319 162.237 41.1689C162.361 41.4059 162.432 41.6321 162.45 41.8473C162.474 42.0622 162.461 42.2537 162.41 42.4217C162.362 42.5929 162.298 42.7244 162.219 42.8161C162.193 42.8512 162.158 42.8698 162.116 42.8719C162.078 42.8704 162.04 42.8537 162.004 42.8218L161.679 42.539C161.643 42.507 161.622 42.476 161.617 42.4458C161.616 42.4189 161.624 42.3813 161.643 42.3331C161.696 42.2122 161.726 42.074 161.733 41.9183C161.743 41.7658 161.71 41.6054 161.635 41.4368C161.567 41.268 161.434 41.0973 161.236 40.9247C160.947 40.6723 160.641 40.5439 160.318 40.5397C159.999 40.5386 159.668 40.707 159.323 41.0449C159.016 41.3506 158.72 41.6658 158.434 41.9906C158.116 42.3576 157.973 42.6974 158.006 43.0098C158.043 43.3187 158.205 43.5993 158.495 43.8518C158.689 44.0211 158.893 44.1377 159.106 44.2014C159.327 44.2648 159.549 44.2622 159.774 44.1936C159.998 44.1251 160.215 43.9792 160.425 43.7561L160.635 43.5329L159.811 42.814C159.774 42.782 159.753 42.7442 159.747 42.7006C159.748 42.6566 159.767 42.6152 159.804 42.5762L159.964 42.4062C160 42.3672 160.04 42.3467 160.082 42.3446C160.131 42.3422 160.173 42.3569 160.21 42.3889L161.452 43.4722C161.492 43.5073 161.512 43.5469 161.511 43.5908C161.513 43.6313 161.495 43.671 161.459 43.7099L160.979 44.22C160.706 44.5104 160.406 44.7094 160.078 44.8168C159.754 44.9274 159.418 44.9407 159.071 44.8566C158.726 44.769 158.391 44.583 158.065 44.2986Z" fill="white"/>
<path d="M163.512 49.0753C163.476 49.0361 163.459 48.9963 163.461 48.9559C163.467 48.9123 163.488 48.8747 163.525 48.8429L167.13 45.7323C167.171 45.6974 167.212 45.6811 167.254 45.6834C167.3 45.6825 167.341 45.7017 167.377 45.7408L168.589 47.0439C168.963 47.4462 169.162 47.8489 169.185 48.2522C169.208 48.6555 169.029 49.0223 168.646 49.3526C168.362 49.5971 168.066 49.7277 167.756 49.7445C167.454 49.7616 167.159 49.6829 166.87 49.5083L166.166 51.5978C166.154 51.6275 166.139 51.6503 166.12 51.6662C166.091 51.6916 166.054 51.7013 166.008 51.6955C165.966 51.6932 165.932 51.6778 165.906 51.6493L165.667 51.393C165.611 51.3324 165.586 51.2736 165.593 51.2166C165.599 51.1595 165.609 51.106 165.623 51.0561L166.305 49.0718L165.436 48.1373L164.012 49.3663C163.975 49.398 163.932 49.4125 163.883 49.4098C163.841 49.4075 163.802 49.3868 163.765 49.3476L163.512 49.0753ZM165.905 47.7324L166.725 48.6135C166.973 48.8805 167.215 49.0307 167.452 49.0639C167.692 49.0941 167.927 49.0107 168.155 48.8138C168.379 48.6201 168.489 48.4065 168.485 48.1732C168.483 47.9434 168.357 47.6932 168.105 47.4226L167.286 46.5415L165.905 47.7324Z" fill="white"/>
<path d="M169.038 54.9938C169.015 54.9628 169.006 54.9272 169.013 54.8873C169.019 54.8473 169.038 54.8161 169.07 54.7938C169.09 54.7799 169.113 54.7665 169.14 54.7536L174.082 53.4905C174.134 53.4781 174.182 53.4772 174.226 53.4876C174.27 53.498 174.313 53.5303 174.354 53.5846L174.651 53.9802C174.689 54.0306 174.707 54.0777 174.703 54.1216C174.703 54.1693 174.688 54.2149 174.66 54.2583L171.886 58.4006C171.868 58.425 171.849 58.4443 171.829 58.4582C171.797 58.4805 171.761 58.4884 171.719 58.4818C171.678 58.4753 171.646 58.4565 171.622 58.4255L171.399 58.1289C171.364 58.0823 171.349 58.0391 171.356 57.9991C171.365 57.963 171.377 57.9341 171.391 57.9124L171.996 56.9986L170.56 55.0908L169.472 55.3647C169.45 55.3748 169.418 55.3766 169.376 55.37C169.335 55.3635 169.297 55.3369 169.262 55.2904L169.038 54.9938ZM171.199 54.8999L172.382 56.4703L173.906 54.2006L171.199 54.8999Z" fill="white"/>
<path d="M174.555 62.4266C174.53 62.3847 174.522 62.3421 174.53 62.2988C174.545 62.2573 174.574 62.2249 174.617 62.2016L178.796 59.9187C178.843 59.8931 178.886 59.8858 178.927 59.897C178.974 59.91 179.01 59.9374 179.034 59.9793L179.219 60.2935C179.249 60.3438 179.258 60.3885 179.248 60.4276C179.237 60.4667 179.224 60.493 179.21 60.5065L177.408 63.2511L180.782 63.1772C180.804 63.1762 180.834 63.1793 180.872 63.1862C180.912 63.1974 180.947 63.2281 180.977 63.2783L181.158 63.5863C181.185 63.6323 181.191 63.6761 181.176 63.7176C181.168 63.7609 181.14 63.7953 181.093 63.821L176.914 66.1039C176.872 66.1272 176.827 66.1324 176.78 66.1194C176.739 66.1082 176.706 66.0796 176.678 66.0335L176.497 65.7256C176.473 65.6837 176.464 65.6411 176.473 65.5978C176.488 65.5563 176.517 65.524 176.559 65.5007L179.708 63.7806L177.004 63.8709C176.951 63.8775 176.902 63.871 176.857 63.8514C176.816 63.8296 176.781 63.7935 176.751 63.7432L176.636 63.5484C176.604 63.494 176.589 63.4442 176.591 63.399C176.599 63.3557 176.618 63.3119 176.649 63.2676L178.117 61.0785L174.968 62.7986C174.926 62.8219 174.881 62.827 174.834 62.814C174.793 62.8029 174.761 62.7764 174.736 62.7345L174.555 62.4266Z" fill="white"/>
<path d="M59.4608 268.541L54.9537 260.617L46.7272 256.276L54.9537 251.934L59.4608 244.01L63.9678 251.934L72.1944 256.276L63.9678 260.617L59.4608 268.541Z" fill="#FF7E7E" stroke="white" stroke-width="0.75" stroke-miterlimit="10"/>
<path d="M150.841 268.541L146.334 260.617L138.108 256.276L146.334 251.934L150.841 244.01L155.348 251.934L163.575 256.276L155.348 260.617L150.841 268.541Z" fill="#FF7E7E" stroke="white" stroke-width="0.75" stroke-miterlimit="10"/>
<path d="M120.197 280.693L115.69 272.769L107.463 268.428L115.69 264.087L120.197 256.163L124.704 264.087L132.93 268.428L124.704 272.769L120.197 280.693Z" fill="#FF7E7E" stroke="white" stroke-width="0.75" stroke-miterlimit="10"/>
<path d="M87.8767 280.693L83.3864 272.769L75.1431 268.428L83.3864 264.087L87.8767 256.163L92.3837 264.087L100.61 268.428L92.3837 272.769L87.8767 280.693Z" fill="#FF7E7E" stroke="white" stroke-width="0.75" stroke-miterlimit="10"/>
<path d="M49.7766 78.0427L54.669 75.4283L57.3162 70.6675L60.0473 75.3799L64.9732 77.9459L60.0808 80.5603L57.4335 85.305L54.7025 80.5926L49.7766 78.0427Z" fill="#001D33" stroke="white" stroke-width="0.75" stroke-miterlimit="10"/>
<path d="M159.386 142.725L164.278 140.095L166.925 135.35L169.64 140.063L174.582 142.612L169.69 145.243L167.026 149.988L164.312 145.275L159.386 142.725Z" stroke="white" stroke-width="0.75" stroke-miterlimit="10"/>
<path d="M170.481 269.486C170.509 269.449 170.541 269.427 170.577 269.422C170.617 269.419 170.654 269.43 170.688 269.455L174.069 271.867C174.103 271.892 174.123 271.922 174.128 271.956C174.137 271.994 174.127 272.031 174.098 272.068L173.893 272.335C173.867 272.368 173.835 272.386 173.795 272.389C173.756 272.398 173.72 272.39 173.685 272.365L170.305 269.953C170.271 269.928 170.25 269.896 170.244 269.855C170.239 269.82 170.25 269.786 170.275 269.752L170.481 269.486Z" fill="white"/>
<path d="M168.57 271.995C168.601 271.96 168.634 271.941 168.67 271.938C168.71 271.938 168.746 271.951 168.779 271.978L171.97 274.607C172.006 274.637 172.025 274.669 172.028 274.704C172.034 274.742 172.022 274.778 171.991 274.813L171.799 275.032C171.766 275.07 171.731 275.091 171.694 275.094C171.661 275.099 171.639 275.1 171.626 275.095L167.745 274.62L170.189 276.633C170.225 276.663 170.244 276.695 170.247 276.73C170.253 276.768 170.241 276.804 170.21 276.839L170.009 277.067C169.978 277.102 169.943 277.12 169.904 277.12C169.865 277.126 169.827 277.114 169.791 277.085L166.605 274.46C166.572 274.433 166.554 274.399 166.551 274.358C166.545 274.32 166.556 274.285 166.583 274.254L166.784 274.025C166.815 273.99 166.848 273.972 166.885 273.969C166.918 273.969 166.941 273.969 166.953 273.968L170.806 274.427L168.381 272.43C168.349 272.403 168.331 272.369 168.327 272.328C168.325 272.293 168.338 272.258 168.369 272.223L168.57 271.995Z" fill="white"/>
<path d="M163.326 277.869C163.36 277.837 163.395 277.821 163.432 277.822C163.472 277.825 163.506 277.842 163.537 277.872L166.485 280.792C166.518 280.825 166.534 280.859 166.534 280.895C166.536 280.933 166.521 280.968 166.487 281L165.435 281.988C165.117 282.286 164.814 282.481 164.526 282.571C164.238 282.661 163.958 282.658 163.684 282.56C163.414 282.465 163.145 282.288 162.877 282.028C162.739 281.897 162.618 281.781 162.516 281.679C162.414 281.578 162.298 281.46 162.168 281.326C161.898 281.046 161.715 280.773 161.621 280.507C161.527 280.247 161.531 279.982 161.632 279.713C161.733 279.449 161.939 279.171 162.251 278.878L163.326 277.869ZM163.363 278.575L162.658 279.237C162.445 279.437 162.304 279.625 162.235 279.8C162.165 279.976 162.166 280.152 162.237 280.33C162.304 280.51 162.44 280.705 162.645 280.913C162.729 281.009 162.804 281.089 162.871 281.155C162.94 281.223 163.008 281.29 163.074 281.356C163.143 281.424 163.224 281.499 163.318 281.58C163.616 281.863 163.902 282.01 164.177 282.019C164.454 282.032 164.753 281.887 165.074 281.586L165.755 280.946L163.363 278.575Z" fill="white"/>
<path d="M157.561 283.043C157.597 283.013 157.633 283 157.67 283.002C157.709 283.008 157.743 283.027 157.771 283.059L160.529 286.165C160.557 286.196 160.569 286.23 160.567 286.265C160.567 286.303 160.549 286.337 160.513 286.367L160.254 286.582C160.221 286.609 160.185 286.619 160.146 286.613C160.106 286.613 160.072 286.597 160.044 286.566L157.286 283.46C157.258 283.428 157.246 283.392 157.249 283.351C157.252 283.315 157.269 283.284 157.302 283.257L157.561 283.043Z" fill="white"/>
<path d="M154.159 285.75C154.211 285.713 154.261 285.695 154.31 285.696C154.356 285.7 154.403 285.716 154.452 285.743L158.114 288.142C158.137 288.157 158.154 288.173 158.168 288.19C158.188 288.216 158.196 288.247 158.191 288.282C158.186 288.317 158.17 288.344 158.142 288.364L157.874 288.557C157.832 288.586 157.792 288.597 157.753 288.588C157.714 288.585 157.686 288.577 157.669 288.563L154.443 286.445L155.645 290.014C155.651 290.036 155.651 290.064 155.646 290.099C155.644 290.137 155.622 290.171 155.581 290.201L155.312 290.394C155.284 290.413 155.252 290.421 155.216 290.415C155.176 290.413 155.146 290.398 155.125 290.371C155.112 290.354 155.102 290.333 155.093 290.308L153.739 286.254C153.722 286.204 153.719 286.157 153.732 286.111C153.741 286.068 153.772 286.028 153.823 285.991L154.159 285.75Z" fill="white"/>
<path d="M149.036 289.352C149.075 289.327 149.113 289.319 149.149 289.326C149.187 289.337 149.218 289.36 149.242 289.395L151.582 292.838C151.606 292.873 151.614 292.907 151.607 292.942C151.602 292.98 151.58 293.011 151.54 293.036L151.254 293.215C151.218 293.237 151.181 293.243 151.143 293.232C151.103 293.227 151.072 293.207 151.048 293.172L148.708 289.729C148.684 289.694 148.676 289.656 148.685 289.616C148.692 289.582 148.714 289.553 148.75 289.531L149.036 289.352Z" fill="white"/>
<path d="M146.343 290.984C146.384 290.962 146.422 290.955 146.457 290.965C146.494 290.979 146.524 291.004 146.545 291.04L148.64 294.623C148.664 294.663 148.671 294.701 148.661 294.735C148.654 294.772 148.629 294.802 148.588 294.824L147.319 295.51C146.935 295.718 146.593 295.829 146.292 295.842C145.991 295.856 145.721 295.78 145.482 295.615C145.246 295.454 145.032 295.214 144.84 294.894C144.74 294.731 144.653 294.588 144.581 294.464C144.508 294.339 144.426 294.196 144.336 294.033C144.147 293.692 144.041 293.381 144.018 293.1C143.994 292.824 144.066 292.568 144.233 292.334C144.398 292.105 144.669 291.888 145.046 291.685L146.343 290.984ZM146.196 291.677L145.346 292.136C145.089 292.275 144.904 292.421 144.792 292.573C144.68 292.725 144.635 292.896 144.658 293.086C144.677 293.278 144.758 293.501 144.902 293.755C144.959 293.869 145.011 293.966 145.058 294.047C145.107 294.131 145.155 294.213 145.202 294.294C145.251 294.378 145.311 294.471 145.38 294.573C145.595 294.924 145.834 295.139 146.096 295.218C146.361 295.302 146.687 295.239 147.075 295.029L147.896 294.585L146.196 291.677Z" fill="white"/>
<path d="M137.904 295.22C138.232 295.083 138.541 295.022 138.831 295.038C139.118 295.055 139.379 295.155 139.614 295.336C139.847 295.523 140.048 295.803 140.217 296.177L141.28 298.526C141.299 298.568 141.302 298.606 141.289 298.639C141.278 298.676 141.251 298.703 141.208 298.721L140.909 298.847C140.866 298.865 140.827 298.865 140.791 298.848C140.754 298.836 140.725 298.809 140.706 298.767L139.638 296.406C139.467 296.028 139.251 295.786 138.99 295.68C138.728 295.574 138.441 295.587 138.129 295.718C137.82 295.847 137.617 296.04 137.52 296.297C137.418 296.555 137.453 296.873 137.624 297.251L138.692 299.612C138.711 299.654 138.714 299.692 138.701 299.725C138.686 299.764 138.659 299.791 138.62 299.807L138.315 299.935C138.276 299.951 138.239 299.951 138.203 299.934C138.166 299.922 138.137 299.895 138.118 299.853L137.056 297.504C136.886 297.13 136.812 296.796 136.833 296.503C136.851 296.215 136.951 295.964 137.133 295.75C137.315 295.536 137.572 295.36 137.904 295.22Z" fill="white"/>
<path d="M132.397 297.527C132.429 297.517 132.461 297.521 132.494 297.537C132.526 297.554 132.548 297.578 132.558 297.61C132.565 297.63 132.571 297.653 132.575 297.678L132.379 302.041C132.376 302.086 132.364 302.125 132.344 302.158C132.324 302.191 132.286 302.216 132.229 302.234L131.817 302.362C131.764 302.379 131.72 302.379 131.683 302.364C131.643 302.35 131.608 302.326 131.578 302.29L128.773 298.862C128.757 298.841 128.746 298.82 128.739 298.8C128.728 298.768 128.731 298.736 128.747 298.704C128.763 298.672 128.787 298.652 128.82 298.642L129.129 298.545C129.178 298.53 129.218 298.531 129.25 298.547C129.279 298.565 129.3 298.583 129.315 298.6L129.935 299.351L131.924 298.732L131.97 297.773C131.968 297.752 131.974 297.725 131.991 297.694C132.007 297.662 132.039 297.639 132.088 297.624L132.397 297.527ZM131.922 299.304L130.285 299.814L131.821 301.696L131.922 299.304Z" fill="white"/>
<path d="M124.618 299.857C124.664 299.847 124.702 299.852 124.733 299.871C124.764 299.895 124.785 299.927 124.795 299.968L125.747 304.01C125.756 304.052 125.752 304.087 125.733 304.117C125.715 304.152 125.683 304.174 125.637 304.184L125.309 304.256C125.267 304.265 125.231 304.257 125.199 304.234C125.168 304.215 125.148 304.184 125.139 304.143L124.28 300.497L122.214 300.948C122.169 300.958 122.13 300.951 122.098 300.928C122.068 300.908 122.047 300.876 122.036 300.831L121.978 300.583C121.969 300.542 121.973 300.505 121.991 300.47C122.01 300.44 122.042 300.42 122.087 300.41L124.618 299.857Z" fill="white"/>
<path d="M114.231 301.608C114.617 301.571 114.945 301.612 115.216 301.73C115.483 301.848 115.694 302.029 115.851 302.272C116.008 302.516 116.111 302.806 116.159 303.145C116.181 303.316 116.203 303.5 116.223 303.697C116.244 303.894 116.262 304.083 116.276 304.264C116.299 304.604 116.259 304.909 116.156 305.177C116.053 305.445 115.883 305.662 115.646 305.829C115.405 305.996 115.092 306.098 114.706 306.134C114.416 306.162 114.158 306.146 113.932 306.088C113.705 306.029 113.514 305.939 113.357 305.819C113.196 305.699 113.069 305.558 112.976 305.398C112.883 305.242 112.824 305.076 112.797 304.901C112.789 304.863 112.798 304.831 112.825 304.803C112.847 304.775 112.877 304.76 112.915 304.756L113.261 304.723C113.299 304.719 113.333 304.727 113.365 304.745C113.392 304.763 113.415 304.799 113.434 304.853C113.539 305.173 113.697 305.384 113.907 305.487C114.113 305.59 114.362 305.627 114.656 305.599C114.991 305.567 115.248 305.446 115.425 305.234C115.602 305.027 115.677 304.713 115.65 304.292C115.627 303.947 115.59 303.595 115.539 303.236C115.479 302.818 115.339 302.522 115.122 302.348C114.905 302.179 114.629 302.11 114.293 302.142C114 302.17 113.763 302.254 113.582 302.394C113.398 302.534 113.287 302.771 113.25 303.105C113.243 303.161 113.228 303.2 113.206 303.223C113.178 303.247 113.146 303.261 113.108 303.265L112.762 303.298C112.724 303.301 112.691 303.292 112.664 303.269C112.632 303.246 112.616 303.216 112.616 303.178C112.606 303.001 112.63 302.825 112.688 302.651C112.746 302.48 112.842 302.321 112.975 302.172C113.103 302.025 113.272 301.901 113.482 301.8C113.692 301.7 113.941 301.636 114.231 301.608Z" fill="white"/>
<path d="M106.604 302.164C106.963 302.158 107.274 302.215 107.534 302.333C107.794 302.456 107.997 302.645 108.141 302.901C108.285 303.161 108.369 303.488 108.393 303.881C108.401 304.067 108.406 304.245 108.409 304.415C108.412 304.588 108.413 304.768 108.412 304.954C108.402 305.344 108.327 305.669 108.188 305.93C108.044 306.194 107.844 306.392 107.588 306.524C107.328 306.659 107.027 306.73 106.684 306.735C106.337 306.741 106.033 306.68 105.773 306.553C105.508 306.431 105.299 306.239 105.147 305.979C104.994 305.723 104.908 305.401 104.888 305.012C104.876 304.826 104.869 304.646 104.866 304.472C104.863 304.303 104.864 304.125 104.869 303.939C104.875 303.545 104.948 303.216 105.087 302.951C105.222 302.69 105.418 302.495 105.674 302.363C105.93 302.236 106.24 302.17 106.604 302.164ZM106.613 302.704C106.287 302.709 106.024 302.811 105.825 303.009C105.621 303.207 105.514 303.524 105.505 303.96C105.5 304.151 105.498 304.32 105.501 304.468C105.504 304.621 105.511 304.79 105.523 304.976C105.536 305.268 105.595 305.504 105.7 305.684C105.801 305.865 105.934 305.996 106.101 306.078C106.267 306.16 106.459 306.199 106.675 306.196C106.882 306.192 107.067 306.147 107.231 306.06C107.395 305.972 107.526 305.837 107.624 305.653C107.718 305.469 107.769 305.231 107.777 304.939C107.778 304.753 107.777 304.584 107.774 304.431C107.771 304.283 107.766 304.114 107.759 303.923C107.734 303.488 107.616 303.174 107.406 302.983C107.195 302.792 106.931 302.699 106.613 302.704Z" fill="white"/>
<path d="M100.149 302.255C100.195 302.26 100.23 302.276 100.252 302.304C100.275 302.336 100.284 302.373 100.279 302.415L99.8508 306.541C99.846 306.587 99.8296 306.622 99.8017 306.645C99.7734 306.672 99.736 306.683 99.6896 306.679L99.3987 306.651C99.3481 306.646 99.3115 306.63 99.2888 306.602C99.2657 306.579 99.2527 306.56 99.2498 306.547L97.4848 303.124L97.1568 306.284C97.152 306.33 97.1356 306.365 97.1077 306.387C97.0794 306.414 97.042 306.426 96.9956 306.421L96.6921 306.392C96.6457 306.388 96.6114 306.37 96.5892 306.338C96.5623 306.31 96.5512 306.273 96.5561 306.226L96.9838 302.107C96.9881 302.064 97.0066 302.03 97.0392 302.003C97.0675 301.976 97.1028 301.965 97.145 301.969L97.4485 301.998C97.4949 302.002 97.5294 302.018 97.5521 302.046C97.5705 302.073 97.5835 302.091 97.5911 302.101L99.353 305.491L99.6784 302.357C99.6828 302.315 99.7012 302.281 99.7338 302.254C99.7617 302.231 99.7989 302.222 99.8453 302.226L100.149 302.255Z" fill="white"/>
<path d="M91.2444 301.187C91.286 301.195 91.3189 301.214 91.3431 301.244C91.3623 301.278 91.3678 301.316 91.3595 301.357L90.6322 305.019L91.8312 305.24C91.8728 305.248 91.9057 305.267 91.9299 305.297C91.9491 305.331 91.9546 305.368 91.9464 305.41L91.8944 305.671C91.8853 305.717 91.8658 305.75 91.8359 305.77C91.801 305.794 91.7627 305.802 91.7211 305.794L88.7112 305.24C88.6654 305.231 88.6329 305.21 88.6137 305.177C88.5895 305.146 88.5819 305.108 88.591 305.063L88.6429 304.801C88.6512 304.76 88.6728 304.727 88.7077 304.703C88.7376 304.683 88.7755 304.677 88.8213 304.685L90.014 304.905L90.7413 301.243C90.7496 301.202 90.7711 301.169 90.8061 301.145C90.836 301.125 90.8739 301.119 90.9196 301.127L91.2444 301.187Z" fill="white"/>
<path d="M85.5903 300.101C85.6353 300.114 85.6663 300.136 85.6835 300.167C85.6994 300.202 85.7012 300.24 85.6889 300.28L84.4853 304.255C84.4718 304.3 84.4491 304.331 84.4172 304.348C84.3841 304.37 84.345 304.375 84.3001 304.362L82.8043 303.949C82.3425 303.821 82.0093 303.612 81.8047 303.323C81.6002 303.033 81.5618 302.677 81.6895 302.255C81.7842 301.943 81.9413 301.709 82.1609 301.554C82.3751 301.403 82.6288 301.325 82.9219 301.323L82.4681 299.443C82.4633 299.415 82.4639 299.391 82.47 299.371C82.4799 299.338 82.5028 299.314 82.5387 299.297C82.5706 299.28 82.6029 299.275 82.6356 299.284L82.9299 299.366C82.9993 299.385 83.0449 299.417 83.0665 299.463C83.0882 299.508 83.1057 299.553 83.1192 299.596L83.5399 301.388L84.6126 301.685L85.0882 300.114C85.1005 300.074 85.1252 300.043 85.1624 300.023C85.1943 300.005 85.2327 300.002 85.2777 300.015L85.5903 300.101ZM84.4559 302.202L83.4445 301.922C83.138 301.838 82.8901 301.837 82.7008 301.921C82.5103 302.009 82.3769 302.179 82.3007 302.431C82.2258 302.678 82.2442 302.888 82.3561 303.06C82.4639 303.23 82.6731 303.358 82.9837 303.444L83.9951 303.724L84.4559 302.202Z" fill="white"/>
<path d="M78.4181 298.009C78.4621 298.024 78.4916 298.048 78.5067 298.08C78.5203 298.116 78.5196 298.154 78.5047 298.194L77.0452 302.081C77.0303 302.121 77.0064 302.149 76.9735 302.164C76.9391 302.183 76.8999 302.185 76.8559 302.17L76.5381 302.059C76.4982 302.045 76.4714 302.02 76.4578 301.984C76.4388 301.951 76.4367 301.914 76.4515 301.875L77.9111 297.987C77.926 297.947 77.9526 297.918 77.991 297.9C78.0239 297.885 78.0603 297.884 78.1003 297.898L78.4181 298.009Z" fill="white"/>
<path d="M75.3775 297.013C75.4203 297.031 75.4482 297.057 75.4611 297.09C75.4723 297.127 75.4692 297.164 75.4518 297.203L73.7471 300.979C73.7279 301.022 73.7015 301.05 73.6677 301.063C73.6321 301.08 73.5929 301.079 73.5501 301.061L71.95 300.381C71.658 300.257 71.4422 300.108 71.3028 299.934C71.1577 299.762 71.0788 299.577 71.0663 299.378C71.0498 299.178 71.0868 298.978 71.1773 298.778C71.2487 298.62 71.3377 298.494 71.4445 298.402C71.5455 298.311 71.6515 298.246 71.7625 298.206C71.8717 298.17 71.972 298.148 72.0633 298.141C71.9446 298.003 71.8642 297.827 71.8222 297.611C71.7764 297.394 71.8065 297.168 71.9127 296.933C72.0084 296.721 72.145 296.547 72.3224 296.411C72.4997 296.275 72.7101 296.194 72.9535 296.169C73.1913 296.146 73.4523 296.195 73.7365 296.315L75.3775 297.013ZM74.728 297.295L73.6009 296.816C73.3479 296.709 73.1228 296.693 72.9256 296.77C72.7284 296.847 72.5854 296.984 72.4967 297.181C72.4044 297.385 72.3969 297.582 72.474 297.771C72.5493 297.964 72.7135 298.114 72.9666 298.221L74.0937 298.7L74.728 297.295ZM73.8848 299.163L72.8103 298.706C72.5611 298.601 72.3471 298.576 72.1681 298.633C71.9874 298.695 71.8527 298.823 71.7639 299.02C71.6752 299.217 71.6716 299.394 71.753 299.553C71.8345 299.712 71.9999 299.844 72.249 299.95L73.3236 300.407L73.8848 299.163Z" fill="white"/>
<path d="M67.0093 293.134C67.3224 293.304 67.5606 293.505 67.7238 293.737C67.8833 293.968 67.9593 294.228 67.9518 294.518C67.9385 294.809 67.8281 295.132 67.6207 295.487L66.3181 297.714C66.2946 297.755 66.2652 297.78 66.23 297.789C66.1927 297.803 66.1535 297.799 66.1125 297.776L65.8274 297.622C65.7864 297.6 65.7622 297.57 65.7548 297.533C65.7415 297.496 65.7467 297.458 65.7702 297.418L67.0791 295.18C67.2887 294.821 67.3581 294.51 67.2871 294.245C67.2162 293.98 67.0316 293.767 66.7334 293.606C66.439 293.447 66.1558 293.407 65.8838 293.486C65.6081 293.564 65.3654 293.781 65.1558 294.14L63.8469 296.378C63.8233 296.419 63.794 296.444 63.7588 296.454C63.7177 296.465 63.6785 296.461 63.6413 296.441L63.3505 296.283C63.3133 296.263 63.2909 296.234 63.2835 296.197C63.2703 296.161 63.2754 296.122 63.2989 296.082L64.6015 293.855C64.8089 293.5 65.0405 293.242 65.2961 293.082C65.5458 292.923 65.8146 292.85 66.1024 292.861C66.3902 292.872 66.6925 292.963 67.0093 293.134Z" fill="white"/>
<path d="M60.4627 289.455C60.4979 289.479 60.5203 289.509 60.5301 289.546C60.5338 289.584 60.5233 289.621 60.4985 289.655L58.3144 292.682L59.3268 293.36C59.362 293.384 59.3845 293.414 59.3942 293.451C59.398 293.489 59.3875 293.525 59.3627 293.56L59.2067 293.776C59.1794 293.814 59.1479 293.836 59.1119 293.842C59.07 293.85 59.0314 293.842 58.9963 293.818L56.4546 292.115C56.4159 292.089 56.3947 292.057 56.3909 292.019C56.3812 291.982 56.3899 291.944 56.4172 291.907L56.5732 291.69C56.5979 291.656 56.6313 291.635 56.6732 291.628C56.7092 291.621 56.7465 291.631 56.7852 291.657L57.7924 292.332L59.9765 289.305C60.0013 289.271 60.0346 289.25 60.0766 289.242C60.1125 289.236 60.1498 289.246 60.1885 289.272L60.4627 289.455Z" fill="white"/>
<path d="M54.8084 285.485C55.0896 285.708 55.291 285.947 55.4128 286.2C55.5317 286.457 55.5616 286.726 55.5023 287.008C55.4403 287.293 55.2875 287.59 55.0439 287.898C54.9257 288.041 54.8114 288.177 54.7009 288.305C54.5877 288.436 54.4687 288.571 54.3439 288.709C54.0766 288.993 53.8025 289.188 53.5216 289.294C53.2346 289.4 52.9488 289.421 52.6641 289.356C52.3734 289.292 52.0941 289.154 51.8261 288.941C51.5548 288.725 51.3611 288.487 51.2449 288.228C51.1226 287.969 51.0892 287.694 51.1446 287.403C51.1972 287.116 51.3456 286.821 51.5897 286.519C51.7046 286.373 51.8187 286.234 51.9319 286.103C52.0423 285.975 52.1616 285.843 52.2898 285.708C52.5565 285.418 52.8317 285.219 53.1154 285.11C53.393 285.001 53.6741 284.979 53.9588 285.044C54.2407 285.112 54.5239 285.259 54.8084 285.485ZM54.4563 285.893C54.2016 285.69 53.9313 285.599 53.6455 285.62C53.3563 285.639 53.0629 285.807 52.7653 286.126C52.6344 286.265 52.5206 286.391 52.424 286.503C52.3246 286.618 52.2174 286.748 52.1026 286.894C51.9186 287.12 51.807 287.334 51.7677 287.535C51.725 287.733 51.7406 287.915 51.8144 288.082C51.8882 288.248 52.0094 288.399 52.1782 288.533C52.3403 288.662 52.5134 288.746 52.6977 288.784C52.8819 288.823 53.0731 288.805 53.2713 288.73C53.4661 288.653 53.6637 288.508 53.8642 288.295C53.989 288.157 54.1011 288.03 54.2005 287.915C54.2972 287.803 54.406 287.674 54.5269 287.527C54.7981 287.187 54.9162 286.879 54.8811 286.603C54.846 286.327 54.7044 286.09 54.4563 285.893Z" fill="white"/>
<path d="M49.9161 281.584C49.9498 281.616 49.9667 281.649 49.9669 281.685C49.964 281.723 49.9474 281.757 49.9171 281.786L46.9443 284.677C46.9109 284.709 46.8759 284.726 46.8393 284.726C46.7997 284.729 46.7631 284.714 46.7294 284.682L45.6084 283.613C45.2624 283.282 45.0687 282.943 45.0274 282.593C44.9861 282.244 45.1233 281.916 45.4389 281.609C45.6726 281.382 45.9236 281.253 46.1917 281.222C46.4538 281.192 46.7147 281.245 46.9745 281.382L47.478 279.529C47.487 279.503 47.4991 279.482 47.5143 279.467C47.5386 279.444 47.5705 279.433 47.6102 279.436C47.6468 279.436 47.6773 279.447 47.7018 279.471L47.9223 279.681C47.9744 279.731 47.999 279.781 47.9962 279.831C47.9934 279.881 47.9875 279.928 47.9786 279.972L47.4884 281.732L48.2923 282.499L49.4669 281.357C49.4972 281.327 49.5337 281.312 49.5764 281.312C49.613 281.312 49.6481 281.328 49.6818 281.36L49.9161 281.584ZM47.9054 282.875L47.1474 282.152C46.9177 281.933 46.6991 281.815 46.4917 281.798C46.2813 281.784 46.082 281.869 45.8938 282.052C45.7086 282.232 45.6242 282.423 45.6404 282.626C45.6535 282.825 45.7765 283.036 46.0092 283.258L46.7672 283.982L47.9054 282.875Z" fill="white"/>
<path d="M43.7532 275.386C43.9965 275.662 44.158 275.929 44.2377 276.186C44.3141 276.446 44.3282 276.683 44.28 276.897C44.2257 277.111 44.1226 277.285 43.9708 277.42C43.9445 277.441 43.9132 277.45 43.8767 277.447C43.8342 277.444 43.8004 277.428 43.7752 277.399L43.5613 277.156C43.5277 277.118 43.5124 277.081 43.5153 277.046C43.5182 277.011 43.53 276.98 43.5506 276.952C43.6153 276.872 43.6605 276.769 43.686 276.645C43.7055 276.52 43.6926 276.38 43.6472 276.226C43.5957 276.071 43.4917 275.905 43.3351 275.727C43.0946 275.454 42.8693 275.294 42.659 275.247C42.4427 275.2 42.251 275.244 42.0837 275.381C41.9689 275.474 41.9079 275.584 41.9005 275.71C41.8871 275.836 41.914 275.992 41.9813 276.177C42.0486 276.362 42.1473 276.593 42.2775 276.869C42.4127 277.157 42.5065 277.411 42.5587 277.631C42.6109 277.85 42.61 278.047 42.5557 278.223C42.4987 278.395 42.3767 278.557 42.1898 278.71C42.0127 278.854 41.8148 278.937 41.5959 278.957C41.3738 278.98 41.1463 278.939 40.9133 278.834C40.6775 278.726 40.4506 278.549 40.2325 278.301C40.0591 278.104 39.936 277.909 39.8631 277.718C39.7842 277.525 39.7473 277.343 39.7524 277.169C39.7542 276.998 39.7853 276.845 39.8455 276.708C39.9024 276.574 39.9786 276.466 40.0742 276.382C40.0972 276.363 40.1271 276.353 40.1641 276.35C40.1977 276.35 40.2299 276.367 40.2607 276.402L40.483 276.655C40.5026 276.677 40.517 276.706 40.5262 276.742C40.5327 276.775 40.5235 276.813 40.4986 276.855C40.3809 276.984 40.3321 277.149 40.3521 277.351C40.3721 277.553 40.4716 277.756 40.6506 277.959C40.8324 278.166 41.0216 278.301 41.2182 278.364C41.412 278.425 41.5958 278.384 41.7696 278.242C41.8811 278.151 41.948 278.044 41.9703 277.922C41.9894 277.803 41.9694 277.656 41.9105 277.48C41.8516 277.304 41.761 277.086 41.6388 276.825C41.4872 276.512 41.3812 276.241 41.3205 276.012C41.2566 275.786 41.2518 275.585 41.306 275.409C41.3542 275.234 41.4717 275.069 41.6586 274.917C41.8652 274.748 42.0884 274.656 42.3283 274.64C42.5649 274.628 42.8064 274.684 43.0529 274.811C43.2933 274.937 43.5267 275.128 43.7532 275.386Z" fill="white"/>
<path d="M51.3531 196.826C50.2078 197.775 48.925 198.503 47.5048 199.01C46.0845 199.518 44.6128 199.772 43.0895 199.772C41.9212 199.772 40.793 199.623 39.705 199.325C38.6283 199.038 37.6147 198.63 36.6641 198.1C35.7249 197.56 34.8659 196.914 34.0871 196.164C33.3082 195.414 32.6382 194.586 32.077 193.682C31.5272 192.766 31.0977 191.79 30.7885 190.753C30.4907 189.705 30.3418 188.618 30.3418 187.493C30.3418 186.368 30.4907 185.281 30.7885 184.233C31.0977 183.185 31.5272 182.208 32.077 181.304C32.6382 180.388 33.3082 179.555 34.0871 178.805C34.8659 178.055 35.7249 177.415 36.6641 176.885C37.6147 176.345 38.6283 175.931 39.705 175.644C40.793 175.346 41.9212 175.198 43.0895 175.198C44.6128 175.198 46.0845 175.451 47.5048 175.959C48.925 176.455 50.2078 177.183 51.3531 178.143L48.7417 182.28C48.0202 181.53 47.1669 180.956 46.1819 180.559C45.1969 180.151 44.1661 179.947 43.0895 179.947C42.0014 179.947 40.982 180.145 40.0314 180.543C39.0808 180.94 38.2504 181.48 37.5403 182.164C36.8302 182.837 36.2689 183.637 35.8566 184.564C35.4443 185.479 35.2381 186.456 35.2381 187.493C35.2381 188.53 35.4443 189.506 35.8566 190.422C36.2689 191.326 36.8302 192.121 37.5403 192.805C38.2504 193.489 39.0808 194.029 40.0314 194.427C40.982 194.824 42.0014 195.022 43.0895 195.022C44.1661 195.022 45.1969 194.824 46.1819 194.427C47.1669 194.018 48.0202 193.439 48.7417 192.689L51.3531 196.826Z" fill="#FF7E7E"/>
<path d="M68.7222 189.776V185.027C68.7222 184.376 68.5905 183.764 68.3271 183.19C68.0751 182.606 67.7258 182.098 67.2791 181.668C66.8324 181.238 66.3055 180.901 65.6985 180.658C65.1029 180.405 64.4673 180.278 63.7915 180.278C63.1158 180.278 62.4744 180.405 61.8673 180.658C61.2718 180.901 60.7506 181.238 60.304 181.668C59.8573 182.098 59.5022 182.606 59.2388 183.19C58.9868 183.764 58.8608 184.376 58.8608 185.027V189.776H68.7222ZM73.6529 199.259H68.7222V194.509H58.8608V199.259H53.9473V185.027C53.9473 183.714 54.205 182.484 54.7204 181.337C55.2358 180.179 55.9345 179.169 56.8164 178.309C57.7098 177.448 58.752 176.77 59.9432 176.273C61.1458 175.777 62.4286 175.528 63.7915 175.528C65.1545 175.528 66.4315 175.777 67.6227 176.273C68.8253 176.77 69.8733 177.448 70.7667 178.309C71.66 179.169 72.3644 180.179 72.8798 181.337C73.3952 182.484 73.6529 183.714 73.6529 185.027V199.259Z" fill="#FF7E7E"/>
<path d="M82.8615 180.278V189.776H87.7922C88.4679 189.776 89.1036 189.655 89.6992 189.412C90.2947 189.159 90.8159 188.817 91.2626 188.386C91.7092 187.956 92.0586 187.454 92.3106 186.881C92.574 186.296 92.7057 185.678 92.7057 185.027C92.7057 184.376 92.574 183.764 92.3106 183.19C92.0586 182.606 91.7092 182.098 91.2626 181.668C90.8159 181.238 90.2947 180.901 89.6992 180.658C89.1036 180.405 88.4679 180.278 87.7922 180.278H82.8615ZM82.8615 199.259H77.9308V175.528H87.7922C88.697 175.528 89.5675 175.644 90.4036 175.876C91.2397 176.097 92.0185 176.417 92.7401 176.836C93.4731 177.244 94.1374 177.74 94.7329 178.325C95.34 178.899 95.8554 179.539 96.2792 180.245C96.7144 180.951 97.0465 181.706 97.2756 182.512C97.5161 183.317 97.6364 184.156 97.6364 185.027C97.6364 186.329 97.3787 187.559 96.8633 188.717C96.3479 189.865 95.6435 190.869 94.7501 191.729C93.8568 192.59 92.8088 193.268 91.6062 193.765C90.415 194.261 89.1437 194.509 87.7922 194.509H82.8615V199.259Z" fill="#FF7E7E"/>
<path d="M110.676 199.259H105.763V180.278H98.358V175.528H118.064V180.278H110.676V199.259Z" fill="#FF7E7E"/>
<path d="M134.419 189.776V185.027C134.419 184.376 134.287 183.764 134.024 183.19C133.772 182.606 133.423 182.098 132.976 181.668C132.529 181.238 132.002 180.901 131.395 180.658C130.8 180.405 130.164 180.278 129.488 180.278C128.813 180.278 128.171 180.405 127.564 180.658C126.969 180.901 126.447 181.238 126.001 181.668C125.554 182.098 125.199 182.606 124.936 183.19C124.684 183.764 124.558 184.376 124.558 185.027V189.776H134.419ZM139.35 199.259H134.419V194.509H124.558V199.259H119.644V185.027C119.644 183.714 119.902 182.484 120.417 181.337C120.933 180.179 121.631 179.169 122.513 178.309C123.407 177.448 124.449 176.77 125.64 176.273C126.843 175.777 128.125 175.528 129.488 175.528C130.851 175.528 132.128 175.777 133.32 176.273C134.522 176.77 135.57 177.448 136.464 178.309C137.357 179.169 138.061 180.179 138.577 181.337C139.092 182.484 139.35 183.714 139.35 185.027V199.259Z" fill="#FF7E7E"/>
<path d="M148.558 199.259H143.628V175.528H148.558V199.259Z" fill="#FF7E7E"/>
<path d="M172.851 199.259H167.577L158.076 183.637V199.259H153.145V175.528H158.42L167.92 191.167V175.528H172.851V199.259Z" fill="#FF7E7E"/>
<path d="M91.0966 219.771C91.0966 220.416 91.008 221.039 90.8307 221.64C90.6599 222.234 90.417 222.794 90.1018 223.319C89.7866 223.838 89.4057 224.312 88.9592 224.742C88.5126 225.172 88.0201 225.542 87.4817 225.852C86.9432 226.156 86.3621 226.39 85.7382 226.554C85.1144 226.725 84.4676 226.811 83.7978 226.811C83.128 226.811 82.4812 226.725 81.8574 226.554C81.2401 226.39 80.6589 226.156 80.1139 225.852C79.5755 225.542 79.083 225.172 78.6364 224.742C78.1899 224.312 77.8057 223.838 77.484 223.319C77.1688 222.794 76.9225 222.234 76.7452 221.64C76.5745 221.039 76.4891 220.416 76.4891 219.771C76.4891 219.126 76.5745 218.503 76.7452 217.902C76.9225 217.301 77.1688 216.741 77.484 216.222C77.8057 215.704 78.1899 215.229 78.6364 214.799C79.083 214.369 79.5755 214.002 80.1139 213.699C80.6589 213.395 81.2401 213.161 81.8574 212.997C82.4812 212.826 83.128 212.74 83.7978 212.74C84.4676 212.74 85.1144 212.826 85.7382 212.997C86.3621 213.161 86.9432 213.395 87.4817 213.699C88.0201 214.002 88.5126 214.369 88.9592 214.799C89.4057 215.229 89.7866 215.704 90.1018 216.222C90.417 216.741 90.6599 217.301 90.8307 217.902C91.008 218.503 91.0966 219.126 91.0966 219.771ZM88.2894 219.771C88.2894 219.176 88.1712 218.616 87.9348 218.092C87.6984 217.56 87.3766 217.102 86.9695 216.716C86.5689 216.324 86.0928 216.014 85.5412 215.786C84.9962 215.558 84.4151 215.444 83.7978 215.444C83.174 215.444 82.5895 215.558 82.0445 215.786C81.4995 216.014 81.0234 216.324 80.6163 216.716C80.2091 217.102 79.8874 217.56 79.651 218.092C79.4146 218.616 79.2964 219.176 79.2964 219.771C79.2964 220.365 79.4146 220.925 79.651 221.45C79.8874 221.969 80.2091 222.424 80.6163 222.816C81.0234 223.208 81.4995 223.518 82.0445 223.746C82.5895 223.974 83.174 224.088 83.7978 224.088C84.4151 224.088 84.9962 223.974 85.5412 223.746C86.0928 223.518 86.5689 223.208 86.9695 222.816C87.3766 222.424 87.6984 221.969 87.9348 221.45C88.1712 220.925 88.2894 220.365 88.2894 219.771Z" fill="white"/>
<path d="M95.7852 215.634V221.08H98.6121C98.9995 221.08 99.364 221.011 99.7055 220.871C100.047 220.726 100.346 220.53 100.602 220.283C100.858 220.036 101.058 219.749 101.203 219.42C101.354 219.085 101.429 218.73 101.429 218.357C101.429 217.984 101.354 217.633 101.203 217.304C101.058 216.969 100.858 216.678 100.602 216.431C100.346 216.184 100.047 215.992 99.7055 215.852C99.364 215.707 98.9995 215.634 98.6121 215.634H95.7852ZM95.7852 226.517H92.9582V212.911H98.6121C99.1309 212.911 99.6299 212.978 100.109 213.11C100.589 213.237 101.035 213.42 101.449 213.661C101.869 213.895 102.25 214.179 102.591 214.515C102.94 214.844 103.235 215.21 103.478 215.615C103.728 216.02 103.918 216.453 104.049 216.915C104.187 217.377 104.256 217.857 104.256 218.357C104.256 218.825 104.194 219.281 104.069 219.723C103.951 220.166 103.777 220.587 103.547 220.985C103.324 221.384 103.048 221.751 102.72 222.086C102.391 222.421 102.023 222.712 101.616 222.959L103.182 226.517H100.178L98.947 223.775L95.7852 223.794V226.517Z" fill="white"/>
<path d="M117.416 222.437C117.416 223 117.304 223.528 117.081 224.021C116.857 224.515 116.552 224.948 116.165 225.321C115.784 225.688 115.337 225.979 114.825 226.194C114.313 226.409 113.765 226.517 113.18 226.517H106.118V212.911H113.18C113.765 212.911 114.313 213.019 114.825 213.234C115.337 213.449 115.784 213.743 116.165 214.116C116.552 214.483 116.857 214.913 117.081 215.407C117.304 215.9 117.416 216.428 117.416 216.991C117.416 217.244 117.38 217.503 117.307 217.769C117.235 218.035 117.133 218.291 117.002 218.537C116.871 218.784 116.713 219.009 116.529 219.211C116.345 219.413 116.142 219.581 115.918 219.714C116.148 219.834 116.355 219.999 116.539 220.207C116.723 220.41 116.88 220.634 117.012 220.881C117.143 221.128 117.242 221.387 117.307 221.659C117.38 221.925 117.416 222.184 117.416 222.437ZM108.945 223.794H113.18C113.377 223.794 113.561 223.759 113.732 223.689C113.903 223.62 114.05 223.525 114.175 223.405C114.306 223.278 114.408 223.133 114.48 222.968C114.553 222.804 114.589 222.627 114.589 222.437C114.589 222.247 114.553 222.07 114.48 221.906C114.408 221.741 114.306 221.599 114.175 221.479C114.05 221.352 113.903 221.254 113.732 221.184C113.561 221.115 113.377 221.08 113.18 221.08H108.945V223.794ZM108.945 218.357H113.18C113.377 218.357 113.561 218.322 113.732 218.253C113.903 218.183 114.05 218.088 114.175 217.968C114.306 217.842 114.408 217.696 114.48 217.532C114.553 217.361 114.589 217.181 114.589 216.991C114.589 216.801 114.553 216.624 114.48 216.46C114.408 216.295 114.306 216.153 114.175 216.033C114.05 215.906 113.903 215.808 113.732 215.739C113.561 215.669 113.377 215.634 113.18 215.634H108.945V218.357Z" fill="white"/>
<path d="M122.38 226.517H119.553V212.911H122.38V226.517Z" fill="white"/>
<path d="M130.94 226.517H128.123V215.634H123.877V212.911H135.175V215.634H130.94V226.517Z" fill="white"/>
<path d="M22.5502 214.768H69.631" stroke="white" stroke-miterlimit="10"/>
<path d="M22.5502 219.932H69.631" stroke="white" stroke-miterlimit="10"/>
<path d="M22.5502 225.08H69.631" stroke="white" stroke-miterlimit="10"/>
<path d="M141.425 214.768H188.505" stroke="white" stroke-miterlimit="10"/>
<path d="M141.425 219.932H188.505" stroke="white" stroke-miterlimit="10"/>
<path d="M141.425 225.08H188.505" stroke="white" stroke-miterlimit="10"/>
<defs>
<linearGradient id="paint0_linear_1299_4346" x1="105.536" y1="312.905" x2="105.536" y2="11.2945" gradientUnits="userSpaceOnUse">
<stop stop-color="#FF7E7E"/>
<stop offset="0.07" stop-color="#D06C70"/>
<stop offset="0.28" stop-color="#3C3445"/>
<stop offset="0.37" stop-color="#001D33"/>
</linearGradient>
</defs>
</svg>
