<svg width="32" height="30" viewBox="0 0 32 30" fill="none" xmlns="http://www.w3.org/2000/svg">
<path d="M13.8232 0.000204343C15.2827 0.00569462 16.6353 0.399497 17.8951 1.11074C18.1412 1.24949 18.3672 1.28343 18.6396 1.20657C19.5467 0.950521 20.4748 0.840716 21.4169 0.91184C22.5069 0.991354 23.5609 1.33131 24.4877 1.90234C25.731 2.66224 26.7492 3.63751 27.3918 4.95218C27.9173 6.01882 28.1718 7.19544 28.1333 8.38061C28.1247 8.66885 28.1378 8.69431 28.4156 8.80486C29.2201 9.12105 29.8897 9.60345 30.3627 10.3312C30.7247 10.8872 30.9262 11.5001 31.0044 12.1529C31.1543 13.4007 30.7389 14.4578 29.8685 15.3563C29.8335 15.3924 29.7976 15.4274 29.7637 15.4646C29.6118 15.6305 29.6054 15.6572 29.7196 15.8576C30.0178 16.3817 30.2657 16.928 30.4105 17.5124C31.0181 19.9618 30.4786 22.1415 28.7865 24.0306C27.9108 25.0087 26.8118 25.6565 25.5434 26.0196C24.9681 26.1852 24.3731 26.2752 23.7738 26.2874C23.3563 26.2959 23.3561 26.2951 23.21 26.6715C22.9257 27.4032 22.5265 28.0618 21.9412 28.6003C21.2207 29.2631 20.3546 29.6235 19.3931 29.7812C18.0587 30 16.849 29.7108 15.764 28.9137C15.7235 28.8838 15.6804 28.8571 15.6419 28.8249C15.4976 28.7036 15.3571 28.7146 15.2037 28.8157C14.9865 28.9584 14.7683 29.1024 14.5394 29.2252C10.7151 31.2776 5.93184 29.069 5.11817 24.7628C5.07817 24.551 5.06323 24.3344 5.03994 24.1195C5.01462 23.8839 4.98197 23.838 4.74247 23.7868C4.07716 23.6448 3.44728 23.4155 2.87285 23.0529C1.27792 22.0452 0.293117 20.6367 0.0543831 18.7677C-0.185869 16.8873 0.371597 15.2532 1.69337 13.8749C1.90299 13.6563 1.91311 13.6151 1.77741 13.3773C0.377672 10.9244 1.16198 7.60573 3.76728 6.04699C4.27564 5.74278 4.81716 5.5092 5.4007 5.39665C5.77715 5.32403 6.00829 5.12962 6.16702 4.78947C6.58545 3.88749 7.16292 3.06585 7.87259 2.36277C8.85993 1.3875 10.0407 0.737648 11.3787 0.358819C12.1774 0.130973 12.9898 -0.00603461 13.8232 0.000204343ZM18.0341 18.7273C18.0121 19.7789 18.5027 20.7624 19.328 21.4143C19.8014 21.7886 20.3569 21.972 20.9356 22.1068C21.4796 22.2336 22.0348 22.2837 22.5898 22.2955C23.0098 22.3047 23.429 22.2456 23.8189 22.0574C24.191 21.877 24.39 21.5845 24.3796 21.1839C24.369 20.7617 24.1771 20.4318 23.75 20.2803C23.6079 20.2285 23.4622 20.1868 23.3141 20.1555C23.0829 20.1091 22.8477 20.0839 22.6166 20.0382C22.3363 19.9826 22.0538 19.9299 21.7812 19.8481C21.4589 19.7512 21.2571 19.5186 21.1736 19.1992C21.1085 18.9496 21.1027 18.6931 21.1303 18.4328C21.1895 17.874 21.3561 17.3437 21.5401 16.8172C21.9227 15.7234 22.4262 14.6795 22.8989 13.6228C23.2898 12.7494 23.6931 11.8789 23.9596 10.9565C24.092 10.4986 24.1804 10.0349 24.0974 9.55628C23.9419 8.66161 23.4644 7.85105 22.3505 7.63219C22.2596 7.61422 22.168 7.59999 22.0763 7.58627C21.288 7.46798 20.532 7.52338 19.8384 7.9646C19.6029 8.11433 19.4045 8.09162 19.1885 7.90945C18.9771 7.73126 18.7834 7.53137 18.569 7.35817C18.0731 6.95888 17.5115 6.78419 16.871 6.92219C16.4553 7.01154 16.1116 7.22965 15.7969 7.50242C15.55 7.71579 15.3045 7.93265 15.0412 8.12631C14.6918 8.38236 14.3209 8.39733 13.9273 8.19544C13.486 7.97084 13.0268 7.77943 12.5817 7.56056C12.0941 7.32074 11.5862 7.26509 11.0569 7.36341C9.89233 7.57903 9.01917 8.1882 8.52702 9.26005C8.22375 9.91798 7.9557 10.5911 7.72398 11.2767C7.17487 12.9081 6.65284 14.5484 6.12905 16.1883C5.89664 16.917 5.66019 17.6465 5.47816 18.3879C5.25741 19.2863 5.48272 20.0906 6.17791 20.729C6.8731 21.3674 7.71056 21.6024 8.65259 21.4502C9.32271 21.3422 9.81537 20.9885 10.1328 20.3976C10.1835 20.3022 10.2379 20.2077 10.2807 20.1086C10.4976 19.6037 10.7187 19.1006 10.9247 18.5913C11.7399 16.5782 12.5525 14.5632 13.3624 12.5465C13.4305 12.367 13.5104 12.1921 13.6017 12.0229C13.7969 11.6788 14.2141 11.5013 14.5708 11.5942C14.909 11.6823 15.1559 12.0107 15.1642 12.406C15.1692 12.5552 15.1545 12.7044 15.1207 12.8499C15.0684 13.0594 15.0015 13.265 14.9204 13.4654C14.3399 14.9098 13.7523 16.3515 13.1736 17.7962C13.0801 18.0186 13.0071 18.2489 12.9554 18.4842C12.8371 19.0727 13.1326 19.5521 13.7164 19.7093C14.3847 19.8892 14.9943 19.7747 15.4746 19.2544C15.6476 19.0617 15.7943 18.8475 15.9108 18.6172C16.7037 17.0949 17.4837 15.5641 18.2723 14.0386C18.6703 13.2685 19.0705 12.4991 19.4845 11.7372C19.6028 11.5272 19.7462 11.332 19.9115 11.1557C19.9845 11.0737 20.0766 11.0104 20.1797 10.971C20.2829 10.9316 20.3942 10.9174 20.5042 10.9296C20.7852 10.9546 20.947 11.1003 21.0065 11.3716C21.0571 11.6032 21.0001 11.8193 20.9052 12.0249C20.4682 12.9607 20.0281 13.8952 19.5847 14.8282C19.1865 15.6642 18.7791 16.4942 18.3865 17.331C18.1713 17.7855 17.9913 18.2519 18.0341 18.7273Z" fill="#0090FF"/>
</svg>
