<svg width="32" height="23" viewBox="0 0 32 23" fill="none" xmlns="http://www.w3.org/2000/svg">
<path d="M31.3336 3.46839C31.1508 2.7983 30.7933 2.18735 30.2968 1.6966C29.8004 1.20585 29.1823 0.852484 28.5044 0.671806C26.0072 4.96654e-07 16 0 16 0C16 0 5.99012 2.48327e-07 3.49819 0.661391C2.81879 0.842489 2.19963 1.19726 1.70299 1.69002C1.20636 2.18278 0.849757 2.79614 0.66908 3.46839C-1.7585e-06 5.93429 0 11.0822 0 11.0822C0 11.0822 -1.7585e-06 16.2301 0.66908 18.696C0.851372 19.3663 1.20869 19.9775 1.70522 20.4684C2.20175 20.9592 2.82006 21.3124 3.49819 21.4926C5.99276 22.154 16 22.154 16 22.154C16 22.154 26.0099 22.154 28.5044 21.4926C29.1823 21.3119 29.8004 20.9585 30.2968 20.4678C30.7933 19.977 31.1508 19.3661 31.3336 18.696C32 16.2301 32 11.0822 32 11.0822C32 11.0822 31.9921 5.93429 31.3336 3.46839ZM12.7995 15.8265V6.33789L21.1129 11.0822L12.7995 15.8265Z" fill="#0090FF"/>
</svg>
