<svg width="29" height="23" viewBox="0 0 29 23" fill="none" xmlns="http://www.w3.org/2000/svg">
<path d="M28.3825 2.63622C27.3388 3.08171 26.2175 3.38272 25.0388 3.51877C26.255 2.81778 27.1649 1.71451 27.5988 0.414807C26.4561 1.06858 25.2054 1.52876 23.9013 1.77535C23.0242 0.873376 21.8626 0.275533 20.5967 0.0746401C19.3307 -0.126253 18.0314 0.0810425 16.9003 0.664344C15.7692 1.24764 14.8697 2.17432 14.3414 3.30049C13.8132 4.42666 13.6857 5.68932 13.9788 6.89244C11.6634 6.78046 9.39829 6.20079 7.33053 5.19104C5.26278 4.1813 3.43855 2.76404 1.97625 1.03127C1.47625 1.86204 1.18875 2.82526 1.18875 3.85108C1.18819 4.77456 1.42429 5.68389 1.8761 6.4984C2.32791 7.31291 2.98145 8.0074 3.77875 8.52027C2.8541 8.49193 1.94984 8.25127 1.14125 7.81833V7.89057C1.14116 9.18578 1.60629 10.4411 2.45773 11.4436C3.30917 12.4461 4.49446 13.134 5.8125 13.3905C4.95473 13.6141 4.05542 13.6471 3.1825 13.4869C3.55437 14.6013 4.27874 15.5759 5.25421 16.2741C6.22967 16.9723 7.4074 17.3592 8.6225 17.3807C6.55979 18.9404 4.01236 19.7864 1.39 19.7827C0.925476 19.7828 0.461345 19.7567 0 19.7044C2.66185 21.3529 5.76043 22.2278 8.925 22.2244C19.6375 22.2244 25.4938 13.6783 25.4938 6.26635C25.4938 6.02554 25.4875 5.78233 25.4763 5.54152C26.6154 4.74804 27.5986 3.76547 28.38 2.63984L28.3825 2.63622Z" fill="#0090FF"/>
</svg>
