<svg width="28" height="27" viewBox="0 0 28 27" fill="none" xmlns="http://www.w3.org/2000/svg">
<path fill-rule="evenodd" clip-rule="evenodd" d="M10.0825 -0.000976562C9.35315 -0.000816899 8.65375 0.27841 8.13814 0.775278C7.62253 1.27215 7.33296 1.94595 7.33313 2.64847C7.33329 3.35099 7.62318 4.02467 8.13902 4.52131C8.65487 5.01795 9.35441 5.29687 10.0838 5.29671H12.8337V2.64787C12.8331 1.94555 12.5431 1.27217 12.0276 0.775556C11.512 0.27894 10.8129 -0.000338957 10.0838 -0.000976562H10.0825ZM10.0825 7.06301H2.75C2.02065 7.06301 1.32118 7.34209 0.805456 7.83884C0.289731 8.3356 0 9.00934 0 9.71186C0 10.4144 0.289731 11.0881 0.805456 11.5849C1.32118 12.0816 2.02065 12.3607 2.75 12.3607H10.0825C10.8118 12.3607 11.5113 12.0816 12.027 11.5849C12.5428 11.0881 12.8325 10.4144 12.8325 9.71186C12.8325 9.00934 12.5428 8.3356 12.027 7.83884C11.5113 7.34209 10.8118 7.06301 10.0825 7.06301Z" fill="#0090FF"/>
<path fill-rule="evenodd" clip-rule="evenodd" d="M27.4998 9.71065C27.4998 9.00814 27.21 8.33439 26.6943 7.83764C26.1786 7.34088 25.4791 7.06181 24.7498 7.06181C24.0204 7.06181 23.3209 7.34088 22.8052 7.83764C22.2895 8.33439 21.9998 9.00814 21.9998 9.71065V12.3595H24.7498C25.4791 12.3595 26.1786 12.0804 26.6943 11.5837C27.21 11.0869 27.4998 10.4132 27.4998 9.71065ZM20.166 9.71065V2.64787C20.166 1.94535 19.8763 1.27161 19.3606 0.774852C18.8448 0.278097 18.1454 -0.000976562 17.416 -0.000976562C16.6867 -0.000976562 15.9872 0.278097 15.4715 0.774852C14.9557 1.27161 14.666 1.94535 14.666 2.64787V9.71065C14.666 10.4132 14.9557 11.0869 15.4715 11.5837C15.9872 12.0804 16.6867 12.3595 17.416 12.3595C18.1454 12.3595 18.8448 12.0804 19.3606 11.5837C19.8763 11.0869 20.166 10.4132 20.166 9.71065Z" fill="#0090FF"/>
<path fill-rule="evenodd" clip-rule="evenodd" d="M17.416 26.4874C18.1454 26.4874 18.8448 26.2083 19.3606 25.7116C19.8763 25.2148 20.166 24.5411 20.166 23.8385C20.166 23.136 19.8763 22.4623 19.3606 21.9655C18.8448 21.4688 18.1454 21.1897 17.416 21.1897H14.666V23.8385C14.6648 25.299 15.896 26.485 17.416 26.4874ZM17.416 19.4222H24.7498C25.4791 19.4222 26.1786 19.1431 26.6943 18.6464C27.21 18.1496 27.4998 17.4759 27.4998 16.7734C27.4998 16.0708 27.21 15.3971 26.6943 14.9003C26.1786 14.4036 25.4791 14.1245 24.7498 14.1245H17.4173C16.6879 14.1244 15.9884 14.4033 15.4725 14.8999C14.9567 15.3966 14.6668 16.0702 14.6666 16.7728C14.6665 17.4753 14.956 18.1491 15.4717 18.6459C15.9873 19.1428 16.6867 19.422 17.416 19.4222Z" fill="#0090FF"/>
<path fill-rule="evenodd" clip-rule="evenodd" d="M0 16.7743C0 17.4769 0.289731 18.1506 0.805456 18.6473C1.32118 19.1441 2.02065 19.4232 2.75 19.4232C3.47935 19.4232 4.17882 19.1441 4.69454 18.6473C5.21027 18.1506 5.5 17.4769 5.5 16.7743V14.1255H2.75C2.02065 14.1255 1.32118 14.4046 0.805456 14.9013C0.289731 15.3981 0 16.0718 0 16.7743ZM7.33375 16.7743V23.8371C7.33358 24.5396 7.62316 25.2134 8.13876 25.7103C8.65437 26.2072 9.35378 26.4864 10.0831 26.4866C10.8125 26.4867 11.512 26.2078 12.0279 25.7112C12.5437 25.2145 12.8336 24.5408 12.8337 23.8383V16.7755C12.8339 16.073 12.5443 15.3992 12.0287 14.9023C11.5131 14.4055 10.8137 14.1262 10.0844 14.1261C9.35503 14.1259 8.65549 14.4049 8.13965 14.9015C7.62381 15.3981 7.33392 16.0718 7.33375 16.7743Z" fill="#0090FF"/>
</svg>
