<svg width="32" height="23" viewBox="0 0 32 23" fill="none" xmlns="http://www.w3.org/2000/svg">
<path d="M21.9179 22.1754L21.8989 22.1539C21.899 22.1397 21.8946 22.1258 21.8862 22.1142C21.8779 22.1026 21.8661 22.0938 21.8524 22.0892L21.8335 22.0677C21.8335 22.0534 21.8291 22.0395 21.8208 22.0279C21.8124 22.0163 21.8006 22.0076 21.787 22.003L21.7682 21.9815C21.7682 21.9672 21.7637 21.9533 21.7554 21.9417C21.747 21.9301 21.7351 21.9214 21.7215 21.9168L21.7027 21.8952C21.7028 21.881 21.6983 21.8671 21.6899 21.8555C21.6815 21.8439 21.6697 21.8352 21.656 21.8306L21.6373 21.809C21.6373 21.7948 21.6328 21.7809 21.6244 21.7693C21.616 21.7577 21.6042 21.749 21.5906 21.7444L21.5718 21.7228C21.5718 21.7086 21.5673 21.6947 21.559 21.6831C21.5506 21.6715 21.5388 21.6628 21.5251 21.6582L21.5063 21.6366C21.5064 21.6224 21.5019 21.6085 21.4935 21.5969C21.4851 21.5853 21.4733 21.5766 21.4597 21.572L21.4409 21.5504C21.4409 21.5362 21.4364 21.5223 21.428 21.5107C21.4197 21.4991 21.4078 21.4904 21.3942 21.4857L21.3752 21.4642C21.3719 21.4476 21.3717 21.4295 21.3534 21.4211L21.4158 21.378C21.4273 21.3815 21.4396 21.3817 21.4512 21.3785C21.4628 21.3753 21.4732 21.3689 21.4813 21.3601L21.6558 21.2954C21.6676 21.2977 21.6797 21.297 21.6912 21.2935C21.7026 21.29 21.7129 21.2837 21.7213 21.2752C22.1527 21.1204 22.5704 20.9366 22.9845 20.7409C23.4814 20.5072 23.9642 20.2454 24.4304 19.9566C25.0426 19.5792 25.6231 19.154 26.1664 18.685C26.3014 18.5673 26.4326 18.4451 26.5657 18.325L26.6353 18.2587C26.919 17.966 27.2391 17.7078 27.4901 17.3836C27.5027 17.3791 27.5143 17.372 27.5239 17.3627C27.5336 17.3534 27.5411 17.3421 27.5459 17.3297L27.5677 17.3082C27.5706 17.3072 27.5733 17.3058 27.5758 17.3041C27.5771 17.3041 27.5758 17.3002 27.5771 17.2983L27.5697 17.308C27.5564 17.308 27.5479 17.314 27.5479 17.3295C27.5127 17.3205 27.4918 17.3388 27.4754 17.3659C27.0658 17.6448 26.6606 17.9298 26.2364 18.1873C25.3224 18.7409 24.359 19.2105 23.3581 19.5902C22.7183 19.8342 22.0626 20.0288 21.4023 20.2053C20.9503 20.326 20.4858 20.4042 20.026 20.4922C19.7482 20.5452 19.4673 20.5835 19.1869 20.6228C18.9033 20.6626 18.6185 20.7004 18.3331 20.7305C18.1218 20.7521 17.9091 20.7588 17.6972 20.7749C17.4997 20.7898 17.3011 20.7879 17.1043 20.818C17.0331 20.8288 16.9592 20.8198 16.8861 20.8202L16.397 20.8232L16.2661 20.8247H15.7424L15.6115 20.8232L15.0991 20.8191C14.8863 20.8176 14.6749 20.7958 14.463 20.7784C14.3118 20.7661 14.1601 20.7614 14.0087 20.7525C13.8123 20.7409 13.6159 20.715 13.4195 20.6956C13.2231 20.6762 13.0267 20.6508 12.8318 20.626C12.4554 20.5782 12.0801 20.5228 11.7082 20.4482C11.3322 20.373 10.9523 20.3092 10.5844 20.2051C10.0875 20.0643 9.5887 19.9266 9.09989 19.7535C8.62506 19.5852 8.15633 19.4016 7.69567 19.1977C6.90912 18.8479 6.15161 18.4375 5.43015 17.9705C5.12727 17.7765 4.83246 17.5679 4.53394 17.367C4.51757 17.3396 4.49662 17.3213 4.46149 17.3304C4.46149 17.3153 4.45276 17.3101 4.43967 17.3088L4.43181 17.2976C4.43181 17.2996 4.43181 17.3024 4.43312 17.3034C4.4356 17.3052 4.43832 17.3066 4.4412 17.3075L4.46302 17.3291C4.46786 17.3415 4.47533 17.3527 4.48493 17.362C4.49452 17.3713 4.50603 17.3784 4.51866 17.383C4.779 17.6983 5.05788 17.9957 5.37385 18.258L5.44325 18.3244C5.71318 18.596 6.01257 18.8345 6.31262 19.0716C7.05669 19.6568 7.85845 20.1667 8.70579 20.5935C9.29276 20.8917 9.89965 21.15 10.5222 21.3666C10.6518 21.4116 10.6532 21.411 10.5722 21.5174C10.225 21.9743 9.87696 22.4304 9.5324 22.8893C9.47348 22.9677 9.41041 23.0186 9.30676 22.9953C9.29694 22.9763 9.28036 22.9759 9.26312 22.9791C8.89695 22.9669 8.53471 22.9199 8.17204 22.8696C7.55596 22.782 6.94608 22.6562 6.34601 22.4929C6.12473 22.4336 5.90652 22.3636 5.68656 22.3013C5.63131 22.2731 5.57174 22.2542 5.51024 22.2453C5.01358 22.0756 4.52688 21.8816 4.05015 21.6633C3.42093 21.3769 2.81756 21.038 2.2466 20.6504C1.93979 20.4424 1.63559 20.2294 1.35846 19.9822C1.27008 19.9042 1.17581 19.8329 1.08416 19.7585C1.05928 19.7154 1.01368 19.6984 0.973089 19.6751C0.924209 19.6251 0.875256 19.5748 0.82623 19.5242C0.794152 19.4714 0.732834 19.4544 0.689627 19.4154C0.661259 19.3874 0.633108 19.3594 0.60474 19.3315L0.301639 19.0063L0.16809 18.8792C0.144523 18.8389 0.127066 18.7945 0.0834225 18.7692C0.00595575 18.7089 -0.00910105 18.6425 0.00442835 18.5382C0.0229767 18.3949 0.028868 18.2472 0.0386878 18.1013C0.0541811 17.8713 0.0657467 17.6412 0.0954241 17.4116C0.120082 17.2213 0.129466 17.0291 0.146269 16.8379C0.160671 16.6754 0.17311 16.5129 0.192094 16.351C0.217189 16.1355 0.248612 15.9225 0.275671 15.7083C0.306876 15.4624 0.332625 15.2158 0.367322 14.9706C0.405728 14.7009 0.450462 14.4317 0.49476 14.1634C0.540367 13.888 0.584665 13.6119 0.636818 13.3375C0.731524 12.8401 0.819683 12.3409 0.932938 11.8474C1.0499 11.3366 1.1625 10.8242 1.30565 10.3195C1.42305 9.9061 1.52627 9.48862 1.6548 9.07869C1.79489 8.63061 1.92713 8.17972 2.09559 7.74069C2.18288 7.51439 2.26209 7.2855 2.34436 7.05769C2.50017 6.62491 2.67168 6.19838 2.85302 5.77573C3.12492 5.14121 3.41842 4.5164 3.7464 3.9084C3.92621 3.57498 4.10776 3.24242 4.32271 2.92861C4.39668 2.82085 4.50295 2.75468 4.60311 2.68463C5.08606 2.34752 5.58732 2.03676 6.10466 1.75377C6.95538 1.2895 7.84776 0.903929 8.77039 0.60199C9.54254 0.347737 10.3364 0.162854 11.1422 0.0495929C11.2674 0.0321351 11.3933 0.0213588 11.5186 0.0045477C11.5991 -0.00644421 11.6513 0.0107981 11.6884 0.0942072C11.7608 0.257793 11.8479 0.414912 11.9284 0.574834C11.991 0.698546 11.9913 0.699839 11.8518 0.731953C11.2086 0.879585 10.5753 1.06674 9.95574 1.29232C9.03521 1.6277 8.1548 2.06201 7.33038 2.58743C6.63579 3.03345 5.97734 3.5321 5.36098 4.07888C5.30686 4.12651 5.24358 4.16401 5.20124 4.22393C5.19666 4.22824 5.18772 4.23557 5.18837 4.23643C5.19732 4.24872 5.20408 4.24096 5.21019 4.23298C5.26693 4.22889 5.31188 4.1957 5.36011 4.17177C6.39314 3.65451 7.43425 3.1534 8.51595 2.74024C9.59566 2.32818 10.7103 2.01176 11.8468 1.79472C12.379 1.69256 12.915 1.6149 13.4548 1.56173C13.7782 1.5294 14.1038 1.50785 14.4283 1.48393C14.9099 1.44815 15.3922 1.44082 15.8738 1.43479C16.2936 1.42962 16.7152 1.42962 17.1353 1.46561C17.2828 1.47832 17.4318 1.47811 17.58 1.48716C17.9806 1.50871 18.3791 1.54859 18.7776 1.59493C19.1433 1.63695 19.5077 1.68545 19.8702 1.74946C20.1538 1.79968 20.4375 1.85183 20.7212 1.91347C21.3752 2.05905 22.0212 2.23738 22.6568 2.44777C23.963 2.87365 25.2007 3.45342 26.4256 4.06422C26.5129 4.10733 26.6026 4.14677 26.6909 4.18794L26.7516 4.21596C26.7609 4.23001 26.774 4.2412 26.7895 4.24825C26.8049 4.2553 26.822 4.25792 26.8389 4.25583C26.8217 4.21962 26.7953 4.20971 26.7697 4.19656L26.7392 4.16078C26.4686 3.90646 26.1777 3.6752 25.8894 3.44092C25.5642 3.17654 25.2264 2.92854 24.876 2.69692C24.3868 2.37233 23.874 2.08361 23.342 1.83308C22.7907 1.57242 22.2226 1.348 21.6414 1.16128C21.3745 1.07637 21.1079 0.988862 20.8371 0.916876C20.5663 0.844889 20.2985 0.762127 20.022 0.713633C20.0094 0.674407 20.041 0.644018 20.0439 0.608025C20.1294 0.445086 20.2261 0.286673 20.2968 0.1177C20.3435 0.00562534 20.4133 -0.00881494 20.5139 0.0056254C20.5525 0.0110136 20.589 0.033644 20.63 0.02179H20.6955C21.5188 0.115544 22.3194 0.30995 23.1091 0.552419C23.1919 0.577851 23.2735 0.605654 23.3557 0.632379L23.5102 0.689925C23.9923 0.862347 24.4627 1.06106 24.9286 1.27185L25.5597 1.58048C26.0332 1.84235 26.5072 2.10314 26.96 2.39949C27.1564 2.52881 27.3473 2.6633 27.5411 2.79477C27.707 2.90727 27.7755 3.09047 27.8767 3.24888C28.0836 3.57217 28.2523 3.91702 28.4393 4.25195C28.4725 4.3421 28.516 4.42828 28.5687 4.50886C28.6028 4.59877 28.6453 4.68535 28.6957 4.76749C28.713 4.83742 28.744 4.90332 28.7869 4.96147C28.9464 5.33928 29.1201 5.71129 29.2772 6.0904C29.5967 6.86134 29.8786 7.64565 30.1423 8.43663C30.1474 8.44949 30.1534 8.46202 30.1601 8.47413C30.1661 8.51961 30.181 8.56352 30.2038 8.60345C30.3096 8.96669 30.4155 9.32985 30.5215 9.69294C30.6723 10.2102 30.8072 10.7318 30.9298 11.2564C30.9357 11.2767 30.943 11.2965 30.9516 11.3159C30.9599 11.3661 30.968 11.4163 30.9763 11.4667C31.0878 11.9381 31.1914 12.411 31.2781 12.8875C31.3647 13.364 31.4544 13.8397 31.5334 14.3173C31.5875 14.644 31.6207 14.974 31.6724 15.3012C31.7394 15.7292 31.7732 16.1609 31.8282 16.5903C31.8662 16.8853 31.8825 17.1817 31.9105 17.4774C31.9414 17.8078 31.9663 18.1386 31.9951 18.4688C32.0045 18.5766 32.0087 18.6819 31.9266 18.7686L31.8437 18.8548C31.7935 18.9005 31.7346 18.9382 31.7084 19.0057L31.3398 19.374L31.3204 19.3932L31.1838 19.5236C31.059 19.5928 30.973 19.7063 30.8667 19.7967C30.2918 20.2867 29.673 20.7241 29.018 21.1036C28.2875 21.5257 27.5181 21.8785 26.7202 22.1573C26.6458 22.1834 26.5729 22.2144 26.4991 22.2435C26.4271 22.2435 26.3645 22.275 26.3001 22.3015C25.9292 22.4194 25.5547 22.5263 25.175 22.6123C24.7641 22.7054 24.3521 22.7985 23.9358 22.8608C23.6601 22.902 23.3817 22.9375 23.1022 22.9578C22.9837 22.9664 22.8643 22.9638 22.7463 22.9794C22.7222 22.9772 22.6967 22.969 22.6808 22.9955H22.5507C22.5474 22.9855 22.5417 22.9763 22.5341 22.9689C22.5265 22.9614 22.5173 22.9557 22.5071 22.9524L22.4883 22.9309C22.4884 22.9166 22.4839 22.9027 22.4755 22.8911C22.4671 22.8795 22.4553 22.8708 22.4416 22.8662L22.4229 22.8446C22.4229 22.8304 22.4184 22.8165 22.41 22.8049C22.4017 22.7933 22.3898 22.7846 22.3762 22.78L22.3574 22.7584C22.3575 22.7442 22.353 22.7303 22.3447 22.7187C22.3363 22.7071 22.3245 22.6984 22.3109 22.6938L22.2919 22.6722C22.292 22.658 22.2875 22.6441 22.2792 22.6325C22.2709 22.6209 22.2591 22.6122 22.2454 22.6076L22.2265 22.586C22.2266 22.5718 22.2221 22.5579 22.2138 22.5463C22.2054 22.5347 22.1936 22.526 22.18 22.5214L22.161 22.4998C22.1611 22.4856 22.1567 22.4717 22.1483 22.4601C22.14 22.4485 22.1281 22.4398 22.1145 22.4351L22.0955 22.4136C22.0956 22.3994 22.0912 22.3855 22.0828 22.3739C22.0745 22.3623 22.0627 22.3535 22.0491 22.3489L22.0301 22.3274C22.0302 22.3132 22.0257 22.2993 22.0174 22.2877C22.009 22.276 21.9972 22.2673 21.9836 22.2627L21.9646 22.2412C21.9649 22.2267 21.9605 22.2126 21.9522 22.2008C21.9438 22.1889 21.9318 22.1801 21.9179 22.1754ZM8.73351 12.8998C8.74333 13.0468 8.73984 13.1752 8.75533 13.3043C8.85331 14.075 9.17125 14.7311 9.77462 15.2406C10.1779 15.5807 10.6455 15.7777 11.174 15.7932C12.0735 15.8212 12.762 15.4197 13.2676 14.7078C13.7119 14.0828 13.8766 13.3763 13.8031 12.6172C13.7333 11.8958 13.4605 11.2641 12.9344 10.7525C12.4371 10.2693 11.8433 10.0214 11.1354 10.0643C10.4275 10.1072 9.86976 10.4307 9.42678 10.9587C8.95282 11.5245 8.74071 12.1872 8.73351 12.8998ZM23.2756 12.9582C23.2656 12.7952 23.2684 12.6668 23.2516 12.5379C23.1537 11.779 22.8423 11.1277 22.2505 10.6255C21.6798 10.1415 21.0156 9.94985 20.2752 10.1046C19.4134 10.2848 18.8415 10.8307 18.4771 11.598C18.2322 12.1137 18.1452 12.6625 18.2043 13.2328C18.2872 14.0337 18.6087 14.7158 19.2328 15.2434C19.6371 15.5855 20.11 15.7762 20.6435 15.795C21.3182 15.8187 21.8974 15.5794 22.3746 15.1156C22.9924 14.516 23.2639 13.7707 23.2756 12.9582Z" fill="#0090FF"/>
</svg>
