<svg width="211" height="324" viewBox="0 0 211 324" fill="none" xmlns="http://www.w3.org/2000/svg">
<path d="M105.519 318.869C50.3964 318.869 5.54407 276.667 5.54407 224.782C5.54407 224.459 5.54407 224.136 5.54407 223.814V223.007V212.033C5.55238 211.887 5.55238 211.742 5.54407 211.597V100.629V98.3212C6.0132 46.8881 50.8656 5.04114 105.503 5.04114C160.626 5.04114 205.478 47.2592 205.478 99.1281C205.478 99.467 205.478 99.7898 205.478 100.113V100.919V111.894C205.47 112.039 205.47 112.184 205.478 112.329V223.297V225.605C205.009 277.038 160.173 318.869 105.519 318.869Z" fill="#001D33"/>
<path d="M105.536 9.88276C157.895 9.88276 200.485 49.9222 200.485 99.1282C200.485 99.4026 200.485 99.6608 200.485 99.919C200.485 100.177 200.485 100.532 200.485 100.839V112.136C200.485 112.265 200.485 112.41 200.485 112.539V221.038V225.524C200.382 237.215 197.852 248.767 193.044 259.501C188.236 270.236 181.247 279.935 172.488 288.028C154.558 304.777 130.529 314.092 105.553 313.979C53.1945 313.979 10.6039 273.956 10.6039 224.734C10.6039 224.475 10.6039 224.217 10.6039 223.943C10.6039 223.668 10.6039 223.346 10.6039 223.039V211.742C10.6039 211.613 10.6039 211.468 10.6039 211.339V102.84V98.3536C10.7175 86.672 13.2525 75.1299 18.0603 64.4048C22.868 53.6798 29.8516 43.9878 38.6011 35.8979C56.5287 19.1438 80.5575 9.8221 105.536 9.93119V9.88276ZM105.536 0.248133C47.8497 0.248133 1.05375 44.0801 0.551106 98.3213V211.807C0.54286 211.963 0.54286 212.119 0.551106 212.275V222.878C0.551106 223.507 0.551106 224.12 0.551106 224.75C0.551106 279.394 47.5649 323.678 105.553 323.678C163.239 323.678 210.035 279.862 210.538 225.621V112.087C210.547 111.932 210.547 111.775 210.538 111.619V101.016C210.538 100.387 210.538 99.7738 210.538 99.1282C210.538 44.4997 163.524 0.199707 105.536 0.199707V0.248133Z" fill="#0090FF"/>
<path d="M105.52 312.769C80.3071 312.739 56.1361 303.078 38.3082 285.906C20.4802 268.734 10.4508 245.452 10.4198 221.167C10.4198 220.828 10.4198 220.489 10.4198 220.15V209.402C10.4198 209.208 10.4198 209.096 10.4198 208.983V103.114V101.969C10.8418 77.877 21.1016 54.9156 38.9764 38.0592C56.8513 21.2027 80.9016 11.809 105.917 11.913C130.932 12.017 154.897 21.6104 172.62 38.6148C190.343 55.6193 200.397 78.6651 200.603 102.759C200.603 103.098 200.603 103.437 200.603 103.776V104.502V114.524C200.603 114.718 200.603 114.831 200.603 114.928V220.796V221.958C200.317 246.091 190.182 269.146 172.389 286.139C154.597 303.132 130.576 312.698 105.52 312.769V312.769Z" fill="url(#paint0_linear_1299_4230)"/>
<path d="M105.536 12.7756C130.306 12.8012 154.053 22.302 171.568 39.1931C189.083 56.0843 198.934 78.9863 198.961 102.874C198.961 103.197 198.961 103.52 198.961 103.827C198.961 104.134 198.961 104.344 198.961 104.651V114.831C198.953 114.966 198.953 115.101 198.961 115.235V219.003V222.235C198.543 245.929 188.463 268.511 170.904 285.089C153.345 301.666 129.72 310.904 105.148 310.802C80.5755 310.7 57.0342 301.266 39.6235 284.544C22.2128 267.821 12.3346 245.156 12.1288 221.459C12.1288 221.136 12.1288 220.813 12.1288 220.49C12.1288 220.167 12.1288 219.989 12.1288 219.666V209.47V209.066V105.298V102.066C12.3409 78.3079 22.275 55.5922 39.7689 38.8633C57.2628 22.1344 80.9003 12.7466 105.536 12.7432V12.7756ZM105.536 9.5116C80.0174 9.51494 55.5326 19.2388 37.4112 36.5668C19.2898 53.8948 8.99875 77.4242 8.77784 102.034V102.034V209.163C8.76871 209.314 8.76871 209.465 8.77784 209.615V219.601C8.77784 220.199 8.77784 220.797 8.77784 221.395C8.98398 245.946 19.2131 269.43 37.2486 286.758C55.284 304.086 79.6732 313.862 105.131 313.968C130.589 314.075 155.065 304.502 173.255 287.325C191.446 270.149 201.885 246.751 202.312 222.203V115.106C202.32 114.96 202.32 114.815 202.312 114.67V104.668C202.312 104.086 202.312 103.488 202.312 102.89C202.312 78.1375 192.116 54.3986 173.967 36.8958C155.818 19.393 131.203 9.56007 105.536 9.56007V9.5116Z" fill="white"/>
<path d="M90.3524 137.545C96.7317 135.148 99.9104 128.284 97.4522 122.215C94.994 116.145 87.8298 113.167 81.4504 115.564C75.0711 117.961 71.8924 124.825 74.3506 130.895C76.8089 136.965 83.9731 139.942 90.3524 137.545Z" fill="#0090FF"/>
<path d="M36.7845 196.959H22.6322V177.49H26.6777V193.063H36.7845V196.959Z" fill="#3FA9F5"/>
<path d="M42.9444 196.959H38.8989V177.49H42.9444V196.959Z" fill="#3FA9F5"/>
<path d="M60.5643 196.959H46.708V177.49H60.5643V181.386H50.7535V185.283H57.3927V189.18H50.7535V193.063H60.5643V196.959Z" fill="#3FA9F5"/>
<path d="M79.34 189.18C79.34 190.257 79.1285 191.271 78.7057 192.221C78.2828 193.162 77.7049 193.986 76.9719 194.692C76.2389 195.389 75.379 195.941 74.3923 196.349C73.415 196.756 72.3672 196.959 71.2489 196.959C70.1307 196.959 69.0782 196.756 68.0915 196.349C67.1141 195.941 66.259 195.389 65.526 194.692C64.8024 193.986 64.2292 193.162 63.8063 192.221C63.3834 191.271 63.172 190.257 63.172 189.18V177.49H67.2034V189.18C67.2034 189.714 67.3068 190.216 67.5135 190.687C67.7297 191.157 68.021 191.569 68.3875 191.922C68.754 192.275 69.1815 192.556 69.6702 192.764C70.1683 192.963 70.6945 193.063 71.2489 193.063C71.8034 193.063 72.3249 192.963 72.8136 192.764C73.3116 192.556 73.7439 192.275 74.1104 191.922C74.4769 191.569 74.7635 191.157 74.9703 190.687C75.1864 190.216 75.2945 189.714 75.2945 189.18V177.49H79.34V189.18Z" fill="#3FA9F5"/>
<path d="M91.3356 196.959H87.3042V181.386H81.2288V177.49H97.3968V181.386H91.3356V196.959Z" fill="#3FA9F5"/>
<path d="M113.396 196.959H99.5394V177.49H113.396V181.386H103.585V185.283H110.224V189.18H103.585V193.063H113.396V196.959Z" fill="#3FA9F5"/>
<path d="M132.397 196.959H128.069L120.274 184.142V196.959H116.229V177.49H120.556L128.351 190.32V177.49H132.397V196.959Z" fill="#3FA9F5"/>
<path d="M148.057 189.18V185.283C148.057 184.749 147.949 184.247 147.733 183.776C147.527 183.296 147.24 182.88 146.873 182.527C146.507 182.174 146.075 181.898 145.577 181.698C145.088 181.49 144.566 181.386 144.012 181.386C143.458 181.386 142.931 181.49 142.433 181.698C141.945 181.898 141.517 182.174 141.15 182.527C140.784 182.88 140.493 183.296 140.277 183.776C140.07 184.247 139.966 184.749 139.966 185.283V189.18H148.057ZM152.103 196.959H148.057V193.063H139.966V196.959H135.935V185.283C135.935 184.206 136.146 183.197 136.569 182.255C136.992 181.305 137.565 180.477 138.289 179.771C139.022 179.064 139.877 178.508 140.854 178.1C141.841 177.693 142.894 177.49 144.012 177.49C145.13 177.49 146.178 177.693 147.155 178.1C148.142 178.508 149.002 179.064 149.735 179.771C150.468 180.477 151.046 181.305 151.469 182.255C151.892 183.197 152.103 184.206 152.103 185.283V196.959Z" fill="#3FA9F5"/>
<path d="M171.781 196.959H167.453L159.658 184.142V196.959H155.613V177.49H159.94L167.735 190.32V177.49H171.781V196.959Z" fill="#3FA9F5"/>
<path d="M184.03 196.959H179.999V181.386H173.923V177.49H190.091V181.386H184.03V196.959Z" fill="#3FA9F5"/>
<path d="M90.9793 219.634C90.9793 220.279 90.8906 220.902 90.7133 221.503C90.5426 222.098 90.2996 222.657 89.9845 223.182C89.6693 223.701 89.2884 224.176 88.8419 224.606C88.3953 225.036 87.9028 225.406 87.3644 225.716C86.8259 226.019 86.2448 226.253 85.6209 226.418C84.9971 226.589 84.3503 226.674 83.6805 226.674C83.0107 226.674 82.3639 226.589 81.74 226.418C81.1228 226.253 80.5416 226.019 79.9966 225.716C79.4581 225.406 78.9656 225.036 78.5191 224.606C78.0726 224.176 77.6884 223.701 77.3667 223.182C77.0515 222.657 76.8052 222.098 76.6279 221.503C76.4572 220.902 76.3718 220.279 76.3718 219.634C76.3718 218.989 76.4572 218.366 76.6279 217.765C76.8052 217.164 77.0515 216.604 77.3667 216.086C77.6884 215.567 78.0726 215.093 78.5191 214.663C78.9656 214.232 79.4581 213.866 79.9966 213.562C80.5416 213.258 81.1228 213.024 81.74 212.86C82.3639 212.689 83.0107 212.604 83.6805 212.604C84.3503 212.604 84.9971 212.689 85.6209 212.86C86.2448 213.024 86.8259 213.258 87.3644 213.562C87.9028 213.866 88.3953 214.232 88.8419 214.663C89.2884 215.093 89.6693 215.567 89.9845 216.086C90.2996 216.604 90.5426 217.164 90.7133 217.765C90.8906 218.366 90.9793 218.989 90.9793 219.634ZM88.1721 219.634C88.1721 219.04 88.0539 218.48 87.8175 217.955C87.5811 217.423 87.2593 216.965 86.8522 216.579C86.4516 216.187 85.9755 215.877 85.4239 215.649C84.8789 215.422 84.2977 215.308 83.6805 215.308C83.0567 215.308 82.4722 215.422 81.9272 215.649C81.3822 215.877 80.9061 216.187 80.499 216.579C80.0918 216.965 79.7701 217.423 79.5337 217.955C79.2973 218.48 79.1791 219.04 79.1791 219.634C79.1791 220.229 79.2973 220.788 79.5337 221.313C79.7701 221.832 80.0918 222.287 80.499 222.68C80.9061 223.072 81.3822 223.382 81.9272 223.609C82.4722 223.837 83.0567 223.951 83.6805 223.951C84.2977 223.951 84.8789 223.837 85.4239 223.609C85.9755 223.382 86.4516 223.072 86.8522 222.68C87.2593 222.287 87.5811 221.832 87.8175 221.313C88.0539 220.788 88.1721 220.229 88.1721 219.634Z" fill="white"/>
<path d="M95.6679 215.497V220.943H98.4948C98.8822 220.943 99.2467 220.874 99.5881 220.735C99.9296 220.589 100.228 220.393 100.484 220.146C100.741 219.9 100.941 219.612 101.085 219.283C101.236 218.948 101.312 218.594 101.312 218.22C101.312 217.847 101.236 217.496 101.085 217.167C100.941 216.832 100.741 216.541 100.484 216.294C100.228 216.048 99.9296 215.855 99.5881 215.716C99.2467 215.57 98.8822 215.497 98.4948 215.497H95.6679ZM95.6679 226.38H92.8409V212.775H98.4948C99.0136 212.775 99.5126 212.841 99.992 212.974C100.471 213.1 100.918 213.284 101.332 213.524C101.752 213.758 102.133 214.043 102.474 214.378C102.822 214.707 103.118 215.074 103.361 215.479C103.61 215.883 103.801 216.317 103.932 216.778C104.07 217.24 104.139 217.721 104.139 218.22C104.139 218.688 104.076 219.144 103.952 219.587C103.833 220.029 103.659 220.45 103.43 220.849C103.206 221.247 102.931 221.614 102.602 221.949C102.274 222.284 101.906 222.575 101.499 222.822L103.065 226.38H100.061L98.8297 223.638L95.6679 223.657V226.38Z" fill="white"/>
<path d="M117.298 222.3C117.298 222.863 117.187 223.391 116.963 223.885C116.74 224.378 116.435 224.811 116.047 225.184C115.667 225.551 115.22 225.842 114.708 226.057C114.196 226.272 113.647 226.38 113.063 226.38H106V212.775H113.063C113.647 212.775 114.196 212.882 114.708 213.097C115.22 213.312 115.667 213.606 116.047 213.979C116.435 214.346 116.74 214.776 116.963 215.27C117.187 215.763 117.298 216.291 117.298 216.854C117.298 217.107 117.262 217.367 117.19 217.632C117.118 217.898 117.016 218.154 116.885 218.401C116.753 218.647 116.596 218.872 116.412 219.074C116.228 219.277 116.024 219.444 115.801 219.577C116.031 219.697 116.238 219.862 116.422 220.071C116.606 220.273 116.763 220.497 116.894 220.744C117.026 220.991 117.124 221.25 117.19 221.522C117.262 221.788 117.298 222.047 117.298 222.3ZM108.827 223.657H113.063C113.26 223.657 113.444 223.622 113.614 223.552C113.785 223.483 113.933 223.388 114.058 223.268C114.189 223.141 114.291 222.996 114.363 222.831C114.435 222.667 114.471 222.49 114.471 222.3C114.471 222.11 114.435 221.933 114.363 221.769C114.291 221.604 114.189 221.462 114.058 221.342C113.933 221.215 113.785 221.117 113.614 221.048C113.444 220.978 113.26 220.943 113.063 220.943H108.827V223.657ZM108.827 218.22H113.063C113.26 218.22 113.444 218.186 113.614 218.116C113.785 218.046 113.933 217.952 114.058 217.831C114.189 217.705 114.291 217.559 114.363 217.395C114.435 217.224 114.471 217.044 114.471 216.854C114.471 216.664 114.435 216.487 114.363 216.323C114.291 216.158 114.189 216.016 114.058 215.896C113.933 215.769 113.785 215.671 113.614 215.602C113.444 215.532 113.26 215.497 113.063 215.497H108.827V218.22Z" fill="white"/>
<path d="M122.263 226.38H119.436V212.775H122.263V226.38Z" fill="white"/>
<path d="M130.822 226.38H128.005V215.497H123.76V212.775H135.058V215.497H130.822V226.38Z" fill="white"/>
<path d="M22.5502 214.631H69.631" stroke="white" stroke-miterlimit="10"/>
<path d="M22.5502 219.795H69.631" stroke="white" stroke-miterlimit="10"/>
<path d="M22.5502 224.943H69.631" stroke="white" stroke-miterlimit="10"/>
<path d="M141.425 214.631H188.505" stroke="white" stroke-miterlimit="10"/>
<path d="M141.425 219.795H188.505" stroke="white" stroke-miterlimit="10"/>
<path d="M141.425 224.943H188.505" stroke="white" stroke-miterlimit="10"/>
<path d="M77.2377 135.52C82.5374 140.32 89.1993 143.493 96.3763 144.637C103.553 145.78 110.921 144.842 117.543 141.941C124.165 139.041 129.742 134.309 133.565 128.348C137.388 122.386 139.283 115.464 139.011 108.462C138.739 101.46 136.312 94.6942 132.037 89.0246C127.763 83.355 121.834 79.0379 115.005 76.6222C108.177 74.2065 100.757 73.8013 93.6886 75.4581C86.6204 77.115 80.2233 80.759 75.3108 85.927C68.7493 92.7545 65.2672 101.81 65.6284 111.107C65.9897 120.405 70.1647 129.184 77.2377 135.52V135.52Z" stroke="white" stroke-width="0.75" stroke-miterlimit="10"/>
<path d="M77.3212 135.424C80.996 138.579 85.5572 140.617 90.4314 141.282C95.3056 141.947 100.275 141.209 104.715 139.161C109.155 137.113 112.867 133.846 115.385 129.772C117.903 125.697 119.114 120.996 118.865 116.261C118.617 111.525 116.921 106.966 113.99 103.156C111.059 99.3464 107.024 96.4565 102.392 94.8498C97.7605 93.243 92.7391 92.991 87.9593 94.1256C83.1795 95.2602 78.8546 97.7306 75.5284 101.226C73.3144 103.585 71.6045 106.34 70.4963 109.336C69.3881 112.331 68.9035 115.507 69.0699 118.683C69.2364 121.858 70.0508 124.971 71.4666 127.844C72.8823 130.716 74.8718 133.292 77.3212 135.424V135.424Z" stroke="white" stroke-width="0.75" stroke-miterlimit="10"/>
<path d="M77.3211 135.424C79.142 137.034 81.4179 138.088 83.8609 138.453C86.3038 138.817 88.8042 138.476 91.0457 137.472C93.2872 136.468 95.1693 134.846 96.4538 132.811C97.7383 130.777 98.3677 128.421 98.2622 126.042C98.1568 123.663 97.3212 121.367 95.8613 119.446C94.4015 117.524 92.3828 116.063 90.0605 115.246C87.7383 114.43 85.2168 114.295 82.815 114.859C80.4132 115.422 78.2389 116.66 76.5671 118.414C74.3254 120.766 73.1455 123.879 73.2869 127.069C73.4283 130.259 74.8794 133.264 77.3211 135.424V135.424Z" stroke="white" stroke-width="0.75" stroke-miterlimit="10"/>
<path d="M126.698 85.6671C127.91 85.6671 128.892 84.721 128.892 83.5538C128.892 82.3867 127.91 81.4406 126.698 81.4406C125.485 81.4406 124.503 82.3867 124.503 83.5538C124.503 84.721 125.485 85.6671 126.698 85.6671Z" fill="white" stroke="white" stroke-width="0.75" stroke-miterlimit="10"/>
<path d="M77.4217 137.439C78.6339 137.439 79.6165 136.493 79.6165 135.326C79.6165 134.159 78.6339 133.213 77.4217 133.213C76.2095 133.213 75.2268 134.159 75.2268 135.326C75.2268 136.493 76.2095 137.439 77.4217 137.439Z" fill="white" stroke="white" stroke-width="0.75" stroke-miterlimit="10"/>
<path d="M147.457 138.345C140.873 147.388 131.521 154.226 120.708 157.903C109.895 161.581 98.1591 161.914 87.1396 158.856C57.8356 150.916 40.6453 122.029 48.7378 94.3028C56.8303 66.577 87.1396 50.729 116.444 58.5885C127.688 61.6309 137.654 68.0056 144.927 76.8088" stroke="white" stroke-width="0.75" stroke-linecap="round" stroke-linejoin="round"/>
<path d="M32.5047 68.6807C32.3008 69.0402 32.0634 69.316 31.7923 69.5083C31.5169 69.6983 31.2084 69.7941 30.8669 69.7955C30.521 69.7947 30.1432 69.6975 29.7335 69.5038C29.5418 69.4084 29.3599 69.3155 29.1878 69.2249C29.0114 69.1321 28.8298 69.0337 28.6429 68.9299C28.2567 68.7047 27.9731 68.4511 27.7923 68.1693C27.6095 67.8809 27.5267 67.5738 27.544 67.2479C27.5593 66.9155 27.6641 66.5781 27.8584 66.2356C28.0551 65.8888 28.2933 65.6216 28.5729 65.4338C28.8507 65.2396 29.1649 65.1386 29.5156 65.131C29.862 65.1211 30.2367 65.2139 30.6397 65.4095C30.8338 65.5007 31.019 65.5927 31.1954 65.6855C31.3675 65.7761 31.5458 65.8754 31.7303 65.9835C32.1232 66.2067 32.4122 66.4604 32.5974 66.7445C32.7807 67.0222 32.8637 67.324 32.8465 67.6498C32.8249 67.9734 32.711 68.3171 32.5047 68.6807ZM31.9562 68.3921C32.1409 68.0665 32.1918 67.7501 32.1091 67.443C32.0287 67.1316 31.7718 66.8509 31.3382 66.6008C31.1494 66.4905 30.9797 66.3957 30.8292 66.3164C30.6743 66.2349 30.4998 66.1486 30.3057 66.0574C30.0041 65.9097 29.732 65.8378 29.4894 65.842C29.2492 65.8419 29.0394 65.9017 28.8598 66.0213C28.6802 66.1409 28.5292 66.3086 28.4069 66.5242C28.2894 66.7314 28.2269 66.9401 28.2194 67.1503C28.2119 67.3605 28.2718 67.5651 28.3993 67.7639C28.5291 67.9585 28.7388 68.1403 29.0285 68.3092C29.2154 68.413 29.3863 68.5057 29.5411 68.5872C29.6917 68.6664 29.865 68.7549 30.061 68.8525C30.5137 69.0688 30.8978 69.1254 31.2132 69.0224C31.5286 68.9193 31.7763 68.7092 31.9562 68.3921Z" fill="white"/>
<path d="M36.085 62.5006C36.054 62.5441 36.0178 62.5697 35.9765 62.5774C35.9312 62.5823 35.8883 62.5714 35.8478 62.5446L31.8771 59.916C31.8325 59.8865 31.8065 59.8518 31.7992 59.8119C31.7877 59.7694 31.7975 59.7264 31.8286 59.6828L32.8621 58.2344C33.1812 57.7873 33.5413 57.5042 33.9425 57.3852C34.3437 57.2663 34.7551 57.3463 35.1767 57.6254C35.4889 57.8321 35.6892 58.0783 35.7777 58.3641C35.865 58.6433 35.8539 58.939 35.7446 59.2512L38.0143 59.4078C38.0471 59.412 38.0736 59.4208 38.0939 59.4342C38.1263 59.4557 38.1448 59.4883 38.1494 59.5321C38.1568 59.572 38.1492 59.6077 38.1266 59.6394L37.9233 59.9243C37.8753 59.9916 37.8217 60.029 37.7627 60.0365C37.7036 60.044 37.6473 60.0476 37.5939 60.0472L35.4353 59.8855L34.694 60.9243L36.2628 61.9628C36.3034 61.9896 36.328 62.0263 36.3366 62.0728C36.3439 62.1126 36.3321 62.1543 36.301 62.1979L36.085 62.5006ZM34.1772 60.5821L34.8761 59.6027C35.0878 59.3059 35.1831 59.0426 35.162 58.813C35.1367 58.5807 34.9984 58.3814 34.7471 58.215C34.4998 58.0513 34.2591 57.9997 34.0249 58.0603C33.7935 58.1169 33.5705 58.2956 33.3559 58.5963L32.657 59.5758L34.1772 60.5821Z" fill="white"/>
<path d="M41.1344 55.6071C41.099 55.6472 41.0604 55.669 41.0185 55.6724C40.9729 55.6727 40.9312 55.6575 40.8936 55.6267L37.2084 52.611C37.167 52.5772 37.1447 52.5401 37.1414 52.4997C37.1343 52.4563 37.1485 52.4145 37.1839 52.3744L38.5056 50.8759C38.7467 50.6025 38.9899 50.4185 39.2351 50.3241C39.4798 50.223 39.7165 50.197 39.9453 50.2461C40.1772 50.2916 40.3911 50.3943 40.5867 50.5544C40.741 50.6807 40.852 50.8155 40.9199 50.9589C40.9872 51.0956 41.0244 51.2296 41.0316 51.3611C41.035 51.4894 41.0249 51.6036 41.0015 51.7037C41.1984 51.62 41.4259 51.5896 41.6842 51.6126C41.9457 51.632 42.1912 51.7356 42.4207 51.9234C42.6276 52.0927 42.7774 52.2938 42.8701 52.5265C42.9627 52.7593 42.9814 53.0099 42.9259 53.2785C42.8699 53.5402 42.7246 53.8042 42.4898 54.0704L41.1344 55.6071ZM41.039 54.8229L41.97 53.7674C42.179 53.5304 42.2739 53.2942 42.2548 53.0588C42.2357 52.8235 42.1302 52.6273 41.9383 52.4703C41.7389 52.3071 41.519 52.237 41.2785 52.2599C41.0342 52.2798 40.8076 52.4082 40.5986 52.6452L39.6676 53.7007L41.039 54.8229ZM39.2161 53.3312L40.1037 52.3249C40.3095 52.0916 40.4109 51.8701 40.4079 51.6605C40.4012 51.4478 40.3019 51.263 40.11 51.106C39.9181 50.9489 39.7183 50.889 39.5106 50.9262C39.3029 50.9634 39.0961 51.0987 38.8903 51.332L38.0028 52.3383L39.2161 53.3312Z" fill="white"/>
<path d="M47.0032 49.2354C46.965 49.2728 46.9249 49.2917 46.8829 49.292C46.8374 49.289 46.7969 49.2708 46.7617 49.2374L43.3004 45.9565C43.2651 45.923 43.2473 45.8861 43.2469 45.8456C43.2431 45.8018 43.2603 45.7612 43.2985 45.7238L43.5747 45.4534C43.6094 45.4194 43.6496 45.4039 43.6951 45.4069C43.7406 45.4032 43.781 45.418 43.8163 45.4515L47.2776 48.7324C47.3129 48.7658 47.3307 48.8061 47.3311 48.8534C47.3314 48.8938 47.3142 48.9311 47.2794 48.9651L47.0032 49.2354Z" fill="white"/>
<path d="M50.4574 45.9747C50.4206 46.0064 50.3795 46.0225 50.3342 46.0232C50.2892 46.0171 50.2503 45.9961 50.2176 45.9603L47.3319 42.8016L46.2727 43.7126C46.2359 43.7442 46.1948 43.7603 46.1494 43.761C46.1045 43.7549 46.0656 43.7339 46.0329 43.6981L45.8268 43.4725C45.7908 43.4331 45.774 43.3932 45.7764 43.3527C45.7793 43.3055 45.7991 43.2661 45.8359 43.2345L48.4949 40.9477C48.5354 40.9129 48.5781 40.8985 48.623 40.9046C48.6684 40.9039 48.7091 40.9233 48.7451 40.9627L48.9512 41.1883C48.9839 41.2241 48.9989 41.2657 48.996 41.3129C48.9936 41.3533 48.9721 41.391 48.9317 41.4257L47.878 42.3319L50.7638 45.4906C50.7965 45.5264 50.8114 45.5679 50.8086 45.6151C50.8062 45.6556 50.7847 45.6932 50.7443 45.728L50.4574 45.9747Z" fill="white"/>
<path d="M59.2042 39.2678C58.8288 39.5109 58.4693 39.6454 58.1258 39.6711C57.7864 39.6941 57.4685 39.625 57.1723 39.4638C56.876 39.3026 56.6091 39.0645 56.3714 38.7495C56.2532 38.5888 56.1287 38.4147 55.9979 38.2273C55.8671 38.04 55.7439 37.8593 55.6283 37.6852C55.4152 37.3544 55.2869 37.0265 55.2437 36.7014C55.2004 36.3763 55.2539 36.0667 55.4041 35.7726C55.5583 35.4758 55.8232 35.2059 56.1986 34.9627C56.4801 34.7804 56.7534 34.6583 57.0185 34.5966C57.2835 34.5349 57.5299 34.5229 57.7577 34.5606C57.9896 34.5957 58.1979 34.6692 58.3827 34.781C58.5646 34.8889 58.7182 35.0239 58.8432 35.1861C58.8723 35.2193 58.881 35.2571 58.8691 35.2995C58.8613 35.3393 58.8391 35.3711 58.8023 35.3949L58.4657 35.6129C58.429 35.6367 58.3894 35.6479 58.3469 35.6465C58.3085 35.6424 58.2651 35.6184 58.2167 35.5745C57.9302 35.3085 57.6508 35.1798 57.3783 35.1885C57.1099 35.1944 56.8329 35.2899 56.5473 35.4749C56.2208 35.6864 56.0258 35.9459 55.962 36.2535C55.8955 36.5571 55.9932 36.9135 56.2551 37.3227C56.4711 37.6574 56.7049 37.9923 56.9565 38.3272C57.2511 38.7152 57.5583 38.9388 57.8781 38.9979C58.1951 39.0531 58.5168 38.975 58.8432 38.7635C59.1288 38.5785 59.3252 38.3674 59.4321 38.1302C59.5432 37.8904 59.5249 37.5926 59.3772 37.2367C59.3532 37.177 59.3466 37.1292 59.3571 37.0934C59.3718 37.055 59.3975 37.0239 59.4342 37.0001L59.7708 36.7821C59.8075 36.7583 59.8465 36.7504 59.8877 36.7585C59.9329 36.7639 59.966 36.7858 59.987 36.8244C60.0957 36.9971 60.169 37.1869 60.2069 37.3939C60.242 37.597 60.2327 37.8085 60.1789 38.0286C60.1292 38.246 60.0247 38.4613 59.8654 38.6745C59.7061 38.8877 59.4857 39.0854 59.2042 39.2678Z" fill="white"/>
<path d="M66.7744 34.7241C66.4051 34.9091 66.0546 35.0059 65.7229 35.0145C65.3889 35.0188 65.0801 34.9262 64.7965 34.7368C64.5107 34.5431 64.2522 34.2515 64.0211 33.862C63.9157 33.6757 63.817 33.497 63.7251 33.3257C63.6309 33.1501 63.5354 32.967 63.4386 32.7764C63.2446 32.3738 63.1514 32.0048 63.159 31.6696C63.1686 31.3279 63.2714 31.0265 63.4676 30.7652C63.6657 30.4976 63.9408 30.2756 64.2928 30.0993C64.6491 29.9208 64.9954 29.8316 65.3317 29.8316C65.67 29.8251 65.9865 29.9165 66.281 30.1059C66.5733 30.2909 66.8316 30.5771 67.056 30.9646C67.1658 31.1486 67.2678 31.3285 67.362 31.504C67.454 31.6753 67.5461 31.8574 67.6385 32.0501C67.8392 32.4549 67.9369 32.827 67.9316 33.1665C67.9284 33.4996 67.8287 33.7967 67.6326 34.0579C67.4342 34.3149 67.1481 34.5369 66.7744 34.7241ZM66.4815 34.1781C66.816 34.0105 67.0348 33.776 67.1376 33.4746C67.2448 33.171 67.1888 32.7942 66.9695 32.3445C66.8748 32.1474 66.7872 31.9739 66.7068 31.8241C66.6241 31.6699 66.5278 31.5008 66.418 31.3167C66.2508 31.0256 66.0656 30.8141 65.8625 30.6822C65.6638 30.5481 65.4567 30.4807 65.2413 30.4799C65.0259 30.4792 64.8074 30.5343 64.5857 30.6453C64.3728 30.7519 64.2046 30.8905 64.0811 31.061C63.9576 31.2315 63.8931 31.435 63.8876 31.6714C63.8865 31.9056 63.9587 32.1737 64.1042 32.4757C64.201 32.6663 64.2907 32.8386 64.3734 32.9928C64.4538 33.1427 64.5479 33.3129 64.6557 33.5034C64.9097 33.9358 65.1961 34.1971 65.5147 34.2875C65.8333 34.3778 66.1556 34.3414 66.4815 34.1781Z" fill="white"/>
<path d="M73.3395 31.4443C73.2938 31.4609 73.2496 31.4614 73.207 31.4458C73.1672 31.4241 73.1384 31.3905 73.1207 31.3453L71.3864 26.9105C71.367 26.8606 71.3656 26.8172 71.3824 26.7801C71.402 26.7368 71.4347 26.7068 71.4804 26.6903L71.8231 26.5659C71.878 26.546 71.9244 26.5447 71.9624 26.5619C72.0005 26.5791 72.0253 26.5959 72.037 26.6124L74.5632 28.8289L74.9504 25.5554C74.9524 25.5339 74.9596 25.5055 74.9718 25.47C74.9886 25.4329 75.0244 25.4044 75.0793 25.3845L75.4152 25.2626C75.4654 25.2444 75.5105 25.2462 75.5503 25.2679C75.5929 25.2835 75.6239 25.3161 75.6434 25.3659L77.3777 29.8008C77.3954 29.846 77.3945 29.8903 77.3749 29.9336C77.3581 29.9707 77.3245 29.9984 77.2743 30.0167L76.9384 30.1385C76.8927 30.1551 76.8485 30.1556 76.8059 30.1401C76.7661 30.1183 76.7373 30.0848 76.7196 30.0395L75.4129 26.6981L75.1339 29.3275C75.1334 29.3794 75.1201 29.4256 75.0942 29.466C75.0665 29.5019 75.0252 29.5298 74.9704 29.5497L74.7578 29.6268C74.6984 29.6484 74.646 29.6545 74.6006 29.6451C74.558 29.6295 74.5164 29.6033 74.4759 29.5663L72.4653 27.7676L73.7719 31.109C73.7896 31.1543 73.7887 31.1986 73.7691 31.2419C73.7523 31.279 73.7211 31.3058 73.6754 31.3224L73.3395 31.4443Z" fill="white"/>
<path d="M83.3155 27.9674C83.268 27.9779 83.2243 27.9727 83.1842 27.9517C83.1478 27.925 83.124 27.888 83.1126 27.8407L82.0019 23.2102C81.9894 23.1582 81.994 23.1148 82.0157 23.0801C82.041 23.0397 82.0773 23.0141 82.1248 23.0036L82.4807 22.9244C82.5376 22.9117 82.5837 22.9164 82.619 22.9384C82.6543 22.9604 82.6766 22.9804 82.6858 22.9982L84.8821 25.5272L85.7111 22.325C85.716 22.3039 85.7269 22.2766 85.7439 22.243C85.7655 22.2083 85.8048 22.1846 85.8618 22.1719L86.2106 22.0943C86.2628 22.0827 86.3071 22.0902 86.3435 22.117C86.3835 22.1379 86.4098 22.1744 86.4222 22.2264L87.533 26.8569C87.5443 26.9042 87.5374 26.9481 87.5121 26.9886C87.4904 27.0233 87.4535 27.0464 87.4013 27.0581L87.0525 27.1357C87.005 27.1462 86.9613 27.141 86.9213 27.1201C86.8849 27.0933 86.861 27.0563 86.8496 27.009L86.0128 23.5202L85.3785 26.0964C85.3709 26.1479 85.3515 26.1921 85.3203 26.2289C85.2881 26.261 85.2434 26.2834 85.1865 26.2961L84.9658 26.3452C84.9041 26.3589 84.8515 26.3582 84.8078 26.343C84.7678 26.322 84.7303 26.2905 84.6952 26.2485L82.952 24.2014L83.7888 27.6902C83.8002 27.7375 83.7932 27.7814 83.7679 27.8218C83.7463 27.8565 83.7117 27.8792 83.6643 27.8897L83.3155 27.9674Z" fill="white"/>
<path d="M95.4141 25.7283C95.0077 25.7683 94.6492 25.7303 94.3387 25.6142C94.0331 25.4978 93.7848 25.2999 93.5939 25.0207C93.4073 24.7362 93.2891 24.3595 93.2394 23.8906L92.9273 20.9464C92.9217 20.8932 92.9318 20.8507 92.9578 20.8188C92.9832 20.7821 93.0226 20.7612 93.0758 20.7559L93.4459 20.7195C93.4991 20.7143 93.542 20.7272 93.5746 20.7582C93.6116 20.7838 93.6329 20.8233 93.6385 20.8764L93.9522 23.8351C94.0024 24.3089 94.1508 24.6484 94.3974 24.8538C94.6441 25.0591 94.9609 25.1427 95.348 25.1047C95.7302 25.0671 96.0206 24.9237 96.219 24.6746C96.4223 24.425 96.4989 24.0634 96.4487 23.5896L96.135 20.6309C96.1294 20.5777 96.1395 20.5352 96.1655 20.5033C96.1958 20.4662 96.2351 20.4452 96.2835 20.4404L96.6609 20.4033C96.7092 20.3986 96.7497 20.4117 96.7824 20.4427C96.8193 20.4684 96.8406 20.5078 96.8462 20.561L97.1583 23.5051C97.208 23.9741 97.1689 24.3663 97.0411 24.6817C96.9175 24.9918 96.7183 25.2337 96.4433 25.4073C96.1684 25.5808 95.8253 25.6879 95.4141 25.7283Z" fill="white"/>
<path d="M102.988 25.0125C102.935 25.0116 102.894 24.9963 102.865 24.9667C102.837 24.9321 102.823 24.8906 102.824 24.842L102.923 20.0803C102.924 20.0268 102.939 19.9857 102.969 19.9571C102.999 19.9235 103.041 19.9072 103.094 19.9081L103.43 19.9138C103.488 19.9148 103.531 19.9302 103.56 19.9598C103.589 19.9846 103.605 20.0044 103.61 20.019L105.954 23.7792L106.029 20.1332C106.031 20.0798 106.046 20.0387 106.076 20.01C106.106 19.9765 106.147 19.9602 106.201 19.9611L106.551 19.9671C106.604 19.968 106.645 19.9857 106.674 20.0202C106.707 20.05 106.723 20.0916 106.722 20.145L106.623 24.8994C106.622 24.9481 106.605 24.9891 106.57 25.0225C106.54 25.0561 106.501 25.0724 106.452 25.0716L106.102 25.0656C106.049 25.0647 106.008 25.0494 105.979 25.0198C105.955 24.9902 105.939 24.9704 105.929 24.9605L103.592 21.2369L103.517 24.8538C103.516 24.9024 103.498 24.9434 103.463 24.9769C103.433 25.0055 103.392 25.0194 103.338 25.0185L102.988 25.0125Z" fill="white"/>
<path d="M112.163 25.2879C112.11 25.2828 112.07 25.2644 112.044 25.2326C112.018 25.196 112.007 25.1535 112.012 25.1051L112.456 20.3567C112.46 20.3083 112.478 20.271 112.51 20.2447C112.542 20.2136 112.585 20.2005 112.638 20.2055L113.023 20.2419C113.071 20.2465 113.108 20.2671 113.134 20.3038C113.165 20.336 113.179 20.3763 113.174 20.4247L112.731 25.1731C112.726 25.2215 112.705 25.261 112.668 25.2917C112.636 25.318 112.596 25.3288 112.548 25.3243L112.163 25.2879Z" fill="white"/>
<path d="M116.968 25.7825C116.92 25.7746 116.882 25.7535 116.853 25.7192C116.831 25.6809 116.823 25.6379 116.832 25.59L117.585 21.3664L116.203 21.1385C116.155 21.1306 116.117 21.1095 116.088 21.0753C116.065 21.037 116.058 20.9939 116.067 20.946L116.12 20.6444C116.13 20.5917 116.151 20.5534 116.185 20.5294C116.225 20.5014 116.269 20.4914 116.317 20.4993L119.787 21.0714C119.839 21.0801 119.877 21.1036 119.9 21.1418C119.929 21.1761 119.938 21.2196 119.929 21.2722L119.875 21.5739C119.866 21.6218 119.842 21.6597 119.803 21.6877C119.769 21.7117 119.725 21.7193 119.673 21.7106L118.298 21.4839L117.545 25.7075C117.536 25.7554 117.512 25.7933 117.473 25.8213C117.439 25.8453 117.395 25.8529 117.342 25.8442L116.968 25.7825Z" fill="white"/>
<path d="M124.845 27.3001C124.798 27.2876 124.762 27.2629 124.737 27.2261C124.719 27.1859 124.716 27.1424 124.729 27.0957L125.204 25.4415L124.326 22.1295C124.326 22.1142 124.325 22.099 124.324 22.0837C124.324 22.0684 124.326 22.0514 124.331 22.0328C124.342 21.9954 124.365 21.9664 124.402 21.9459C124.438 21.9253 124.475 21.9201 124.512 21.9301L124.879 22.0276C124.921 22.0389 124.955 22.0606 124.982 22.0927C125.009 22.1202 125.025 22.1544 125.028 22.1956L125.75 24.8325L127.776 22.9272C127.81 22.8961 127.844 22.8749 127.878 22.8637C127.917 22.8491 127.958 22.8475 128.001 22.8587L128.36 22.9544C128.402 22.9656 128.434 22.989 128.454 23.0246C128.474 23.0601 128.478 23.0966 128.468 23.134C128.462 23.1527 128.455 23.1684 128.447 23.1812C128.438 23.1939 128.427 23.2061 128.413 23.2176L125.902 25.6272L125.427 27.2814C125.414 27.3282 125.386 27.3635 125.343 27.3874C125.307 27.408 125.263 27.4114 125.212 27.3976L124.845 27.3001Z" fill="white"/>
<path d="M134.519 30.159C134.469 30.1384 134.437 30.1091 134.422 30.0712C134.409 30.0288 134.413 29.9854 134.433 29.941L136.398 25.5877C136.42 25.5388 136.451 25.5067 136.49 25.4913C136.531 25.4714 136.576 25.4718 136.625 25.4925L138.34 26.2072C138.673 26.346 138.937 26.5194 139.132 26.7273C139.332 26.9372 139.451 27.1769 139.489 27.4465C139.53 27.7116 139.479 28.002 139.337 28.3175C139.194 28.6331 139.009 28.8672 138.779 29.0198C138.55 29.1724 138.287 29.2504 137.992 29.2539C137.701 29.2593 137.388 29.1926 137.055 29.0538L135.86 28.5557L135.108 30.2223C135.088 30.2668 135.055 30.298 135.01 30.316C134.971 30.3314 134.926 30.3288 134.877 30.3081L134.519 30.159ZM136.106 27.9929L137.274 28.4797C137.607 28.6185 137.89 28.6493 138.123 28.572C138.356 28.4948 138.535 28.3162 138.662 28.0362C138.786 27.7606 138.801 27.5135 138.708 27.2949C138.614 27.0762 138.396 26.8956 138.054 26.7531L136.886 26.2663L136.106 27.9929Z" fill="white"/>
<path d="M142.386 33.5993C142.339 33.5735 142.31 33.541 142.3 33.5018C142.292 33.4585 142.3 33.4159 142.325 33.3741L144.759 29.2815C144.786 29.2356 144.82 29.2071 144.861 29.1961C144.904 29.181 144.949 29.1863 144.995 29.2121L146.553 30.0719C147.034 30.3373 147.349 30.6582 147.499 31.0347C147.648 31.4112 147.593 31.8167 147.335 32.2512C147.143 32.573 146.904 32.7904 146.616 32.9035C146.335 33.0148 146.03 33.0326 145.702 32.957L145.694 35.1667C145.692 35.1988 145.684 35.2253 145.672 35.2462C145.652 35.2797 145.62 35.3007 145.575 35.3093C145.535 35.3203 145.497 35.3164 145.463 35.2976L145.157 35.1285C145.084 35.0885 145.042 35.0404 145.031 34.984C145.019 34.9276 145.012 34.8735 145.008 34.8218L145.03 32.719L143.912 32.1024L142.95 33.7194C142.926 33.7612 142.89 33.7885 142.842 33.8013C142.802 33.8123 142.758 33.8048 142.711 33.779L142.386 33.5993ZM144.229 31.5697L145.283 32.1511C145.602 32.3272 145.879 32.394 146.113 32.3514C146.35 32.3046 146.546 32.1517 146.7 31.8926C146.851 31.6378 146.888 31.4 146.81 31.1794C146.737 30.9611 146.538 30.7627 146.215 30.5842L145.161 30.0029L144.229 31.5697Z" fill="white"/>
<path d="M151.269 38.8226C150.931 38.5863 150.683 38.3273 150.525 38.0454C150.37 37.7597 150.316 37.4529 150.363 37.125C150.414 36.7932 150.567 36.4417 150.823 36.0705C150.948 35.8974 151.069 35.7334 151.186 35.5786C151.306 35.4198 151.433 35.2567 151.565 35.0891C151.851 34.744 152.15 34.5007 152.464 34.359C152.785 34.2163 153.111 34.1716 153.441 34.225C153.779 34.2773 154.108 34.4161 154.431 34.6413C154.757 34.8692 154.996 35.128 155.148 35.4176C155.307 35.7061 155.365 36.019 155.323 36.3563C155.284 36.6898 155.135 37.0388 154.878 37.4033C154.757 37.5792 154.637 37.7465 154.517 37.9053C154.4 38.0601 154.273 38.22 154.136 38.3848C153.852 38.7365 153.551 38.9851 153.234 39.1306C152.924 39.2751 152.604 39.3206 152.274 39.2671C151.946 39.2099 151.611 39.0617 151.269 38.8226ZM151.642 38.329C151.949 38.543 152.265 38.6277 152.59 38.5831C152.92 38.5412 153.243 38.3264 153.561 37.9387C153.701 37.7701 153.822 37.618 153.924 37.4825C154.03 37.3431 154.143 37.1855 154.264 37.0096C154.458 36.7369 154.57 36.4839 154.6 36.2507C154.635 36.0203 154.603 35.8122 154.507 35.6263C154.41 35.4405 154.26 35.2767 154.058 35.1349C153.863 34.9987 153.658 34.9151 153.444 34.8841C153.231 34.8531 153.013 34.8875 152.792 34.9873C152.574 35.0898 152.359 35.2705 152.145 35.5293C152.012 35.6969 151.893 35.8503 151.787 35.9897C151.685 36.1252 151.57 36.2815 151.442 36.4585C151.156 36.8684 151.044 37.2305 151.104 37.5448C151.164 37.8591 151.344 38.1205 151.642 38.329Z" fill="white"/>
<path d="M158.434 44.1623C158.111 43.8811 157.891 43.583 157.774 43.2679C157.66 42.9561 157.643 42.6412 157.722 42.3233C157.805 42.0085 157.973 41.7012 158.228 41.4015C158.371 41.2425 158.524 41.0762 158.687 40.9026C158.854 40.7255 159.014 40.5589 159.167 40.4027C159.452 40.1285 159.751 39.9381 160.065 39.8314C160.382 39.7278 160.709 39.7167 161.046 39.7979C161.383 39.8791 161.711 40.0587 162.03 40.3367C162.29 40.5636 162.482 40.7956 162.606 41.0326C162.73 41.2696 162.801 41.4957 162.818 41.711C162.843 41.9259 162.83 42.1173 162.778 42.2853C162.731 42.4566 162.667 42.588 162.588 42.6798C162.561 42.7149 162.527 42.7334 162.485 42.7355C162.447 42.7341 162.409 42.7174 162.372 42.6854L162.048 42.4026C162.011 42.3706 161.991 42.3396 161.986 42.3095C161.984 42.2825 161.993 42.2449 162.012 42.1967C162.065 42.0759 162.095 41.9376 162.101 41.782C162.111 41.6295 162.079 41.469 162.004 41.3005C161.936 41.1316 161.803 40.9609 161.605 40.7884C161.316 40.5359 161.01 40.4076 160.687 40.4033C160.368 40.4022 160.036 40.5706 159.692 40.9085C159.385 41.2142 159.088 41.5295 158.803 41.8543C158.485 42.2213 158.342 42.561 158.375 42.8734C158.411 43.1823 158.574 43.463 158.864 43.7154C159.058 43.8848 159.262 44.0013 159.475 44.065C159.696 44.1284 159.918 44.1258 160.143 44.0573C160.367 43.9887 160.584 43.8429 160.794 43.6197L161.004 43.3966L160.179 42.6776C160.143 42.6457 160.122 42.6079 160.116 42.5642C160.117 42.5203 160.136 42.4788 160.173 42.4398L160.333 42.2698C160.369 42.2309 160.409 42.2103 160.451 42.2083C160.499 42.2058 160.542 42.2206 160.579 42.2525L161.821 43.3358C161.861 43.371 161.881 43.4105 161.879 43.4545C161.881 43.4949 161.864 43.5346 161.827 43.5736L161.348 44.0836C161.075 44.3741 160.775 44.573 160.447 44.6805C160.123 44.7911 159.787 44.8044 159.439 44.7203C159.095 44.6327 158.76 44.4467 158.434 44.1623Z" fill="white"/>
<path d="M163.897 48.9386C163.861 48.8994 163.844 48.8596 163.846 48.8192C163.852 48.7756 163.873 48.7379 163.91 48.7062L167.516 45.5956C167.556 45.5607 167.597 45.5444 167.639 45.5467C167.685 45.5458 167.726 45.565 167.762 45.6041L168.974 46.9071C169.348 47.3094 169.547 47.7122 169.57 48.1155C169.594 48.5188 169.414 48.8856 169.031 49.2158C168.748 49.4604 168.451 49.591 168.142 49.6078C167.839 49.6249 167.544 49.5462 167.255 49.3715L166.551 51.461C166.539 51.4908 166.524 51.5136 166.506 51.5295C166.476 51.5549 166.439 51.5646 166.394 51.5588C166.352 51.5565 166.317 51.5411 166.291 51.5126L166.052 51.2562C165.996 51.1957 165.971 51.1369 165.978 51.0799C165.985 51.0228 165.995 50.9693 166.008 50.9194L166.69 48.9351L165.821 48.0005L164.397 49.2295C164.36 49.2613 164.317 49.2758 164.268 49.2731C164.226 49.2708 164.187 49.2501 164.151 49.2109L163.897 48.9386ZM166.291 47.5956L167.11 48.4768C167.358 48.7438 167.601 48.894 167.837 48.9272C168.078 48.9573 168.312 48.8739 168.54 48.6771C168.765 48.4833 168.875 48.2698 168.87 48.0365C168.868 47.8067 168.742 47.5565 168.49 47.2859L167.671 46.4048L166.291 47.5956Z" fill="white"/>
<path d="M169.39 54.8409C169.367 54.8099 169.358 54.7744 169.365 54.7344C169.371 54.6944 169.39 54.6633 169.422 54.641C169.442 54.627 169.465 54.6136 169.492 54.6008L174.434 53.3377C174.486 53.3253 174.534 53.3243 174.578 53.3347C174.622 53.3452 174.665 53.3775 174.706 53.4318L175.003 53.8273C175.041 53.8777 175.059 53.9249 175.055 53.9687C175.055 54.0165 175.041 54.0621 175.012 54.1054L172.238 58.2477C172.22 58.2722 172.201 58.2914 172.181 58.3054C172.149 58.3277 172.113 58.3355 172.071 58.329C172.03 58.3225 171.998 58.3037 171.974 58.2727L171.751 57.976C171.716 57.9295 171.702 57.8862 171.708 57.8462C171.717 57.8101 171.729 57.7812 171.743 57.7595L172.348 56.8458L170.912 54.938L169.824 55.2119C169.802 55.222 169.77 55.2237 169.728 55.2172C169.687 55.2107 169.649 55.1841 169.614 55.1376L169.39 54.8409ZM171.551 54.747L172.734 56.3175L174.259 54.0477L171.551 54.747Z" fill="white"/>
<path d="M174.923 62.2723C174.898 62.2304 174.89 62.1878 174.898 62.1445C174.913 62.103 174.942 62.0706 174.985 62.0473L179.163 59.7629C179.21 59.7373 179.254 59.73 179.294 59.7412C179.341 59.7542 179.377 59.7816 179.402 59.8235L179.587 60.1376C179.616 60.1879 179.626 60.2326 179.615 60.2717C179.604 60.3108 179.592 60.3371 179.577 60.3507L177.777 63.0958L181.15 63.0207C181.172 63.0198 181.202 63.0228 181.24 63.0297C181.281 63.0409 181.316 63.0716 181.345 63.1218L181.527 63.4297C181.554 63.4757 181.56 63.5195 181.545 63.561C181.537 63.6043 181.509 63.6388 181.462 63.6644L177.284 65.9488C177.241 65.9721 177.196 65.9773 177.149 65.9643C177.109 65.9531 177.075 65.9245 177.048 65.8785L176.866 65.5706C176.842 65.5287 176.834 65.4861 176.842 65.4428C176.857 65.4014 176.886 65.369 176.928 65.3457L180.076 63.6245L177.372 63.7158C177.32 63.7223 177.271 63.7158 177.226 63.6963C177.184 63.6745 177.149 63.6384 177.119 63.5882L177.005 63.3934C176.973 63.339 176.957 63.2892 176.959 63.244C176.967 63.2007 176.987 63.1569 177.017 63.1126L178.485 60.923L175.336 62.6442C175.294 62.6675 175.249 62.6726 175.202 62.6596C175.161 62.6485 175.129 62.622 175.104 62.5801L174.923 62.2723Z" fill="white"/>
<path d="M149.132 237.725L153.622 245.649L161.866 249.99L153.622 254.332L149.132 262.256L144.625 254.332L136.399 249.99L144.625 245.649L149.132 237.725Z" fill="#0090FF" stroke="white" stroke-miterlimit="10"/>
<path d="M65.5427 237.725L70.0497 245.649L78.293 249.99L70.0497 254.332L65.5427 262.256L61.0524 254.332L52.8091 249.99L61.0524 245.649L65.5427 237.725Z" fill="#0090FF" stroke="white" stroke-miterlimit="10"/>
<path d="M107.329 244.987L111.836 252.927L120.079 257.253L111.836 261.594L107.329 269.518L102.839 261.594L94.6122 257.253L102.839 252.927L107.329 244.987Z" fill="#0090FF" stroke="white" stroke-miterlimit="10"/>
<path d="M158.086 105.935C161.397 104.361 162.733 100.454 161.07 97.2091C159.407 93.9642 155.376 92.6097 152.065 94.1837C148.754 95.7577 147.418 99.6642 149.081 102.909C150.744 106.154 154.775 107.509 158.086 105.935Z" fill="#FF7E7E" stroke="white" stroke-width="0.75" stroke-miterlimit="10"/>
<path d="M149.048 103.841L148.579 111.781C148.564 111.943 148.595 112.107 148.668 112.254C148.74 112.401 148.852 112.527 148.992 112.619C149.132 112.711 149.294 112.766 149.463 112.777C149.632 112.789 149.801 112.757 149.953 112.685L168.685 103.792C168.832 103.715 168.957 103.603 169.047 103.467C169.138 103.33 169.19 103.174 169.2 103.012C169.21 102.851 169.177 102.689 169.105 102.544C169.032 102.398 168.922 102.272 168.785 102.178L161.932 97.7081C161.79 97.6288 161.628 97.587 161.463 97.587C161.299 97.587 161.137 97.6288 160.994 97.7081L149.584 103.131C149.439 103.194 149.313 103.293 149.219 103.417C149.125 103.542 149.066 103.688 149.048 103.841V103.841Z" fill="#FF7E7E" stroke="white" stroke-width="0.75" stroke-miterlimit="10"/>
<path d="M148.579 111.781L147.674 121.022" stroke="white" stroke-width="0.75" stroke-linecap="round" stroke-linejoin="round"/>
<path d="M168.819 102.162L176.995 107.083" stroke="white" stroke-width="0.75" stroke-linecap="round" stroke-linejoin="round"/>
<path d="M153.807 105.987L156.069 115.051" stroke="white" stroke-width="0.75" stroke-linecap="round" stroke-linejoin="round"/>
<path d="M160.994 102.582L167.093 109.823" stroke="white" stroke-width="0.75" stroke-linecap="round" stroke-linejoin="round"/>
<path d="M161.799 130.856L166.691 128.242L169.338 123.497L172.069 128.21L176.995 130.76L172.103 133.374L169.455 138.135L166.724 133.422L161.799 130.856Z" stroke="white" stroke-width="0.75" stroke-miterlimit="10"/>
<path d="M41.4662 94.2383L46.8612 92.7858L50.5975 88.7673L52.1054 93.9639L56.2774 97.5628L50.8823 98.9991L47.146 103.034L45.6549 97.8371L41.4662 94.2383Z" fill="#001D33" stroke="white" stroke-width="0.75" stroke-miterlimit="10"/>
<path d="M171.386 269.316C171.415 269.279 171.447 269.258 171.483 269.252C171.523 269.249 171.56 269.26 171.594 269.285L174.975 271.696C175.01 271.721 175.029 271.751 175.035 271.786C175.043 271.823 175.033 271.86 175.005 271.897L174.8 272.164C174.774 272.197 174.741 272.216 174.702 272.218C174.663 272.227 174.626 272.219 174.592 272.195L171.211 269.783C171.177 269.759 171.156 269.726 171.15 269.685C171.145 269.65 171.155 269.616 171.181 269.583L171.386 269.316Z" fill="white"/>
<path d="M169.469 271.846C169.5 271.811 169.533 271.792 169.57 271.789C169.61 271.789 169.646 271.802 169.679 271.829L172.891 274.45C172.927 274.48 172.947 274.512 172.95 274.547C172.956 274.585 172.944 274.621 172.913 274.656L172.72 274.876C172.686 274.914 172.651 274.934 172.615 274.937C172.582 274.943 172.559 274.943 172.546 274.939L168.645 274.474L171.105 276.481C171.141 276.511 171.16 276.543 171.163 276.578C171.169 276.616 171.157 276.652 171.126 276.687L170.925 276.916C170.894 276.951 170.859 276.969 170.819 276.969C170.78 276.975 170.742 276.964 170.706 276.934L167.499 274.317C167.466 274.29 167.448 274.256 167.444 274.215C167.438 274.178 167.449 274.143 167.477 274.111L167.678 273.882C167.709 273.847 167.743 273.828 167.779 273.825C167.813 273.825 167.836 273.825 167.848 273.824L171.72 274.273L169.28 272.282C169.247 272.255 169.229 272.221 169.226 272.18C169.223 272.145 169.237 272.11 169.268 272.075L169.469 271.846Z" fill="white"/>
<path d="M164.214 277.732C164.248 277.7 164.284 277.684 164.32 277.685C164.36 277.688 164.395 277.705 164.425 277.735L167.373 280.656C167.406 280.689 167.422 280.723 167.422 280.758C167.424 280.796 167.409 280.831 167.375 280.863L166.323 281.851C166.005 282.15 165.702 282.344 165.414 282.434C165.126 282.525 164.846 282.521 164.572 282.423C164.302 282.328 164.033 282.151 163.765 281.892C163.627 281.76 163.506 281.644 163.404 281.543C163.302 281.441 163.186 281.323 163.056 281.189C162.786 280.909 162.603 280.636 162.509 280.37C162.415 280.11 162.419 279.845 162.52 279.576C162.621 279.313 162.828 279.034 163.139 278.741L164.214 277.732ZM164.251 278.439L163.546 279.1C163.333 279.3 163.192 279.488 163.123 279.663C163.053 279.839 163.054 280.016 163.125 280.193C163.192 280.373 163.329 280.568 163.533 280.777C163.617 280.872 163.692 280.952 163.759 281.018C163.828 281.086 163.896 281.154 163.962 281.219C164.031 281.288 164.112 281.362 164.206 281.443C164.504 281.726 164.79 281.873 165.065 281.883C165.342 281.895 165.641 281.751 165.962 281.449L166.643 280.809L164.251 278.439Z" fill="white"/>
<path d="M158.449 282.906C158.485 282.876 158.521 282.863 158.558 282.866C158.597 282.872 158.631 282.89 158.659 282.922L161.417 286.028C161.445 286.06 161.457 286.093 161.455 286.128C161.455 286.167 161.437 286.201 161.401 286.23L161.142 286.445C161.109 286.472 161.073 286.483 161.034 286.477C160.994 286.476 160.96 286.461 160.932 286.429L158.174 283.323C158.146 283.291 158.134 283.255 158.137 283.214C158.139 283.179 158.157 283.148 158.19 283.121L158.449 282.906Z" fill="white"/>
<path d="M155.047 285.613C155.099 285.576 155.149 285.558 155.199 285.56C155.244 285.563 155.291 285.579 155.34 285.607L159.002 288.005C159.025 288.02 159.043 288.036 159.056 288.053C159.076 288.08 159.084 288.111 159.079 288.145C159.074 288.18 159.058 288.208 159.03 288.227L158.762 288.42C158.72 288.45 158.68 288.46 158.641 288.452C158.602 288.449 158.574 288.44 158.557 288.426L155.331 286.309L156.533 289.878C156.539 289.899 156.539 289.928 156.534 289.963C156.532 290.001 156.51 290.035 156.469 290.064L156.2 290.257C156.172 290.277 156.141 290.284 156.104 290.279C156.065 290.276 156.034 290.261 156.013 290.234C156 290.218 155.99 290.197 155.981 290.172L154.627 286.118C154.61 286.068 154.607 286.02 154.62 285.974C154.629 285.931 154.66 285.891 154.712 285.854L155.047 285.613Z" fill="white"/>
<path d="M149.899 289.186C149.939 289.161 149.976 289.152 150.012 289.16C150.05 289.171 150.081 289.194 150.105 289.229L152.435 292.666C152.459 292.701 152.467 292.736 152.46 292.771C152.455 292.809 152.433 292.84 152.393 292.865L152.108 293.044C152.072 293.067 152.035 293.072 151.997 293.061C151.958 293.056 151.926 293.036 151.903 293.001L149.573 289.563C149.549 289.528 149.541 289.491 149.55 289.45C149.557 289.416 149.578 289.387 149.614 289.365L149.899 289.186Z" fill="white"/>
<path d="M147.247 290.847C147.288 290.825 147.327 290.819 147.362 290.829C147.399 290.842 147.428 290.867 147.45 290.904L149.545 294.486C149.568 294.527 149.575 294.564 149.566 294.598C149.558 294.636 149.534 294.666 149.493 294.688L148.224 295.374C147.84 295.581 147.498 295.692 147.196 295.705C146.895 295.719 146.625 295.643 146.387 295.479C146.15 295.318 145.936 295.077 145.744 294.757C145.644 294.595 145.558 294.451 145.485 294.327C145.413 294.203 145.331 294.059 145.241 293.896C145.051 293.555 144.946 293.244 144.923 292.963C144.899 292.687 144.971 292.432 145.138 292.197C145.303 291.968 145.574 291.752 145.95 291.548L147.247 290.847ZM147.101 291.54L146.251 291.999C145.994 292.139 145.809 292.284 145.697 292.436C145.585 292.588 145.54 292.759 145.563 292.949C145.582 293.141 145.663 293.364 145.807 293.619C145.864 293.732 145.916 293.83 145.963 293.91C146.012 293.994 146.06 294.076 146.107 294.157C146.156 294.241 146.216 294.334 146.285 294.436C146.5 294.787 146.739 295.002 147.001 295.082C147.266 295.165 147.592 295.102 147.979 294.892L148.801 294.448L147.101 291.54Z" fill="white"/>
<path d="M138.796 295.118C139.125 294.979 139.435 294.918 139.726 294.934C140.013 294.951 140.275 295.051 140.511 295.232C140.744 295.42 140.946 295.701 141.115 296.077L142.18 298.434C142.199 298.477 142.202 298.515 142.189 298.548C142.178 298.585 142.151 298.612 142.107 298.631L141.808 298.757C141.765 298.775 141.725 298.775 141.69 298.758C141.652 298.746 141.623 298.719 141.604 298.677L140.535 296.307C140.363 295.928 140.147 295.685 139.884 295.579C139.622 295.473 139.334 295.485 139.021 295.617C138.712 295.747 138.508 295.941 138.41 296.199C138.309 296.459 138.343 296.778 138.514 297.157L139.584 299.527C139.603 299.569 139.606 299.607 139.593 299.64C139.578 299.679 139.551 299.706 139.512 299.723L139.206 299.851C139.167 299.868 139.13 299.867 139.094 299.85C139.056 299.839 139.028 299.811 139.008 299.769L137.944 297.411C137.775 297.036 137.7 296.701 137.721 296.406C137.74 296.117 137.84 295.865 138.023 295.65C138.205 295.435 138.463 295.258 138.796 295.118Z" fill="white"/>
<path d="M133.301 297.391C133.334 297.381 133.366 297.384 133.398 297.4C133.431 297.417 133.452 297.441 133.463 297.473C133.47 297.493 133.475 297.516 133.479 297.541L133.283 301.904C133.281 301.95 133.269 301.989 133.249 302.022C133.229 302.054 133.19 302.08 133.134 302.097L132.721 302.226C132.669 302.242 132.624 302.243 132.588 302.227C132.548 302.213 132.513 302.189 132.483 302.154L129.678 298.725C129.662 298.704 129.65 298.683 129.644 298.663C129.633 298.631 129.636 298.599 129.652 298.567C129.668 298.536 129.692 298.515 129.724 298.505L130.034 298.409C130.082 298.393 130.123 298.394 130.155 298.411C130.183 298.428 130.205 298.446 130.22 298.464L130.84 299.215L132.829 298.595L132.875 297.637C132.872 297.615 132.879 297.589 132.895 297.557C132.911 297.525 132.944 297.502 132.992 297.487L133.301 297.391ZM132.827 299.168L131.19 299.678L132.726 301.56L132.827 299.168Z" fill="white"/>
<path d="M125.507 299.72C125.552 299.711 125.59 299.715 125.621 299.735C125.652 299.758 125.673 299.79 125.683 299.831L126.635 303.874C126.644 303.915 126.64 303.951 126.621 303.981C126.603 304.015 126.571 304.037 126.525 304.047L126.197 304.119C126.155 304.128 126.119 304.121 126.087 304.097C126.056 304.078 126.036 304.048 126.027 304.006L125.168 300.36L123.102 300.811C123.057 300.821 123.018 300.814 122.986 300.791C122.956 300.772 122.935 300.739 122.925 300.694L122.866 300.447C122.857 300.406 122.861 300.368 122.879 300.334C122.898 300.303 122.93 300.283 122.975 300.273L125.507 299.72Z" fill="white"/>
<path d="M115.119 301.471C115.505 301.434 115.833 301.475 116.104 301.593C116.371 301.712 116.583 301.893 116.739 302.136C116.896 302.379 116.999 302.67 117.047 303.008C117.069 303.179 117.091 303.364 117.111 303.561C117.132 303.758 117.15 303.946 117.164 304.127C117.187 304.468 117.147 304.772 117.044 305.04C116.941 305.308 116.771 305.526 116.534 305.692C116.293 305.859 115.98 305.961 115.594 305.998C115.304 306.025 115.046 306.01 114.82 305.951C114.593 305.892 114.402 305.802 114.245 305.682C114.084 305.562 113.957 305.422 113.864 305.261C113.771 305.105 113.712 304.939 113.685 304.764C113.677 304.727 113.686 304.694 113.713 304.666C113.735 304.639 113.765 304.623 113.803 304.619L114.149 304.586C114.187 304.583 114.222 304.59 114.253 304.608C114.28 304.627 114.303 304.663 114.322 304.716C114.427 305.036 114.585 305.247 114.795 305.35C115.001 305.453 115.25 305.491 115.544 305.463C115.88 305.431 116.136 305.309 116.313 305.097C116.49 304.89 116.565 304.576 116.538 304.155C116.515 303.81 116.478 303.458 116.427 303.099C116.367 302.681 116.228 302.386 116.01 302.212C115.793 302.042 115.517 301.973 115.181 302.005C114.888 302.033 114.651 302.117 114.471 302.257C114.286 302.397 114.175 302.634 114.138 302.968C114.131 303.024 114.117 303.063 114.094 303.087C114.066 303.111 114.034 303.124 113.996 303.128L113.65 303.161C113.612 303.164 113.58 303.155 113.552 303.132C113.52 303.11 113.504 303.08 113.504 303.041C113.494 302.865 113.518 302.689 113.576 302.514C113.634 302.343 113.73 302.184 113.863 302.036C113.991 301.888 114.16 301.764 114.37 301.663C114.58 301.563 114.83 301.499 115.119 301.471Z" fill="white"/>
<path d="M107.508 302.027C107.868 302.021 108.178 302.078 108.439 302.196C108.699 302.319 108.901 302.508 109.046 302.764C109.19 303.025 109.274 303.351 109.298 303.745C109.305 303.931 109.311 304.109 109.314 304.278C109.317 304.451 109.318 304.631 109.317 304.818C109.307 305.207 109.232 305.532 109.092 305.793C108.949 306.058 108.749 306.256 108.493 306.387C108.233 306.522 107.932 306.593 107.589 306.599C107.242 306.604 106.938 306.544 106.677 306.417C106.413 306.294 106.204 306.102 106.051 305.842C105.899 305.587 105.813 305.264 105.793 304.875C105.781 304.689 105.774 304.509 105.771 304.336C105.768 304.166 105.769 303.988 105.774 303.802C105.78 303.408 105.852 303.079 105.992 302.814C106.127 302.554 106.322 302.358 106.578 302.227C106.834 302.1 107.144 302.033 107.508 302.027ZM107.518 302.567C107.192 302.572 106.929 302.674 106.729 302.872C106.525 303.07 106.419 303.387 106.41 303.823C106.404 304.014 106.403 304.183 106.406 304.332C106.409 304.484 106.416 304.653 106.427 304.839C106.441 305.131 106.5 305.367 106.605 305.548C106.706 305.728 106.839 305.859 107.006 305.941C107.172 306.023 107.363 306.062 107.579 306.059C107.787 306.055 107.972 306.01 108.136 305.923C108.299 305.835 108.43 305.7 108.529 305.516C108.623 305.333 108.674 305.095 108.681 304.803C108.682 304.616 108.681 304.447 108.679 304.295C108.676 304.146 108.671 303.977 108.663 303.787C108.639 303.351 108.521 303.038 108.31 302.846C108.1 302.655 107.835 302.562 107.518 302.567Z" fill="white"/>
<path d="M101.037 302.119C101.083 302.123 101.118 302.139 101.14 302.167C101.163 302.199 101.171 302.236 101.167 302.278L100.739 306.404C100.734 306.45 100.718 306.485 100.69 306.508C100.661 306.535 100.624 306.546 100.578 306.542L100.287 306.514C100.236 306.509 100.199 306.493 100.177 306.465C100.154 306.442 100.141 306.424 100.138 306.411L98.3728 302.988L98.0448 306.147C98.04 306.193 98.0236 306.228 97.9957 306.251C97.9673 306.278 97.9299 306.289 97.8836 306.285L97.58 306.256C97.5336 306.251 97.4993 306.233 97.4771 306.201C97.4502 306.173 97.4392 306.136 97.444 306.09L97.8717 301.97C97.8761 301.928 97.8946 301.893 97.9271 301.867C97.9555 301.84 97.9907 301.828 98.0329 301.832L98.3364 301.861C98.3828 301.865 98.4173 301.881 98.44 301.909C98.4585 301.936 98.4715 301.955 98.479 301.964L100.241 305.355L100.566 302.221C100.571 302.178 100.589 302.144 100.622 302.117C100.65 302.095 100.687 302.085 100.733 302.09L101.037 302.119Z" fill="white"/>
<path d="M92.1323 301.051C92.1739 301.058 92.2069 301.077 92.231 301.108C92.2503 301.141 92.2557 301.179 92.2475 301.22L91.5202 304.882L92.7191 305.103C92.7608 305.111 92.7937 305.13 92.8179 305.16C92.8371 305.194 92.8426 305.232 92.8343 305.273L92.7824 305.535C92.7733 305.58 92.7538 305.613 92.7239 305.634C92.6889 305.657 92.6507 305.665 92.609 305.658L89.5991 305.103C89.5533 305.095 89.5208 305.074 89.5016 305.04C89.4774 305.01 89.4698 304.972 89.4789 304.926L89.5309 304.664C89.5391 304.623 89.5607 304.59 89.5956 304.567C89.6255 304.546 89.6634 304.54 89.7092 304.549L90.9019 304.769L91.6293 301.106C91.6375 301.065 91.6591 301.032 91.694 301.009C91.7239 300.988 91.7618 300.982 91.8076 300.991L92.1323 301.051Z" fill="white"/>
<path d="M86.4784 299.965C86.5233 299.977 86.5544 299.999 86.5715 300.03C86.5874 300.065 86.5893 300.103 86.577 300.144L85.3734 304.119C85.3598 304.163 85.3371 304.194 85.3052 304.212C85.2721 304.234 85.2331 304.238 85.1881 304.226L83.6924 303.812C83.2306 303.684 82.8974 303.476 82.6928 303.186C82.4882 302.897 82.4498 302.541 82.5776 302.119C82.6722 301.806 82.8293 301.573 83.0489 301.418C83.2632 301.266 83.5169 301.189 83.8099 301.186L83.3562 299.306C83.3513 299.278 83.3519 299.254 83.3581 299.234C83.3679 299.202 83.3908 299.177 83.4268 299.161C83.4587 299.143 83.491 299.139 83.5237 299.148L83.8179 299.229C83.8874 299.248 83.933 299.281 83.9546 299.326C83.9762 299.372 83.9938 299.416 84.0072 299.46L84.4279 301.252L85.5007 301.548L85.9762 299.978C85.9885 299.937 86.0133 299.907 86.0505 299.886C86.0824 299.868 86.1208 299.866 86.1657 299.878L86.4784 299.965ZM85.344 302.066L84.3325 301.786C84.026 301.701 83.7781 301.701 83.5888 301.785C83.3983 301.873 83.265 302.043 83.1888 302.294C83.1138 302.542 83.1323 302.751 83.2442 302.923C83.352 303.094 83.5612 303.222 83.8717 303.308L84.8832 303.587L85.344 302.066Z" fill="white"/>
<path d="M79.3061 297.872C79.35 297.887 79.3796 297.911 79.3946 297.943C79.4082 297.979 79.4075 298.017 79.3927 298.057L77.9331 301.945C77.9183 301.984 77.8944 302.012 77.8614 302.027C77.827 302.047 77.7879 302.049 77.7439 302.033L77.4261 301.923C77.3861 301.909 77.3593 301.884 77.3458 301.848C77.3267 301.814 77.3246 301.777 77.3395 301.738L78.799 297.85C78.8139 297.81 78.8405 297.782 78.8789 297.764C78.9118 297.748 78.9483 297.747 78.9883 297.761L79.3061 297.872Z" fill="white"/>
<path d="M76.2654 296.876C76.3083 296.894 76.3361 296.92 76.349 296.953C76.3602 296.99 76.3571 297.028 76.3397 297.066L74.635 300.843C74.6159 300.885 74.5894 300.913 74.5556 300.926C74.5201 300.943 74.4809 300.943 74.438 300.924L72.8379 300.244C72.5459 300.12 72.3302 299.971 72.1907 299.797C72.0456 299.625 71.9668 299.44 71.9542 299.242C71.9378 299.042 71.9748 298.841 72.0653 298.641C72.1366 298.483 72.2257 298.358 72.3324 298.265C72.4335 298.175 72.5395 298.11 72.6504 298.069C72.7596 298.033 72.8599 298.011 72.9513 298.004C72.8325 297.866 72.7521 297.69 72.7102 297.474C72.6643 297.257 72.6945 297.031 72.8006 296.796C72.8964 296.584 73.0329 296.41 73.2103 296.274C73.3877 296.138 73.5981 296.057 73.8415 296.032C74.0792 296.009 74.3402 296.058 74.6244 296.179L76.2654 296.876ZM75.616 297.158L74.4889 296.679C74.2358 296.572 74.0107 296.557 73.8135 296.634C73.6163 296.711 73.4734 296.848 73.3846 297.044C73.2924 297.248 73.2848 297.445 73.3619 297.634C73.4373 297.827 73.6015 297.977 73.8545 298.085L74.9816 298.564L75.616 297.158ZM74.7728 299.026L73.6982 298.57C73.4491 298.464 73.235 298.44 73.0561 298.497C72.8754 298.558 72.7406 298.687 72.6519 298.883C72.5631 299.08 72.5595 299.258 72.641 299.416C72.7225 299.575 72.8878 299.707 73.137 299.813L74.2115 300.27L74.7728 299.026Z" fill="white"/>
<path d="M67.8974 292.998C68.2105 293.167 68.4487 293.368 68.6119 293.601C68.7714 293.831 68.8474 294.091 68.8399 294.381C68.8266 294.672 68.7162 294.995 68.5087 295.35L67.2062 297.578C67.1827 297.618 67.1533 297.643 67.1181 297.653C67.0808 297.666 67.0416 297.662 67.0006 297.64L66.7155 297.486C66.6745 297.464 66.6503 297.434 66.6429 297.396C66.6296 297.36 66.6347 297.322 66.6583 297.282L67.9672 295.043C68.1768 294.685 68.2461 294.373 68.1752 294.108C68.1043 293.844 67.9197 293.631 67.6215 293.47C67.327 293.31 67.0438 293.271 66.7718 293.35C66.4961 293.427 66.2535 293.645 66.0439 294.003L64.7349 296.242C64.7114 296.282 64.682 296.307 64.6468 296.317C64.6058 296.328 64.5666 296.324 64.5293 296.304L64.2386 296.147C64.2013 296.127 64.179 296.098 64.1716 296.06C64.1583 296.024 64.1635 295.986 64.187 295.946L65.4895 293.718C65.697 293.363 65.9285 293.106 66.1841 292.945C66.4339 292.787 66.7026 292.713 66.9905 292.724C67.2783 292.735 67.5806 292.827 67.8974 292.998Z" fill="white"/>
<path d="M61.3506 289.319C61.3858 289.342 61.4082 289.373 61.418 289.41C61.4218 289.448 61.4113 289.484 61.3865 289.518L59.2023 292.545L60.2148 293.223C60.2499 293.247 60.2724 293.277 60.2821 293.314C60.2859 293.352 60.2754 293.389 60.2506 293.423L60.0946 293.639C60.0674 293.677 60.0358 293.699 59.9998 293.705C59.9579 293.713 59.9193 293.705 59.8842 293.681L57.3425 291.978C57.3038 291.952 57.2826 291.92 57.2789 291.882C57.2691 291.845 57.2779 291.808 57.3051 291.77L57.4611 291.554C57.4859 291.519 57.5192 291.499 57.5612 291.491C57.5971 291.485 57.6344 291.494 57.6731 291.52L58.6803 292.195L60.8644 289.168C60.8892 289.134 60.9226 289.113 60.9645 289.106C61.0005 289.099 61.0378 289.109 61.0764 289.135L61.3506 289.319Z" fill="white"/>
<path d="M55.6963 285.348C55.9775 285.572 56.179 285.81 56.3007 286.063C56.4197 286.32 56.4495 286.589 56.3902 286.871C56.3282 287.156 56.1754 287.453 55.9318 287.761C55.8136 287.905 55.6993 288.04 55.5889 288.168C55.4756 288.299 55.3566 288.434 55.2318 288.572C54.9645 288.856 54.6904 289.051 54.4095 289.157C54.1225 289.263 53.8367 289.284 53.552 289.22C53.2613 289.156 52.982 289.017 52.714 288.804C52.4427 288.588 52.249 288.351 52.1328 288.091C52.0105 287.832 51.9771 287.557 52.0325 287.267C52.0852 286.979 52.2336 286.684 52.4777 286.382C52.5926 286.236 52.7066 286.097 52.8198 285.966C52.9303 285.838 53.0496 285.706 53.1777 285.571C53.4444 285.281 53.7196 285.082 54.0033 284.973C54.2809 284.865 54.5621 284.843 54.8467 284.907C55.1286 284.975 55.4118 285.122 55.6963 285.348ZM55.3442 285.756C55.0895 285.553 54.8192 285.463 54.5334 285.484C54.2443 285.502 53.9509 285.67 53.6532 285.99C53.5223 286.128 53.4086 286.254 53.3119 286.366C53.2125 286.481 53.1054 286.612 52.9905 286.758C52.8066 286.984 52.6949 287.197 52.6556 287.398C52.613 287.596 52.6285 287.778 52.7023 287.945C52.7761 288.111 52.8974 288.262 53.0661 288.396C53.2282 288.525 53.4014 288.609 53.5856 288.647C53.7699 288.686 53.9611 288.668 54.1592 288.593C54.354 288.516 54.5517 288.371 54.7521 288.158C54.877 288.02 54.9891 287.894 55.0885 287.778C55.1851 287.666 55.2939 287.537 55.4149 287.39C55.6861 287.05 55.8041 286.742 55.769 286.466C55.734 286.19 55.5924 285.953 55.3442 285.756Z" fill="white"/>
<path d="M50.8042 281.447C50.8379 281.479 50.8548 281.513 50.855 281.548C50.8521 281.587 50.8355 281.62 50.8051 281.65L47.8324 284.54C47.799 284.573 47.764 284.589 47.7274 284.589C47.6878 284.593 47.6511 284.578 47.6174 284.546L46.4965 283.476C46.1504 283.146 45.9567 282.806 45.9155 282.457C45.8742 282.108 46.0114 281.78 46.327 281.473C46.5607 281.246 46.8116 281.117 47.0798 281.086C47.3418 281.055 47.6028 281.108 47.8626 281.245L48.3661 279.393C48.3751 279.366 48.3872 279.346 48.4024 279.331C48.4266 279.307 48.4586 279.297 48.4983 279.3C48.5348 279.299 48.5654 279.311 48.5899 279.334L48.8104 279.545C48.8625 279.595 48.8871 279.644 48.8843 279.694C48.8815 279.744 48.8756 279.791 48.8666 279.835L48.3764 281.595L49.1804 282.362L50.3549 281.22C50.3853 281.191 50.4218 281.176 50.4645 281.176C50.5011 281.176 50.5362 281.192 50.5699 281.224L50.8042 281.447ZM48.7934 282.739L48.0354 282.015C47.8057 281.796 47.5872 281.678 47.3798 281.662C47.1693 281.648 46.97 281.733 46.7818 281.916C46.5967 282.096 46.5122 282.287 46.5284 282.489C46.5416 282.689 46.6645 282.9 46.8973 283.122L47.6553 283.845L48.7934 282.739Z" fill="white"/>
<path d="M44.6582 275.249C44.9015 275.526 45.063 275.793 45.1427 276.05C45.2192 276.31 45.2333 276.547 45.185 276.761C45.1307 276.974 45.0276 277.149 44.8758 277.283C44.8496 277.305 44.8182 277.314 44.7818 277.311C44.7392 277.307 44.7054 277.291 44.6802 277.263L44.4663 277.02C44.4327 276.982 44.4174 276.945 44.4203 276.91C44.4232 276.875 44.435 276.843 44.4556 276.815C44.5204 276.735 44.5655 276.633 44.5911 276.508C44.6106 276.383 44.5976 276.244 44.5522 276.089C44.5008 275.935 44.3967 275.769 44.2401 275.591C43.9997 275.317 43.7743 275.157 43.5641 275.11C43.3478 275.063 43.156 275.108 42.9887 275.244C42.874 275.338 42.8129 275.448 42.8055 275.574C42.7921 275.7 42.8191 275.855 42.8863 276.04C42.9536 276.226 43.0523 276.456 43.1825 276.732C43.3178 277.021 43.4115 277.275 43.4637 277.494C43.516 277.714 43.515 277.911 43.4608 278.086C43.4037 278.258 43.2818 278.421 43.0948 278.573C42.9178 278.718 42.7198 278.8 42.501 278.821C42.2789 278.843 42.0513 278.803 41.8183 278.698C41.5826 278.59 41.3556 278.412 41.1375 278.164C40.9641 277.967 40.841 277.773 40.7681 277.581C40.6892 277.389 40.6523 277.206 40.6574 277.033C40.6593 276.862 40.6903 276.708 40.7505 276.572C40.8074 276.438 40.8837 276.329 40.9793 276.246C41.0022 276.227 41.0322 276.216 41.0691 276.213C41.1028 276.213 41.135 276.23 41.1657 276.265L41.388 276.518C41.4076 276.54 41.422 276.57 41.4313 276.606C41.4377 276.639 41.4285 276.676 41.4036 276.718C41.2859 276.847 41.2371 277.013 41.2571 277.215C41.2772 277.417 41.3767 277.62 41.5556 277.823C41.7374 278.03 41.9266 278.164 42.1232 278.228C42.317 278.288 42.5009 278.247 42.6747 278.105C42.7862 278.014 42.8531 277.908 42.8754 277.786C42.8944 277.667 42.8744 277.519 42.8155 277.343C42.7566 277.167 42.6661 276.949 42.5438 276.689C42.3923 276.375 42.2862 276.104 42.2256 275.875C42.1617 275.649 42.1568 275.448 42.211 275.273C42.2592 275.097 42.3767 274.933 42.5637 274.78C42.7703 274.612 42.9935 274.52 43.2333 274.504C43.4699 274.491 43.7114 274.548 43.9579 274.674C44.1983 274.8 44.4318 274.992 44.6582 275.249Z" fill="white"/>
<defs>
<linearGradient id="paint0_linear_1299_4230" x1="105.536" y1="312.769" x2="105.536" y2="11.1578" gradientUnits="userSpaceOnUse">
<stop stop-color="#0090FF"/>
<stop offset="0.26" stop-color="#003F6F"/>
<stop offset="0.37" stop-color="#001D33"/>
</linearGradient>
</defs>
</svg>
