<svg width="225" height="347" viewBox="0 0 225 347" fill="none" xmlns="http://www.w3.org/2000/svg">
<path d="M224.993 108.355C224.993 107.682 224.993 107.008 224.993 106.335C224.993 47.8973 174.716 0.539307 112.702 0.539307C51.0112 0.539307 0.966734 47.4141 0.429199 105.403V226.853C0.429199 227.026 0.429199 227.198 0.429199 227.371V238.693C0.429199 239.366 0.429199 240.039 0.429199 240.712C0.429199 299.133 50.7067 346.508 112.72 346.508C174.411 346.508 224.456 299.633 224.993 241.627V120.177C225.002 120.01 225.002 119.843 224.993 119.676V108.355Z" fill="#929AB7"/>
<path d="M112.724 334.789C85.7595 334.762 59.9078 324.432 40.8412 306.067C21.7746 287.702 11.0506 262.801 11.0221 236.829C11.0221 236.466 11.0221 236.104 11.0221 235.724V234.965V224.247C11.0221 224.023 11.0221 223.902 11.0221 223.798V110.581V109.338C11.4749 83.5737 22.4488 59.0184 41.5663 40.9928C60.6838 22.9672 86.405 12.9231 113.157 13.0366C139.909 13.1501 165.538 23.4122 184.489 41.5993C203.441 59.7864 214.19 84.4338 214.407 110.201C214.407 110.564 214.407 110.926 214.407 111.289V122.766C214.407 122.99 214.407 123.094 214.407 123.214V236.432V237.674C214.102 263.483 203.263 288.138 184.235 306.311C165.208 324.484 139.519 334.714 112.724 334.789Z" fill="url(#paint0_linear_1299_4477)"/>
<path d="M112.703 13.9837C139.192 14.0112 164.587 24.1589 183.318 42.2005C202.049 60.2421 212.584 84.7038 212.612 110.218C212.612 110.546 212.612 110.892 212.612 111.237C212.612 111.582 212.612 111.772 212.612 112.117V122.99V123.404V234.24V237.692C212.164 263 201.383 287.12 182.603 304.825C163.823 322.531 138.557 332.397 112.278 332.285C85.9994 332.174 60.8245 322.095 42.2067 304.231C23.5889 286.367 13.0276 262.157 12.8106 236.846C12.8106 236.501 12.8106 236.173 12.8106 235.828C12.8106 235.483 12.8106 235.275 12.8106 234.947V224.075C12.8188 223.931 12.8188 223.787 12.8106 223.643V112.79V109.338C13.0421 83.9651 23.6679 59.7067 42.3758 41.8421C61.0836 23.9776 86.3593 13.9528 112.703 13.9492V13.9837ZM112.703 10.4974C85.4137 10.4965 59.2291 20.8788 39.8492 39.3841C20.4694 57.8895 9.46332 83.0197 9.22705 109.304V223.747C9.22705 223.902 9.22705 224.057 9.22705 224.23V234.896C9.22705 235.534 9.22705 236.156 9.22705 236.794C9.44749 263.017 20.3867 288.101 39.6742 306.609C58.9617 325.117 85.0439 335.559 112.269 335.673C139.494 335.786 165.669 325.562 185.123 307.215C204.576 288.868 215.74 263.877 216.196 237.657V123.232C216.205 123.071 216.205 122.909 216.196 122.748V112.065C216.196 111.427 216.196 110.805 216.196 110.167C216.196 83.7282 205.292 58.3726 185.883 39.6777C166.475 20.9829 140.151 10.4802 112.703 10.4802V10.4974Z" fill="white"/>
<path d="M33.9764 73.5909C33.7725 73.9503 33.5351 74.2262 33.264 74.4185C32.9886 74.6085 32.6801 74.7042 32.3385 74.7057C31.9927 74.7048 31.6149 74.6076 31.2052 74.414C31.0135 74.3186 30.8316 74.2256 30.6595 74.135C30.4831 74.0422 30.3015 73.9439 30.1146 73.84C29.7284 73.6148 29.4448 73.3613 29.2639 73.0794C29.0812 72.791 28.9984 72.4839 29.0156 72.1581C29.031 71.8257 29.1358 71.4883 29.3301 71.1457C29.5268 70.799 29.7649 70.5317 30.0446 70.344C30.3224 70.1497 30.6366 70.0488 30.9873 70.0411C31.3337 70.0312 31.7084 70.1241 32.1114 70.3197C32.3054 70.4109 32.4907 70.5029 32.6671 70.5957C32.8392 70.6862 33.0175 70.7856 33.202 70.8936C33.5949 71.1169 33.8839 71.3706 34.0691 71.6547C34.2524 71.9324 34.3354 72.2341 34.3181 72.56C34.2966 72.8836 34.1827 73.2272 33.9764 73.5909ZM33.4279 73.3022C33.6126 72.9766 33.6635 72.6603 33.5808 72.3531C33.5004 72.0418 33.2434 71.7611 32.8099 71.5109C32.6211 71.4006 32.4514 71.3058 32.3008 71.2266C32.146 71.1451 31.9715 71.0587 31.7774 70.9676C31.4757 70.8198 31.2036 70.748 30.9611 70.7521C30.7209 70.752 30.5111 70.8118 30.3315 70.9315C30.1519 71.0511 30.0009 71.2187 29.8786 71.4344C29.7611 71.6416 29.6986 71.8503 29.6911 72.0605C29.6836 72.2707 29.7435 72.4752 29.8709 72.6741C30.0008 72.8687 30.2105 73.0504 30.5002 73.2193C30.6871 73.3232 30.8579 73.4158 31.0128 73.4974C31.1634 73.5766 31.3367 73.665 31.5327 73.7627C31.9854 73.979 32.3695 74.0356 32.6849 73.9325C33.0003 73.8295 33.248 73.6194 33.4279 73.3022Z" fill="white"/>
<path d="M37.8989 66.8275C37.8679 66.871 37.8318 66.8965 37.7906 66.904C37.7455 66.9088 37.7027 66.8977 37.6624 66.8706L33.7101 64.2244C33.6657 64.1947 33.6398 64.1598 33.6326 64.1199C33.6213 64.0773 33.6311 64.0343 33.6622 63.9908L34.6954 62.5447C35.0144 62.0982 35.3739 61.8162 35.7741 61.6986C36.1743 61.581 36.5842 61.6627 37.0038 61.9437C37.3145 62.1517 37.5137 62.3989 37.6013 62.6854C37.6877 62.9652 37.6761 63.2612 37.5664 63.5733L39.8285 63.7386C39.8612 63.7429 39.8876 63.7518 39.9078 63.7654C39.9401 63.787 39.9584 63.8197 39.9629 63.8636C39.9701 63.9035 39.9625 63.9393 39.9399 63.9709L39.7367 64.2553C39.6887 64.3225 39.6352 64.3597 39.5763 64.367C39.5174 64.3743 39.4614 64.3777 39.4081 64.3771L37.2568 64.2071L36.5158 65.2443L38.0773 66.2898C38.1177 66.3168 38.1421 66.3536 38.1506 66.4002C38.1578 66.4401 38.146 66.4818 38.1149 66.5253L37.8989 66.8275ZM36.0013 64.8998L36.7 63.9219C36.9117 63.6256 37.0072 63.3624 36.9866 63.1325C36.9619 62.8999 36.8245 62.6998 36.5743 62.5323C36.3282 62.3675 36.0883 62.3149 35.8548 62.3747C35.624 62.4305 35.4014 62.6085 35.1868 62.9088L34.4882 63.8867L36.0013 64.8998Z" fill="white"/>
<path d="M43.3111 59.4233C43.2757 59.4634 43.2371 59.4852 43.1953 59.4886C43.1496 59.4889 43.108 59.4737 43.0704 59.4429L39.3851 56.4272C39.3437 56.3933 39.3214 56.3562 39.3181 56.3159C39.3111 56.2724 39.3253 56.2307 39.3606 56.1906L40.6823 54.6921C40.9235 54.4186 41.1667 54.2347 41.4119 54.1403C41.6565 54.0392 41.8933 54.0132 42.122 54.0623C42.354 54.1077 42.5678 54.2105 42.7635 54.3706C42.9177 54.4968 43.0288 54.6317 43.0966 54.7751C43.1639 54.9117 43.2012 55.0458 43.2083 55.1772C43.2117 55.3056 43.2017 55.4198 43.1782 55.5198C43.3751 55.4361 43.6027 55.4058 43.861 55.4288C44.1224 55.4481 44.3679 55.5517 44.5974 55.7395C44.8044 55.9089 44.9542 56.1099 45.0468 56.3427C45.1395 56.5755 45.1581 56.8261 45.1027 57.0946C45.0467 57.3564 44.9013 57.6204 44.6666 57.8865L43.3111 59.4233ZM43.2158 58.6391L44.1467 57.5835C44.3558 57.3466 44.4507 57.1104 44.4316 56.875C44.4124 56.6396 44.3069 56.4435 44.1151 56.2864C43.9156 56.1233 43.6957 56.0531 43.4552 56.0761C43.211 56.0959 42.9844 56.2243 42.7753 56.4613L41.8444 57.5168L43.2158 58.6391ZM41.3929 57.1474L42.2804 56.1411C42.4863 55.9077 42.5877 55.6863 42.5847 55.4767C42.5779 55.264 42.4786 55.0791 42.2867 54.9221C42.0949 54.7651 41.8951 54.7052 41.6874 54.7424C41.4797 54.7796 41.2729 54.9148 41.0671 55.1482L40.1795 56.1545L41.3929 57.1474Z" fill="white"/>
<path d="M49.6162 52.5994C49.5782 52.637 49.5383 52.6559 49.4964 52.6563C49.451 52.6534 49.4107 52.6352 49.3755 52.6018L45.9201 49.3204C45.8849 49.2869 45.8671 49.2499 45.8667 49.2094C45.8628 49.1655 45.8798 49.1248 45.9178 49.0872L46.1926 48.8159C46.2272 48.7817 46.2671 48.7661 46.3125 48.7691C46.3579 48.7653 46.3981 48.7801 46.4334 48.8135L49.8887 52.0949C49.9239 52.1283 49.9418 52.1687 49.9422 52.216C49.9426 52.2566 49.9256 52.2939 49.891 52.3281L49.6162 52.5994Z" fill="white"/>
<path d="M53.2657 49.1162C53.229 49.1478 53.1879 49.164 53.1425 49.1646C53.0975 49.1585 53.0587 49.1376 53.026 49.1018L50.1402 45.9431L49.081 46.854C49.0442 46.8857 49.0031 46.9018 48.9578 46.9025C48.9128 46.8964 48.874 46.8754 48.8412 46.8396L48.6351 46.614C48.5991 46.5746 48.5823 46.5347 48.5848 46.4942C48.5876 46.447 48.6074 46.4076 48.6442 46.3759L51.3032 44.0891C51.3437 44.0543 51.3864 44.04 51.4314 44.0461C51.4768 44.0454 51.5174 44.0648 51.5534 44.1042L51.7596 44.3298C51.7923 44.3656 51.8072 44.4071 51.8044 44.4543C51.8019 44.4948 51.7805 44.5324 51.74 44.5672L50.6864 45.4734L53.5721 48.6321C53.6048 48.6679 53.6198 48.7094 53.6169 48.7566C53.6145 48.7971 53.5931 48.8347 53.5526 48.8695L53.2657 49.1162Z" fill="white"/>
<path d="M62.6229 41.9066C62.2475 42.1497 61.888 42.2842 61.5445 42.3099C61.2051 42.3329 60.8872 42.2638 60.591 42.1026C60.2947 41.9414 60.0278 41.7033 59.7901 41.3883C59.6719 41.2275 59.5474 41.0535 59.4166 40.8661C59.2858 40.6788 59.1626 40.4981 59.0471 40.324C58.8339 39.9932 58.7056 39.6653 58.6624 39.3402C58.6191 39.0151 58.6726 38.7055 58.8228 38.4114C58.977 38.1146 59.2419 37.8447 59.6173 37.6015C59.8988 37.4192 60.1721 37.2971 60.4372 37.2354C60.7022 37.1737 60.9486 37.1617 61.1764 37.1994C61.4083 37.2345 61.6166 37.3079 61.8014 37.4198C61.9833 37.5277 62.1369 37.6627 62.2619 37.8248C62.291 37.8581 62.2997 37.8959 62.2878 37.9383C62.28 37.9781 62.2578 38.0099 62.221 38.0337L61.8844 38.2517C61.8477 38.2755 61.8081 38.2867 61.7656 38.2852C61.7272 38.2812 61.6838 38.2572 61.6354 38.2133C61.3489 37.9473 61.0695 37.8186 60.797 37.8273C60.5286 37.8332 60.2516 37.9287 59.966 38.1137C59.6395 38.3252 59.4445 38.5847 59.3807 38.8923C59.3142 39.1959 59.4119 39.5523 59.6738 39.9614C59.8898 40.2962 60.1236 40.6311 60.3752 40.966C60.6698 41.354 60.977 41.5776 61.2968 41.6367C61.6138 41.6919 61.9355 41.6138 62.2619 41.4023C62.5475 41.2173 62.7439 41.0062 62.8508 40.769C62.9619 40.5292 62.9436 40.2314 62.7959 39.8755C62.7719 39.8158 62.7653 39.768 62.7758 39.7322C62.7905 39.6938 62.8162 39.6627 62.8529 39.6389L63.1895 39.4208C63.2262 39.3971 63.2652 39.3892 63.3064 39.3973C63.3516 39.4027 63.3847 39.4246 63.4057 39.4632C63.5144 39.6359 63.5877 39.8257 63.6256 40.0327C63.6607 40.2358 63.6514 40.4473 63.5976 40.6674C63.5479 40.8848 63.4434 41.1001 63.2841 41.3133C63.1248 41.5264 62.9044 41.7242 62.6229 41.9066Z" fill="white"/>
<path d="M70.7627 37.0072C70.3937 37.1932 70.0432 37.291 69.711 37.3005C69.3766 37.3058 69.067 37.2143 68.7822 37.0259C68.495 36.8333 68.2349 36.5427 68.0017 36.1541C67.8952 35.9684 67.7956 35.79 67.7028 35.6192C67.6076 35.444 67.5112 35.2614 67.4134 35.0712C67.2173 34.6694 67.1223 34.3011 67.1283 33.9661C67.1364 33.6246 67.238 33.3231 67.4332 33.0615C67.6304 32.7934 67.9049 32.5707 68.2565 32.3935C68.6125 32.2141 68.9589 32.1239 69.2957 32.1228C69.6344 32.1153 69.9517 32.2057 70.2476 32.394C70.5411 32.578 70.8011 32.8633 71.0276 33.2497C71.1384 33.4333 71.2413 33.6127 71.3365 33.7878C71.4293 33.9587 71.5224 34.1403 71.6158 34.3326C71.8186 34.7365 71.9182 35.1081 71.9144 35.4473C71.9127 35.7801 71.8143 36.0773 71.6191 36.3389C71.4215 36.5963 71.1361 36.819 70.7627 37.0072ZM70.4669 36.4625C70.8012 36.2941 71.0191 36.0591 71.1208 35.7575C71.2267 35.4538 71.1689 35.0776 70.9472 34.6288C70.8515 34.4322 70.763 34.2591 70.6818 34.1096C70.5983 33.9558 70.5011 33.7871 70.3903 33.6035C70.2215 33.3132 70.0351 33.1024 69.8311 32.9712C69.6315 32.8378 69.4238 32.7711 69.2081 32.771C68.9924 32.7709 68.7738 32.8266 68.5524 32.9382C68.3397 33.0454 68.1719 33.1844 68.049 33.3552C67.9261 33.5259 67.8624 33.7294 67.858 33.9656C67.8579 34.1996 67.9315 34.4673 68.0785 34.7686C68.1763 34.9588 68.267 35.1308 68.3505 35.2845C68.4317 35.4341 68.5267 35.6038 68.6355 35.7939C68.8919 36.2252 69.1798 36.4854 69.4993 36.5747C69.8187 36.664 70.1413 36.6266 70.4669 36.4625Z" fill="white"/>
<path d="M77.9178 33.4153C77.8721 33.4319 77.828 33.4324 77.7854 33.4169C77.7455 33.3951 77.7168 33.3616 77.6991 33.3163L75.9648 28.8815C75.9453 28.8317 75.944 28.7883 75.9608 28.7511C75.9804 28.7078 76.013 28.6779 76.0587 28.6613L76.4015 28.537C76.4563 28.5171 76.5028 28.5157 76.5408 28.5329C76.5789 28.5502 76.6037 28.567 76.6154 28.5835L79.1416 30.7999L79.5288 27.5264C79.5308 27.505 79.538 27.4766 79.5502 27.4411C79.567 27.404 79.6028 27.3755 79.6576 27.3556L79.9935 27.2337C80.0438 27.2155 80.0888 27.2172 80.1287 27.239C80.1713 27.2545 80.2023 27.2872 80.2218 27.337L81.9561 31.7718C81.9738 31.8171 81.9728 31.8614 81.9532 31.9047C81.9364 31.9418 81.9029 31.9695 81.8526 31.9877L81.5167 32.1096C81.471 32.1262 81.4269 32.1267 81.3843 32.1111C81.3444 32.0894 81.3157 32.0559 81.298 32.0106L79.9913 28.6692L79.7123 31.2986C79.7117 31.3505 79.6985 31.3966 79.6725 31.4371C79.6448 31.473 79.6036 31.5009 79.5487 31.5208L79.3362 31.5979C79.2768 31.6194 79.2244 31.6255 79.179 31.6162C79.1364 31.6006 79.0948 31.5743 79.0542 31.5373L77.0436 29.7387L78.3503 33.0801C78.368 33.1253 78.3671 33.1696 78.3475 33.2129C78.3307 33.25 78.2994 33.2769 78.2537 33.2935L77.9178 33.4153Z" fill="white"/>
<path d="M88.6654 29.6876C88.618 29.6981 88.5742 29.6929 88.5342 29.672C88.4978 29.6452 88.4739 29.6082 88.4626 29.5609L87.3519 24.9304C87.3394 24.8784 87.344 24.8351 87.3656 24.8004C87.3909 24.7599 87.4273 24.7344 87.4747 24.7238L87.8307 24.6446C87.8876 24.6319 87.9337 24.6366 87.969 24.6586C88.0043 24.6806 88.0265 24.7006 88.0358 24.7184L90.2321 27.2474L91.061 24.0452C91.066 24.0241 91.0769 23.9968 91.0938 23.9632C91.1155 23.9285 91.1548 23.9048 91.2118 23.8921L91.5606 23.8145C91.6128 23.8029 91.6571 23.8104 91.6935 23.8372C91.7335 23.8582 91.7597 23.8946 91.7722 23.9466L92.883 28.5772C92.8943 28.6244 92.8873 28.6683 92.862 28.7088C92.8404 28.7435 92.8034 28.7667 92.7512 28.7783L92.4025 28.8559C92.355 28.8665 92.3113 28.8612 92.2712 28.8403C92.2348 28.8135 92.211 28.7765 92.1996 28.7292L91.3627 25.2404L90.7285 27.8167C90.7209 27.8682 90.7015 27.9123 90.6703 27.9491C90.638 27.9812 90.5934 28.0036 90.5365 28.0163L90.3158 28.0654C90.2541 28.0791 90.2015 28.0784 90.1578 28.0632C90.1178 28.0422 90.0803 28.0107 90.0452 27.9687L88.3019 25.9216L89.1388 29.4104C89.1502 29.4577 89.1432 29.5016 89.1179 29.5421C89.0962 29.5768 89.0617 29.5994 89.0142 29.61L88.6654 29.6876Z" fill="white"/>
<path d="M101.563 27.2664C101.157 27.3061 100.799 27.2679 100.488 27.1518C100.183 27.0351 99.9344 26.8372 99.7436 26.5579C99.5572 26.2733 99.4392 25.8965 99.3898 25.4275L99.0793 22.4832C99.0737 22.43 99.0839 22.3875 99.1098 22.3556C99.1353 22.3189 99.1746 22.298 99.2279 22.2928L99.598 22.2566C99.6512 22.2514 99.6941 22.2643 99.7267 22.2953C99.7637 22.321 99.7849 22.3604 99.7905 22.4136L100.103 25.3724C100.153 25.8462 100.301 26.1859 100.547 26.3913C100.794 26.5968 101.111 26.6806 101.498 26.6427C101.88 26.6053 102.17 26.4621 102.369 26.2131C102.572 25.9636 102.649 25.602 102.599 25.1282L102.287 22.1693C102.282 22.1161 102.292 22.0736 102.318 22.0418C102.348 22.0046 102.387 21.9837 102.436 21.9789L102.813 21.942C102.862 21.9373 102.902 21.9504 102.935 21.9814C102.972 22.0071 102.993 22.0465 102.998 22.0997L103.309 25.0441C103.358 25.513 103.319 25.9052 103.191 26.2206C103.067 26.5306 102.868 26.7724 102.593 26.9458C102.318 27.1193 101.975 27.2261 101.563 27.2664Z" fill="white"/>
<path d="M109.811 26.503C109.757 26.5021 109.716 26.4868 109.687 26.4572C109.659 26.4227 109.645 26.3811 109.646 26.3325L109.73 21.5714C109.73 21.5179 109.746 21.4769 109.775 21.4482C109.805 21.4146 109.847 21.3983 109.9 21.3992L110.236 21.4046C110.294 21.4056 110.338 21.4209 110.366 21.4505C110.395 21.4753 110.412 21.495 110.416 21.5097L112.772 25.2676L112.836 21.6221C112.837 21.5686 112.852 21.5275 112.882 21.4988C112.911 21.4653 112.953 21.4489 113.006 21.4498L113.356 21.4555C113.41 21.4564 113.451 21.4741 113.479 21.5086C113.513 21.5383 113.529 21.5799 113.528 21.6334L113.445 26.3872C113.444 26.4358 113.426 26.4768 113.392 26.5103C113.362 26.5439 113.323 26.5602 113.274 26.5594L112.924 26.5537C112.871 26.5529 112.829 26.5376 112.801 26.508C112.777 26.4784 112.76 26.4587 112.751 26.4488L110.402 22.7274L110.339 26.3438C110.338 26.3924 110.32 26.4335 110.285 26.4669C110.256 26.4956 110.214 26.5095 110.161 26.5087L109.811 26.503Z" fill="white"/>
<path d="M119.743 26.7691C119.69 26.7641 119.65 26.7457 119.624 26.7139C119.599 26.6773 119.588 26.6348 119.593 26.5864L120.086 21.8407C120.091 21.7923 120.11 21.755 120.142 21.7287C120.174 21.6976 120.217 21.6845 120.27 21.6896L120.655 21.726C120.704 21.7306 120.741 21.7512 120.766 21.7878C120.797 21.82 120.81 21.8603 120.805 21.9087L120.312 26.6544C120.307 26.7028 120.286 26.7423 120.249 26.773C120.217 26.7993 120.176 26.8101 120.128 26.8055L119.743 26.7691Z" fill="white"/>
<path d="M124.812 27.3117C124.764 27.3037 124.725 27.2827 124.697 27.2484C124.674 27.2101 124.667 27.167 124.675 27.1192L125.428 22.8956L124.046 22.6677C123.998 22.6598 123.96 22.6387 123.931 22.6044C123.909 22.5662 123.901 22.5231 123.91 22.4752L123.964 22.1735C123.973 22.1209 123.995 22.0825 124.029 22.0585C124.068 22.0306 124.112 22.0205 124.16 22.0284L127.63 22.6005C127.683 22.6092 127.721 22.6327 127.743 22.671C127.772 22.7053 127.781 22.7487 127.772 22.8014L127.718 23.1031C127.71 23.151 127.686 23.1889 127.646 23.2169C127.612 23.2409 127.569 23.2485 127.516 23.2398L126.141 23.0131L125.388 27.2367C125.38 27.2845 125.355 27.3225 125.316 27.3505C125.282 27.3744 125.239 27.3821 125.186 27.3734L124.812 27.3117Z" fill="white"/>
<path d="M133.217 28.9114C133.17 28.8989 133.134 28.8742 133.109 28.8374C133.09 28.7972 133.087 28.7538 133.101 28.707L133.575 27.0528L132.698 23.7408C132.697 23.7256 132.696 23.7103 132.696 23.695C132.695 23.6798 132.697 23.6628 132.703 23.6441C132.713 23.6067 132.737 23.5777 132.773 23.5572C132.809 23.5367 132.846 23.5314 132.884 23.5414L133.25 23.639C133.293 23.6502 133.327 23.6719 133.353 23.704C133.381 23.7315 133.396 23.7658 133.399 23.8069L134.122 26.4438L136.148 24.5385C136.182 24.5074 136.216 24.4863 136.249 24.4751C136.289 24.4605 136.33 24.4588 136.372 24.47L136.731 24.5657C136.774 24.577 136.805 24.6004 136.825 24.6359C136.845 24.6715 136.85 24.7079 136.839 24.7453C136.834 24.764 136.827 24.7797 136.818 24.7925C136.809 24.8053 136.798 24.8174 136.785 24.8289L134.273 27.2385L133.798 28.8927C133.785 28.9395 133.757 28.9748 133.715 28.9988C133.679 29.0193 133.635 29.0227 133.583 29.0089L133.217 28.9114Z" fill="white"/>
<path d="M143.753 32.0706C143.704 32.0498 143.672 32.0204 143.657 31.9825C143.645 31.9402 143.648 31.8969 143.668 31.8527L145.642 27.5189C145.664 27.4702 145.694 27.4383 145.733 27.4231C145.774 27.4035 145.819 27.404 145.869 27.4249L147.575 28.1456C147.906 28.2856 148.169 28.4598 148.362 28.6681C148.56 28.8783 148.678 29.118 148.716 29.3872C148.755 29.6519 148.704 29.9413 148.561 30.2554C148.418 30.5696 148.232 30.8022 148.003 30.9534C147.774 31.1046 147.512 31.1813 147.217 31.1834C146.927 31.1875 146.616 31.1195 146.285 30.9795L145.096 30.4772L144.34 32.1364C144.32 32.1807 144.287 32.2117 144.242 32.2294C144.203 32.2446 144.159 32.2418 144.11 32.221L143.753 32.0706ZM145.343 29.9169L146.505 30.4078C146.836 30.5478 147.118 30.5798 147.35 30.5038C147.582 30.4278 147.762 30.2504 147.889 29.9717C148.014 29.6973 148.03 29.4509 147.937 29.2324C147.844 29.0138 147.628 28.8327 147.288 28.6889L146.125 28.198L145.343 29.9169Z" fill="white"/>
<path d="M152.186 35.7092C152.139 35.6833 152.11 35.6508 152.1 35.6117C152.091 35.5683 152.1 35.5258 152.125 35.484L154.559 31.3914C154.586 31.3454 154.62 31.317 154.661 31.306C154.704 31.2908 154.749 31.2962 154.795 31.322L156.353 32.1817C156.834 32.4471 157.149 32.7681 157.298 33.1446C157.448 33.5211 157.393 33.9266 157.135 34.3611C156.943 34.6828 156.704 34.9002 156.416 35.0134C156.135 35.1247 155.83 35.1425 155.502 35.0669L155.494 37.2766C155.492 37.3087 155.484 37.3352 155.472 37.3561C155.452 37.3895 155.42 37.4105 155.375 37.4192C155.334 37.4301 155.297 37.4262 155.263 37.4074L154.957 37.2383C154.884 37.1984 154.842 37.1502 154.831 37.0938C154.819 37.0374 154.812 36.9834 154.808 36.9317L154.829 34.8289L153.712 34.2123L152.75 35.8293C152.726 35.871 152.69 35.8983 152.642 35.9111C152.602 35.9221 152.558 35.9147 152.511 35.8889L152.186 35.7092ZM154.029 33.6796L155.083 34.2609C155.402 34.4371 155.679 34.5039 155.913 34.4613C156.15 34.4145 156.346 34.2615 156.5 34.0025C156.651 33.7476 156.688 33.5099 156.61 33.2893C156.537 33.071 156.338 32.8726 156.015 32.6941L154.961 32.1127L154.029 33.6796Z" fill="white"/>
<path d="M161.66 41.2676C161.322 41.0313 161.074 40.7722 160.916 40.4904C160.761 40.2046 160.707 39.8978 160.755 39.5699C160.805 39.2381 160.958 38.8867 161.214 38.5155C161.339 38.3424 161.46 38.1784 161.577 38.0235C161.697 37.8648 161.824 37.7016 161.957 37.534C162.242 37.189 162.541 36.9456 162.855 36.804C163.176 36.6612 163.502 36.6165 163.832 36.67C164.17 36.7223 164.5 36.861 164.822 37.0862C165.148 37.3142 165.387 37.5729 165.539 37.8625C165.698 38.151 165.757 38.4639 165.714 38.8013C165.675 39.1347 165.527 39.4837 165.269 39.8482C165.148 40.0242 165.028 40.1915 164.908 40.3502C164.791 40.5051 164.664 40.6649 164.527 40.8297C164.243 41.1814 163.942 41.43 163.626 41.5756C163.316 41.72 162.995 41.7655 162.665 41.7121C162.337 41.6548 162.002 41.5066 161.66 41.2676ZM162.033 40.7739C162.34 40.988 162.656 41.0727 162.981 41.028C163.311 40.9861 163.635 40.7713 163.952 40.3837C164.092 40.215 164.213 40.0629 164.315 39.9274C164.421 39.7881 164.534 39.6304 164.655 39.4545C164.849 39.1818 164.961 38.9289 164.991 38.6957C165.026 38.4652 164.995 38.2571 164.898 38.0713C164.801 37.8854 164.652 37.7216 164.449 37.5798C164.254 37.4436 164.049 37.36 163.836 37.329C163.622 37.2981 163.404 37.3325 163.183 37.4322C162.966 37.5348 162.75 37.7154 162.536 37.9742C162.403 38.1418 162.284 38.2953 162.179 38.4347C162.076 38.5702 161.961 38.7264 161.833 38.9034C161.548 39.3133 161.435 39.6754 161.495 39.9897C161.556 40.304 161.735 40.5654 162.033 40.7739Z" fill="white"/>
<path d="M169.355 46.9959C169.032 46.7147 168.812 46.4166 168.695 46.1016C168.581 45.7897 168.564 45.4749 168.643 45.1569C168.725 44.8421 168.894 44.5349 169.149 44.2352C169.292 44.0761 169.445 43.9098 169.608 43.7362C169.775 43.5591 169.935 43.3925 170.088 43.2363C170.373 42.9621 170.672 42.7717 170.985 42.665C171.303 42.5614 171.63 42.5503 171.967 42.6315C172.304 42.7127 172.632 42.8924 172.951 43.1704C173.211 43.3972 173.403 43.6292 173.527 43.8662C173.651 44.1032 173.722 44.3293 173.739 44.5446C173.764 44.7595 173.751 44.9509 173.699 45.119C173.652 45.2902 173.588 45.4217 173.509 45.5134C173.482 45.5485 173.448 45.5671 173.406 45.5691C173.368 45.5677 173.33 45.551 173.293 45.519L172.969 45.2362C172.932 45.2043 172.912 45.1732 172.907 45.1431C172.905 45.1161 172.914 45.0785 172.933 45.0303C172.986 44.9095 173.016 44.7712 173.022 44.6156C173.032 44.4631 173 44.3026 172.925 44.1341C172.857 43.9652 172.724 43.7945 172.526 43.622C172.237 43.3695 171.931 43.2412 171.608 43.2369C171.289 43.2359 170.957 43.4043 170.613 43.7422C170.306 44.0478 170.009 44.3631 169.724 44.6879C169.406 45.0549 169.263 45.3946 169.296 45.707C169.332 46.0159 169.495 46.2966 169.785 46.549C169.979 46.7184 170.183 46.8349 170.396 46.8987C170.617 46.962 170.839 46.9594 171.063 46.8909C171.288 46.8224 171.505 46.6765 171.715 46.4534L171.925 46.2302L171.1 45.5112C171.064 45.4793 171.042 45.4415 171.037 45.3979C171.038 45.3539 171.057 45.3124 171.094 45.2735L171.254 45.1034C171.29 45.0645 171.329 45.044 171.371 45.0419C171.42 45.0394 171.463 45.0542 171.5 45.0862L172.742 46.1694C172.782 46.2046 172.802 46.2441 172.8 46.2881C172.802 46.3285 172.785 46.3682 172.748 46.4072L172.269 46.9173C171.996 47.2077 171.695 47.4067 171.368 47.5141C171.044 47.6247 170.708 47.638 170.36 47.5539C170.016 47.4663 169.681 47.2803 169.355 46.9959Z" fill="white"/>
<path d="M175.321 52.1996C175.285 52.1604 175.268 52.1206 175.27 52.0802C175.276 52.0366 175.297 51.9989 175.334 51.9672L178.94 48.8566C178.98 48.8217 179.021 48.8054 179.063 48.8077C179.109 48.8068 179.15 48.8259 179.186 48.8651L180.398 50.1681C180.772 50.5704 180.971 50.9732 180.994 51.3765C181.018 51.7798 180.838 52.1466 180.455 52.4768C180.172 52.7214 179.875 52.852 179.566 52.8688C179.263 52.8859 178.968 52.8072 178.679 52.6325L177.975 54.722C177.963 54.7518 177.948 54.7746 177.93 54.7904C177.9 54.8158 177.863 54.8256 177.818 54.8197C177.776 54.8174 177.741 54.802 177.715 54.7736L177.477 54.5172C177.42 54.4567 177.395 54.3979 177.402 54.3409C177.409 54.2838 177.419 54.2303 177.432 54.1803L178.114 52.1961L177.245 51.2615L175.821 52.4905C175.784 52.5223 175.741 52.5368 175.692 52.5341C175.65 52.5318 175.611 52.5111 175.575 52.4719L175.321 52.1996ZM177.715 50.8566L178.534 51.7378C178.782 52.0048 179.025 52.1549 179.261 52.1882C179.502 52.2183 179.736 52.1349 179.964 51.938C180.189 51.7443 180.299 51.5308 180.294 51.2974C180.293 51.0677 180.166 50.8175 179.914 50.5469L179.095 49.6658L177.715 50.8566Z" fill="white"/>
<path d="M181.287 58.5922C181.263 58.5611 181.255 58.5256 181.261 58.4856C181.268 58.4457 181.287 58.4145 181.318 58.3922C181.338 58.3783 181.362 58.3649 181.388 58.352L186.331 57.0889C186.382 57.0765 186.43 57.0756 186.474 57.086C186.519 57.0964 186.561 57.1287 186.602 57.183L186.9 57.5785C186.938 57.629 186.955 57.6761 186.952 57.72C186.951 57.7677 186.937 57.8133 186.909 57.8567L184.134 61.999C184.116 62.0234 184.097 62.0426 184.078 62.0566C184.046 62.0789 184.009 62.0868 183.968 62.0802C183.927 62.0737 183.894 62.0549 183.871 62.0239L183.647 61.7272C183.612 61.6807 183.598 61.6375 183.604 61.5975C183.614 61.5613 183.625 61.5324 183.639 61.5107L184.245 60.597L182.808 58.6892L181.721 58.9631C181.698 58.9732 181.666 58.975 181.625 58.9684C181.583 58.9619 181.545 58.9353 181.51 58.8888L181.287 58.5922ZM183.448 58.4983L184.63 60.0687L186.155 57.799L183.448 58.4983Z" fill="white"/>
<path d="M187.199 66.555C187.174 66.5131 187.166 66.4705 187.174 66.4272C187.19 66.3857 187.218 66.3533 187.261 66.33L191.44 64.0471C191.487 64.0215 191.531 64.0142 191.571 64.0254C191.618 64.0384 191.654 64.0658 191.679 64.1077L191.864 64.4219C191.893 64.4722 191.903 64.5169 191.892 64.556C191.881 64.5951 191.868 64.6214 191.854 64.635L190.053 67.3796L193.426 67.3056C193.448 67.3047 193.478 67.3077 193.516 67.3146C193.557 67.3258 193.592 67.3565 193.621 67.4068L193.803 67.7147C193.83 67.7608 193.836 67.8045 193.821 67.846C193.812 67.8893 193.785 67.9238 193.738 67.9494L189.559 70.2323C189.516 70.2556 189.471 70.2608 189.424 70.2478C189.384 70.2366 189.35 70.208 189.323 70.1619L189.141 69.854C189.117 69.8121 189.109 69.7695 189.117 69.7262C189.132 69.6848 189.161 69.6524 189.204 69.6291L192.352 67.909L189.648 67.9993C189.595 68.0059 189.547 67.9994 189.501 67.9798C189.46 67.958 189.425 67.9219 189.395 67.8717L189.281 67.6769C189.248 67.6224 189.233 67.5726 189.235 67.5274C189.243 67.4841 189.262 67.4403 189.293 67.3961L190.761 65.2069L187.613 66.927C187.57 66.9503 187.525 66.9555 187.478 66.9425C187.437 66.9313 187.405 66.9048 187.38 66.8629L187.199 66.555Z" fill="white"/>
<path d="M42.3781 214.22L46.4633 212.011L48.6852 208.041L50.9786 211.993L55.0997 214.133L50.9965 216.325L48.7747 220.295L46.4992 216.342L42.3781 214.22Z" stroke="white" stroke-width="0.75" stroke-miterlimit="10"/>
<path d="M60.923 214.22L65.0262 212.011L67.248 208.041L69.5235 211.993L73.6446 214.133L69.5594 216.325L67.3375 220.295L65.0441 216.342L60.923 214.22Z" stroke="white" stroke-width="0.75" stroke-miterlimit="10"/>
<path d="M151.784 214.22L155.869 212.011L158.091 208.041L160.385 211.993L164.506 214.133L160.403 216.325L158.181 220.295L155.905 216.342L151.784 214.22Z" stroke="white" stroke-width="0.75" stroke-miterlimit="10"/>
<path d="M170.329 214.22L174.432 212.011L176.654 208.041L178.93 211.993L183.051 214.133L178.966 216.325L176.744 220.295L174.468 216.342L170.329 214.22Z" stroke="white" stroke-width="0.75" stroke-miterlimit="10"/>
<path d="M92.3958 112.825V146.1C92.3958 150.155 101.498 153.452 112.733 153.452C123.967 153.452 133.051 150.155 133.051 146.1V112.825H92.3958Z" fill="#001D33" stroke="white" stroke-miterlimit="10"/>
<path d="M133.016 112.96C133.016 115.168 123.913 116.944 112.679 116.944C101.444 116.944 92.36 115.22 92.36 112.96C92.36 110.701 101.462 108.959 112.679 108.959C123.895 108.959 133.016 110.684 133.016 112.96Z" fill="#001D33" stroke="white" stroke-miterlimit="10"/>
<path d="M112.679 116.962C123.91 116.962 133.016 115.17 133.016 112.96C133.016 110.75 123.91 108.959 112.679 108.959C101.447 108.959 92.342 110.75 92.342 112.96C92.342 115.17 101.447 116.962 112.679 116.962Z" fill="#001D33" stroke="white" stroke-miterlimit="10"/>
<path d="M133.016 112.963C133.016 117.26 123.913 120.729 112.679 120.729C101.444 120.729 92.36 117.278 92.36 112.963C92.36 108.648 101.462 105.162 112.679 105.162C123.895 105.162 133.016 108.614 133.016 112.946" fill="#001D33"/>
<path d="M133.016 112.963C133.016 117.26 123.913 120.729 112.679 120.729C101.444 120.729 92.36 117.278 92.36 112.963C92.36 108.648 101.462 105.162 112.679 105.162C123.895 105.162 133.016 108.614 133.016 112.946" stroke="white" stroke-miterlimit="10"/>
<path d="M112.679 120.747C123.91 120.747 133.016 117.262 133.016 112.963C133.016 108.664 123.91 105.179 112.679 105.179C101.447 105.179 92.342 108.664 92.342 112.963C92.342 117.262 101.447 120.747 112.679 120.747Z" fill="#001D33" stroke="white" stroke-miterlimit="10"/>
<path d="M133.051 117.571C133.051 121.607 123.949 124.901 112.715 124.901C101.48 124.901 92.3958 121.607 92.3958 117.571" stroke="white" stroke-miterlimit="10"/>
<path d="M133.051 131.257C133.051 135.31 123.949 138.587 112.733 138.587C101.516 138.587 92.3958 135.31 92.3958 131.257" stroke="white" stroke-miterlimit="10"/>
<path d="M92.36 82.9502V113.049C92.36 117.502 101.462 121.109 112.679 121.109C123.895 121.109 133.016 117.502 133.016 113.049V82.9502H92.36Z" fill="#001D33" stroke="white" stroke-miterlimit="10"/>
<path d="M92.3958 82.9502V113.049C92.3958 117.502 101.498 121.109 112.733 121.109C123.967 121.109 133.051 117.502 133.051 113.049V82.9502H92.3958Z" fill="#001D33" stroke="white" stroke-miterlimit="10"/>
<path d="M132.102 79.2741L125.15 63.396H99.2404L93.1483 79.5847C92.845 80.4898 92.5997 81.412 92.4137 82.3461C92.4137 86.7816 101.516 90.3887 112.733 90.3887C123.949 90.3887 133.069 86.7816 133.069 82.3461C132.834 81.3156 132.528 80.3009 132.155 79.3086" fill="#001D33"/>
<path d="M132.102 79.2741L125.15 63.396H99.2404L93.1483 79.5847C92.845 80.4898 92.5997 81.412 92.4137 82.3461C92.4137 86.7816 101.516 90.3887 112.733 90.3887C123.949 90.3887 133.069 86.7816 133.069 82.3461C132.834 81.3156 132.528 80.3009 132.155 79.3086" stroke="white" stroke-miterlimit="10"/>
<path d="M132.102 79.2741L125.15 63.396H99.2404L93.1483 79.5847C92.845 80.4898 92.5997 81.412 92.4137 82.3461C92.4137 86.7816 101.516 90.3887 112.733 90.3887C123.949 90.3887 133.069 86.7816 133.069 82.3461C132.817 81.3027 132.494 80.2764 132.102 79.2741Z" fill="#001D33" stroke="white" stroke-miterlimit="10"/>
<path d="M112.213 40.1655C108.486 40.1655 107.214 43.2031 105.422 47.5178L99.2225 63.5339C103.437 64.8012 107.803 65.5436 112.213 65.743C116.619 65.5535 120.98 64.8109 125.185 63.5339L119.004 47.5178C117.302 43.7381 115.94 40.1655 112.213 40.1655Z" fill="#001D33" stroke="white" stroke-miterlimit="10"/>
<path d="M112.213 40.1655C108.486 40.1655 107.214 43.2031 105.422 47.5178L99.2225 63.5339C103.437 64.8012 107.803 65.5436 112.213 65.743C116.619 65.5535 120.98 64.8109 125.185 63.5339L119.004 47.5178C117.302 43.7381 115.94 40.1655 112.213 40.1655Z" fill="#001D33" stroke="white" stroke-miterlimit="10"/>
<path d="M127.425 96.1181C123.4 97.75 119.117 98.7128 114.757 98.9658H114.309V114.205C118.905 113.963 123.422 112.953 127.658 111.22H127.801V95.9973L127.425 96.1181Z" fill="#001D33" stroke="white" stroke-miterlimit="10"/>
<path d="M106.264 103.539C106.268 104.055 106.111 104.561 105.816 104.992C105.52 105.423 105.097 105.76 104.602 105.959C104.107 106.158 103.562 106.211 103.035 106.111C102.509 106.012 102.025 105.763 101.645 105.398C101.266 105.032 101.008 104.567 100.904 104.06C100.8 103.553 100.855 103.028 101.062 102.551C101.269 102.074 101.619 101.667 102.067 101.383C102.514 101.098 103.04 100.947 103.576 100.951C104.288 100.955 104.969 101.229 105.472 101.714C105.975 102.198 106.259 102.854 106.264 103.539Z" fill="#001D33" stroke="white" stroke-miterlimit="10"/>
<path d="M92.36 92.0107H89.0631V103.083H92.36V92.0107Z" fill="#001D33" stroke="white" stroke-miterlimit="10"/>
<path d="M136.366 104.299H133.32V109.785H136.366V104.299Z" fill="#001D33" stroke="white" stroke-miterlimit="10"/>
<path d="M101.731 277.939H92.3423L91.0164 296.026C91.0164 296.613 93.7219 297.096 97.0367 297.096C100.352 297.096 103.039 296.613 103.039 296.026L101.731 277.939Z" fill="#001D33" stroke="white" stroke-miterlimit="10"/>
<path d="M133.141 277.939H123.752L122.444 296.026C122.444 296.613 125.132 297.096 128.447 297.096C131.761 297.096 134.467 296.613 134.467 296.026L133.141 277.939Z" fill="#001D33" stroke="white" stroke-miterlimit="10"/>
<path d="M107.752 283.082H98.3448L97.0367 301.187C97.0367 301.773 99.7244 302.239 103.039 302.239C106.354 302.239 109.06 301.773 109.06 301.187L107.752 283.082Z" fill="#001D33" stroke="white" stroke-miterlimit="10"/>
<path d="M125.436 283.082H116.048L114.686 301.187C114.686 301.773 117.373 302.239 120.688 302.239C124.003 302.239 126.709 301.773 126.709 301.187L125.436 283.082Z" fill="#001D33" stroke="white" stroke-miterlimit="10"/>
<path d="M116.37 287.518H106.963L105.727 305.605C105.727 306.192 108.414 306.675 111.729 306.675C115.044 306.675 117.75 306.192 117.75 305.605L116.37 287.518Z" fill="#001D33" stroke="white" stroke-miterlimit="10"/>
<path d="M92.4137 243.75V284.791C92.4137 289.244 101.373 292.851 112.571 292.851C123.77 292.851 133.069 289.244 133.069 284.791V243.75H92.4137Z" fill="#001D33" stroke="white" stroke-miterlimit="10"/>
<path d="M92.4137 243.75V284.791C92.4137 289.244 101.373 292.851 112.571 292.851C123.77 292.851 133.069 289.244 133.069 284.791V243.75H92.4137Z" fill="#001D33" stroke="white" stroke-miterlimit="10"/>
<path d="M133.069 243.577C133.069 247.874 123.967 251.343 112.75 251.343C101.534 251.343 92.4137 247.892 92.4137 243.577C92.4137 239.262 101.516 235.793 112.75 235.793C123.985 235.793 133.069 239.245 133.069 243.577Z" fill="#001D33" stroke="white" stroke-miterlimit="10"/>
<path d="M112.75 251.361C123.982 251.361 133.087 247.876 133.087 243.577C133.087 239.278 123.982 235.793 112.75 235.793C101.519 235.793 92.4137 239.278 92.4137 243.577C92.4137 247.876 101.519 251.361 112.75 251.361Z" fill="#001D33" stroke="white" stroke-miterlimit="10"/>
<path d="M133.069 252.517C133.069 256.553 123.967 259.847 112.75 259.847C101.534 259.847 92.4137 256.553 92.4137 252.517" fill="#001D33"/>
<path d="M133.069 252.517C133.069 256.553 123.967 259.847 112.75 259.847C101.534 259.847 92.4137 256.553 92.4137 252.517" stroke="white" stroke-miterlimit="10"/>
<path d="M133.069 262.061C133.069 266.114 123.967 269.391 112.75 269.391C101.534 269.391 92.4137 266.114 92.4137 262.061" fill="#001D33"/>
<path d="M133.069 262.061C133.069 266.114 123.967 269.391 112.75 269.391C101.534 269.391 92.4137 266.114 92.4137 262.061" stroke="white" stroke-miterlimit="10"/>
<path d="M107.769 292.609L96.3199 292.195L86.1246 286.033L92.2884 265.495L107.769 292.609Z" fill="#001D33" stroke="white" stroke-miterlimit="10"/>
<path d="M117.678 292.609L129.127 292.195L139.305 286.033L133.159 265.495L117.678 292.609Z" fill="#001D33" stroke="white" stroke-miterlimit="10"/>
<path d="M153.582 310.75C153.63 310.728 153.674 310.723 153.714 310.736C153.755 310.754 153.787 310.785 153.81 310.828L155.98 315.066C156.005 315.114 156.01 315.157 155.997 315.195C155.987 315.238 155.957 315.271 155.909 315.294L153.189 316.586C153.14 316.609 153.095 316.612 153.053 316.594C153.014 316.581 152.982 316.55 152.957 316.503L152.831 316.256C152.807 316.208 152.801 316.165 152.814 316.127C152.827 316.088 152.858 316.058 152.906 316.035L155.145 314.971L154.417 313.549L152.323 314.545C152.275 314.567 152.229 314.57 152.188 314.552C152.148 314.539 152.116 314.508 152.092 314.461L151.969 314.221C151.946 314.177 151.941 314.134 151.952 314.091C151.965 314.053 151.995 314.022 152.044 313.999L154.138 313.004L153.383 311.531L151.091 312.62C151.043 312.643 150.999 312.648 150.959 312.634C150.92 312.621 150.888 312.59 150.863 312.543L150.734 312.289C150.712 312.246 150.706 312.203 150.717 312.16C150.73 312.122 150.76 312.091 150.809 312.068L153.582 310.75Z" fill="white"/>
<path d="M145.727 314.399C145.778 314.382 145.822 314.381 145.86 314.399C145.899 314.421 145.928 314.455 145.945 314.5L147.634 318.953C147.653 319.003 147.654 319.046 147.637 319.083C147.621 319.125 147.588 319.154 147.538 319.172L147.221 319.283C147.166 319.303 147.12 319.304 147.082 319.286C147.046 319.273 147.023 319.26 147.013 319.248L143.41 316.575L144.704 319.984C144.723 320.034 144.723 320.077 144.706 320.114C144.691 320.156 144.658 320.186 144.607 320.203L144.277 320.319C144.227 320.337 144.182 320.335 144.142 320.313C144.1 320.297 144.069 320.264 144.05 320.214L142.364 315.768C142.347 315.723 142.348 315.679 142.368 315.636C142.384 315.594 142.414 315.565 142.46 315.549L142.79 315.433C142.841 315.415 142.885 315.415 142.923 315.433C142.956 315.452 142.979 315.464 142.992 315.47L146.574 318.112L145.292 314.73C145.274 314.685 145.276 314.641 145.296 314.598C145.313 314.561 145.347 314.533 145.397 314.515L145.727 314.399Z" fill="white"/>
<path d="M135.21 317.805C135.257 317.793 135.301 317.798 135.342 317.818C135.379 317.844 135.403 317.881 135.415 317.928L136.485 322.08L137.847 321.755C137.894 321.743 137.938 321.748 137.978 321.768C138.015 321.794 138.04 321.831 138.052 321.878L138.128 322.175C138.142 322.226 138.138 322.27 138.117 322.305C138.092 322.346 138.056 322.372 138.009 322.383L134.59 323.2C134.538 323.213 134.494 323.206 134.457 323.18C134.417 323.16 134.39 323.123 134.376 323.072L134.3 322.775C134.288 322.728 134.294 322.684 134.319 322.643C134.34 322.608 134.376 322.584 134.428 322.572L135.783 322.248L134.713 318.096C134.701 318.049 134.707 318.005 134.732 317.964C134.753 317.929 134.789 317.905 134.841 317.893L135.21 317.805Z" fill="white"/>
<path d="M128.209 319.381C128.261 319.374 128.305 319.383 128.338 319.408C128.372 319.437 128.392 319.476 128.4 319.524L129.108 324.233C129.115 324.286 129.107 324.329 129.083 324.362C129.059 324.399 129.02 324.422 128.967 324.429L125.985 324.845C125.932 324.853 125.888 324.842 125.854 324.812C125.821 324.787 125.8 324.748 125.792 324.696L125.751 324.421C125.743 324.369 125.752 324.326 125.776 324.293C125.801 324.26 125.839 324.24 125.892 324.232L128.348 323.89L128.111 322.311L125.814 322.631C125.761 322.638 125.717 322.627 125.684 322.598C125.65 322.573 125.63 322.534 125.622 322.481L125.582 322.214C125.574 322.166 125.583 322.123 125.607 322.086C125.631 322.053 125.67 322.033 125.723 322.025L128.02 321.705L127.773 320.068L125.26 320.419C125.207 320.426 125.164 320.417 125.131 320.392C125.098 320.368 125.077 320.329 125.069 320.276L125.027 319.995C125.02 319.947 125.028 319.904 125.052 319.866C125.076 319.833 125.115 319.813 125.168 319.806L128.209 319.381Z" fill="white"/>
<path d="M119.564 320.505C119.618 320.503 119.66 320.516 119.69 320.545C119.721 320.578 119.737 320.618 119.739 320.667L119.937 325.428C119.939 325.482 119.926 325.523 119.898 325.554C119.87 325.589 119.83 325.607 119.776 325.609L117.997 325.67C117.447 325.688 117.007 325.574 116.675 325.328C116.344 325.081 116.167 324.705 116.146 324.199C116.131 323.825 116.213 323.516 116.393 323.271C116.568 323.031 116.814 322.86 117.131 322.757L115.927 320.855C115.911 320.827 115.903 320.8 115.902 320.776C115.9 320.737 115.916 320.702 115.949 320.672C115.977 320.642 116.01 320.626 116.049 320.625L116.399 320.613C116.482 320.61 116.543 320.63 116.584 320.672C116.625 320.715 116.661 320.757 116.692 320.8L117.826 322.616L119.102 322.573L119.024 320.691C119.022 320.643 119.038 320.601 119.07 320.566C119.098 320.536 119.139 320.52 119.192 320.518L119.564 320.505ZM119.128 323.192L117.925 323.233C117.56 323.246 117.291 323.33 117.117 323.487C116.944 323.649 116.863 323.88 116.876 324.182C116.888 324.478 116.988 324.701 117.174 324.851C117.355 325 117.631 325.069 118 325.056L119.204 325.015L119.128 323.192Z" fill="white"/>
<path d="M110.141 320.781C110.194 320.784 110.234 320.802 110.261 320.833C110.288 320.869 110.3 320.911 110.296 320.96L109.95 325.721C109.946 325.774 109.929 325.815 109.897 325.842C109.866 325.874 109.823 325.888 109.77 325.884L107.917 325.758C107.557 325.734 107.25 325.654 106.996 325.519C106.737 325.384 106.543 325.195 106.414 324.952C106.285 324.714 106.233 324.422 106.258 324.077C106.283 323.732 106.377 323.45 106.54 323.231C106.702 323.013 106.921 322.854 107.197 322.756C107.468 322.657 107.784 322.62 108.143 322.645L109.434 322.733L109.567 320.91C109.57 320.861 109.59 320.821 109.627 320.79C109.658 320.762 109.7 320.751 109.754 320.754L110.141 320.781ZM109.397 323.346L108.135 323.26C107.776 323.235 107.5 323.297 107.308 323.445C107.117 323.593 107.01 323.82 106.988 324.127C106.966 324.428 107.036 324.667 107.199 324.844C107.362 325.022 107.629 325.123 107.998 325.148L109.26 325.234L109.397 323.346Z" fill="white"/>
<path d="M100.97 319.997C101.023 320.006 101.061 320.028 101.084 320.061C101.106 320.1 101.113 320.143 101.104 320.19L100.214 324.855C100.204 324.907 100.182 324.945 100.148 324.969C100.113 324.997 100.069 325.007 100.017 324.998L98.2683 324.694C97.7286 324.601 97.3251 324.4 97.058 324.093C96.7908 323.786 96.7045 323.385 96.7989 322.89C96.8689 322.523 97.0192 322.239 97.25 322.038C97.4751 321.841 97.7539 321.725 98.0864 321.689L97.3454 319.597C97.3365 319.566 97.3343 319.539 97.3388 319.515C97.3461 319.477 97.3692 319.446 97.4081 319.423C97.4422 319.4 97.4783 319.391 97.5166 319.398L97.8605 319.458C97.9417 319.472 97.9973 319.504 98.0274 319.553C98.0574 319.603 98.0827 319.651 98.1031 319.699L98.7961 321.694L100.05 321.911L100.401 320.068C100.411 320.021 100.435 319.983 100.475 319.956C100.509 319.932 100.552 319.925 100.605 319.934L100.97 319.997ZM99.9342 322.519L98.752 322.313C98.3937 322.251 98.1121 322.279 97.9072 322.396C97.7014 322.517 97.5704 322.726 97.5141 323.021C97.4587 323.312 97.5048 323.548 97.6525 323.731C97.7954 323.914 98.0484 324.036 98.4114 324.099L99.5937 324.305L99.9342 322.519Z" fill="white"/>
<path d="M91.8079 318.305C91.8598 318.318 91.896 318.343 91.9167 318.378C91.936 318.418 91.9393 318.461 91.9266 318.508L90.6766 323.111C90.6639 323.157 90.6396 323.191 90.6036 323.212C90.5664 323.238 90.5219 323.245 90.47 323.231L90.0953 323.137C90.0481 323.125 90.0149 323.099 89.9955 323.059C89.9701 323.023 89.9638 322.981 89.9766 322.934L91.2266 318.332C91.2393 318.285 91.2666 318.249 91.3085 318.225C91.3445 318.204 91.386 318.199 91.4331 318.211L91.8079 318.305Z" fill="white"/>
<path d="M86.5543 316.829C86.9559 316.962 87.2716 317.133 87.5014 317.342C87.7296 317.556 87.8833 317.784 87.9624 318.025C88.0352 318.269 88.0371 318.503 87.9679 318.726C87.9548 318.762 87.9296 318.79 87.8921 318.808C87.8483 318.829 87.8057 318.833 87.7641 318.819L87.4111 318.703C87.3557 318.684 87.319 318.657 87.3012 318.62C87.2833 318.583 87.2762 318.545 87.2801 318.506C87.2962 318.388 87.28 318.26 87.2315 318.121C87.1768 317.985 87.0817 317.854 86.9463 317.727C86.8046 317.603 86.6046 317.499 86.3461 317.413C85.9492 317.282 85.6339 317.254 85.4003 317.331C85.1604 317.41 84.9989 317.566 84.9156 317.8C84.8584 317.96 84.8634 318.105 84.9307 318.235C84.9917 318.368 85.1098 318.507 85.2851 318.652C85.4605 318.797 85.6933 318.969 85.9837 319.167C86.2864 319.375 86.528 319.572 86.7087 319.76C86.8894 319.948 87.005 320.145 87.0553 320.351C87.101 320.556 87.0774 320.788 86.9843 321.049C86.8961 321.297 86.7508 321.494 86.5483 321.642C86.3443 321.795 86.0972 321.887 85.8071 321.919C85.5125 321.95 85.1851 321.905 84.8251 321.786C84.539 321.691 84.3036 321.57 84.1191 321.422C83.9283 321.277 83.7842 321.117 83.6869 320.941C83.5879 320.77 83.5276 320.599 83.506 320.428C83.4828 320.262 83.4934 320.109 83.5377 319.97C83.5492 319.938 83.5722 319.91 83.6067 319.886C83.6395 319.866 83.6814 319.864 83.7321 319.881L84.0991 320.002C84.1314 320.013 84.1627 320.034 84.1931 320.064C84.2189 320.093 84.232 320.136 84.2325 320.192C84.1932 320.389 84.243 320.582 84.3819 320.772C84.5208 320.961 84.738 321.105 85.0333 321.202C85.3333 321.302 85.5984 321.325 85.8284 321.273C86.0539 321.22 86.2099 321.072 86.2964 320.829C86.352 320.674 86.3547 320.529 86.3045 320.394C86.2528 320.265 86.1462 320.129 85.9847 319.989C85.8232 319.849 85.6057 319.684 85.3321 319.497C84.9988 319.274 84.7349 319.066 84.5403 318.874C84.3441 318.686 84.2209 318.489 84.1705 318.283C84.1139 318.08 84.1322 317.848 84.2253 317.587C84.3282 317.298 84.4925 317.076 84.7183 316.921C84.9425 316.77 85.2126 316.685 85.5287 316.667C85.8386 316.651 86.1805 316.706 86.5543 316.829Z" fill="white"/>
<path d="M79.4492 314.506C79.4983 314.528 79.5299 314.558 79.544 314.596C79.556 314.638 79.5515 314.681 79.5305 314.725L77.4685 319.029C77.4453 319.077 77.4141 319.108 77.3747 319.123C77.3332 319.142 77.2879 319.141 77.2388 319.119L74.476 317.905C74.4269 317.883 74.3964 317.851 74.3843 317.809C74.3702 317.771 74.3747 317.727 74.3979 317.679L74.5179 317.429C74.541 317.38 74.5723 317.349 74.6117 317.334C74.6511 317.32 74.6953 317.323 74.7444 317.345L77.0189 318.344L77.7104 316.901L75.5831 315.966C75.534 315.945 75.5035 315.913 75.4914 315.87C75.4773 315.832 75.4818 315.789 75.505 315.74L75.6218 315.497C75.6429 315.453 75.6741 315.421 75.7156 315.402C75.755 315.388 75.7993 315.391 75.8483 315.413L77.9757 316.348L78.6925 314.852L76.3644 313.828C76.3154 313.807 76.2838 313.777 76.2696 313.739C76.2555 313.701 76.26 313.658 76.2832 313.609L76.4063 313.352C76.4274 313.308 76.4587 313.277 76.5001 313.258C76.5395 313.243 76.5838 313.247 76.6328 313.268L79.4492 314.506Z" fill="white"/>
<path d="M23.9233 177.401C23.9233 176.471 24.1079 175.598 24.4769 174.782C24.846 173.966 25.3453 173.256 25.9748 172.649C26.6153 172.032 27.3588 171.546 28.2054 171.191C29.0521 170.835 29.9585 170.657 30.9245 170.657H41.6379V175.158H30.9245C30.5989 175.158 30.2949 175.216 30.0127 175.331C29.7305 175.446 29.4809 175.608 29.2638 175.817C29.0575 176.016 28.8947 176.251 28.7753 176.523C28.6559 176.795 28.5962 177.087 28.5962 177.401C28.5962 177.715 28.6559 178.013 28.7753 178.295C28.8947 178.567 29.0575 178.807 29.2638 179.016C29.4809 179.215 29.7305 179.372 30.0127 179.487C30.2949 179.602 30.5989 179.659 30.9245 179.659H35.5974C36.5634 179.659 37.4698 179.837 38.3164 180.193C39.1739 180.538 39.9175 181.019 40.547 181.635C41.1875 182.242 41.6868 182.958 42.045 183.784C42.414 184.599 42.5985 185.473 42.5985 186.403C42.5985 187.334 42.414 188.207 42.045 189.022C41.6868 189.838 41.1875 190.554 40.547 191.171C39.9175 191.777 39.1739 192.258 38.3164 192.613C37.4698 192.969 36.5634 193.147 35.5974 193.147H25.2259V188.646H35.5974C35.923 188.646 36.2269 188.588 36.5092 188.473C36.7914 188.358 37.0356 188.201 37.2418 188.003C37.4589 187.794 37.6272 187.553 37.7466 187.281C37.866 187.009 37.9257 186.717 37.9257 186.403C37.9257 186.089 37.866 185.797 37.7466 185.525C37.6272 185.253 37.4589 185.018 37.2418 184.819C37.0356 184.61 36.7914 184.448 36.5092 184.333C36.2269 184.218 35.923 184.16 35.5974 184.16H30.9245C29.9585 184.16 29.0521 183.983 28.2054 183.627C27.3588 183.272 26.6153 182.791 25.9748 182.184C25.3453 181.567 24.846 180.851 24.4769 180.036C24.1079 179.21 23.9233 178.332 23.9233 177.401Z" fill="white"/>
<path d="M50.3487 175.158V184.16H55.0215C55.662 184.16 56.2644 184.045 56.8288 183.815C57.3933 183.575 57.8871 183.251 58.3105 182.843C58.7338 182.435 59.0649 181.96 59.3037 181.416C59.5533 180.862 59.6781 180.276 59.6781 179.659C59.6781 179.043 59.5533 178.462 59.3037 177.919C59.0649 177.364 58.7338 176.884 58.3105 176.476C57.8871 176.068 57.3933 175.749 56.8288 175.519C56.2644 175.279 55.662 175.158 55.0215 175.158H50.3487ZM50.3487 193.147H45.6758V170.657H55.0215C55.8791 170.657 56.704 170.767 57.4964 170.987C58.2888 171.196 59.0269 171.499 59.7107 171.896C60.4054 172.283 61.0349 172.754 61.5994 173.308C62.1747 173.851 62.6631 174.458 63.0647 175.127C63.4772 175.796 63.792 176.512 64.0091 177.276C64.237 178.039 64.351 178.833 64.351 179.659C64.351 180.893 64.1068 182.059 63.6183 183.157C63.1299 184.244 62.4623 185.195 61.6157 186.011C60.769 186.826 59.7758 187.469 58.6361 187.94C57.5072 188.41 56.3024 188.646 55.0215 188.646H50.3487V193.147Z" fill="white"/>
<path d="M80.8445 184.16V179.659C80.8445 179.043 80.7196 178.462 80.47 177.919C80.2312 177.364 79.9001 176.884 79.4768 176.476C79.0535 176.068 78.5541 175.749 77.9789 175.519C77.4144 175.279 76.812 175.158 76.1716 175.158C75.5312 175.158 74.9233 175.279 74.348 175.519C73.7836 175.749 73.2897 176.068 72.8664 176.476C72.4431 176.884 72.1066 177.364 71.8569 177.919C71.6181 178.462 71.4987 179.043 71.4987 179.659V184.16H80.8445ZM85.5173 193.147H80.8445V188.646H71.4987V193.147H66.8421V179.659C66.8421 178.415 67.0863 177.249 67.5748 176.162C68.0633 175.064 68.7254 174.108 69.5612 173.292C70.4078 172.477 71.3956 171.834 72.5245 171.363C73.6642 170.893 74.8799 170.657 76.1716 170.657C77.4633 170.657 78.6736 170.893 79.8024 171.363C80.9421 171.834 81.9353 172.477 82.782 173.292C83.6286 174.108 84.2962 175.064 84.7846 176.162C85.2731 177.249 85.5173 178.415 85.5173 179.659V193.147Z" fill="white"/>
<path d="M108.214 190.841C107.129 191.74 105.913 192.43 104.567 192.911C103.221 193.392 101.826 193.633 100.383 193.633C99.2754 193.633 98.2063 193.492 97.1751 193.209C96.1548 192.938 95.1941 192.551 94.2932 192.049C93.4031 191.537 92.589 190.925 91.8509 190.214C91.1128 189.503 90.4778 188.719 89.946 187.862C89.4249 186.994 89.0179 186.068 88.7248 185.086C88.4426 184.092 88.3015 183.063 88.3015 181.996C88.3015 180.93 88.4426 179.9 88.7248 178.907C89.0179 177.913 89.4249 176.988 89.946 176.131C90.4778 175.263 91.1128 174.474 91.8509 173.763C92.589 173.052 93.4031 172.445 94.2932 171.943C95.1941 171.431 96.1548 171.039 97.1751 170.767C98.2063 170.485 99.2754 170.344 100.383 170.344C101.826 170.344 103.221 170.584 104.567 171.065C105.913 171.536 107.129 172.226 108.214 173.135L105.739 177.056C105.055 176.345 104.247 175.801 103.313 175.425C102.38 175.038 101.403 174.845 100.383 174.845C99.3514 174.845 98.3854 175.033 97.4844 175.409C96.5835 175.786 95.7966 176.298 95.1236 176.946C94.4506 177.584 93.9187 178.342 93.528 179.22C93.1372 180.088 92.9418 181.013 92.9418 181.996C92.9418 182.979 93.1372 183.904 93.528 184.772C93.9187 185.629 94.4506 186.382 95.1236 187.03C95.7966 187.679 96.5835 188.191 97.4844 188.567C98.3854 188.944 99.3514 189.132 100.383 189.132C101.403 189.132 102.38 188.944 103.313 188.567C104.247 188.18 105.055 187.632 105.739 186.921L108.214 190.841Z" fill="white"/>
<path d="M126.938 193.147H110.933V170.657H126.938V175.158H115.606V179.659H123.275V184.16H115.606V188.646H126.938V193.147Z" fill="white"/>
<path d="M128.583 177.401C128.583 176.471 128.767 175.598 129.136 174.782C129.505 173.966 130.005 173.256 130.634 172.649C131.275 172.032 132.018 171.546 132.865 171.191C133.711 170.835 134.618 170.657 135.584 170.657H146.297V175.158H135.584C135.258 175.158 134.954 175.216 134.672 175.331C134.39 175.446 134.14 175.608 133.923 175.817C133.717 176.016 133.554 176.251 133.435 176.523C133.315 176.795 133.256 177.087 133.256 177.401C133.256 177.715 133.315 178.013 133.435 178.295C133.554 178.567 133.717 178.807 133.923 179.016C134.14 179.215 134.39 179.372 134.672 179.487C134.954 179.602 135.258 179.659 135.584 179.659H140.257C141.223 179.659 142.129 179.837 142.976 180.193C143.833 180.538 144.577 181.019 145.206 181.635C145.847 182.242 146.346 182.958 146.704 183.784C147.073 184.599 147.258 185.473 147.258 186.403C147.258 187.334 147.073 188.207 146.704 189.022C146.346 189.838 145.847 190.554 145.206 191.171C144.577 191.777 143.833 192.258 142.976 192.613C142.129 192.969 141.223 193.147 140.257 193.147H129.885V188.646H140.257C140.582 188.646 140.886 188.588 141.168 188.473C141.451 188.358 141.695 188.201 141.901 188.003C142.118 187.794 142.286 187.553 142.406 187.281C142.525 187.009 142.585 186.717 142.585 186.403C142.585 186.089 142.525 185.797 142.406 185.525C142.286 185.253 142.118 185.018 141.901 184.819C141.695 184.61 141.451 184.448 141.168 184.333C140.886 184.218 140.582 184.16 140.257 184.16H135.584C134.618 184.16 133.711 183.983 132.865 183.627C132.018 183.272 131.275 182.791 130.634 182.184C130.005 181.567 129.505 180.851 129.136 180.036C128.767 179.21 128.583 178.332 128.583 177.401Z" fill="white"/>
<path d="M155.008 193.147H150.335V170.657H155.008V179.659H164.337V170.657H169.01V193.147H164.337V184.16H155.008V193.147Z" fill="white"/>
<path d="M178.03 193.147H173.358V170.657H178.03V193.147Z" fill="white"/>
<path d="M187.051 175.158V184.16H191.723C192.364 184.16 192.966 184.045 193.531 183.815C194.095 183.575 194.589 183.251 195.012 182.843C195.436 182.435 195.767 181.96 196.005 181.416C196.255 180.862 196.38 180.276 196.38 179.659C196.38 179.043 196.255 178.462 196.005 177.919C195.767 177.364 195.436 176.884 195.012 176.476C194.589 176.068 194.095 175.749 193.531 175.519C192.966 175.279 192.364 175.158 191.723 175.158H187.051ZM187.051 193.147H182.378V170.657H191.723C192.581 170.657 193.406 170.767 194.198 170.987C194.991 171.196 195.729 171.499 196.413 171.896C197.107 172.283 197.737 172.754 198.301 173.308C198.877 173.851 199.365 174.458 199.767 175.127C200.179 175.796 200.494 176.512 200.711 177.276C200.939 178.039 201.053 178.833 201.053 179.659C201.053 180.893 200.809 182.059 200.32 183.157C199.832 184.244 199.164 185.195 198.318 186.011C197.471 186.826 196.478 187.469 195.338 187.94C194.209 188.41 193.004 188.646 191.723 188.646H187.051V193.147Z" fill="white"/>
<path d="M96.6634 213.202C96.6634 213.892 96.5686 214.558 96.379 215.201C96.1964 215.836 95.9366 216.435 95.5995 216.996C95.2624 217.551 94.8551 218.058 94.3776 218.518C93.9 218.978 93.3734 219.374 92.7975 219.705C92.2217 220.03 91.6002 220.28 90.933 220.456C90.2659 220.639 89.5742 220.73 88.8579 220.73C88.1416 220.73 87.4499 220.639 86.7828 220.456C86.1226 220.28 85.5011 220.03 84.9183 219.705C84.3424 219.374 83.8158 218.978 83.3382 218.518C82.8607 218.058 82.4499 217.551 82.1058 216.996C81.7687 216.435 81.5054 215.836 81.3157 215.201C81.1332 214.558 81.0419 213.892 81.0419 213.202C81.0419 212.512 81.1332 211.846 81.3157 211.203C81.5054 210.56 81.7687 209.962 82.1058 209.407C82.4499 208.852 82.8607 208.345 83.3382 207.885C83.8158 207.425 84.3424 207.033 84.9183 206.708C85.5011 206.383 86.1226 206.133 86.7828 205.957C87.4499 205.775 88.1416 205.683 88.8579 205.683C89.5742 205.683 90.2659 205.775 90.933 205.957C91.6002 206.133 92.2217 206.383 92.7975 206.708C93.3734 207.033 93.9 207.425 94.3776 207.885C94.8551 208.345 95.2624 208.852 95.5995 209.407C95.9366 209.962 96.1964 210.56 96.379 211.203C96.5686 211.846 96.6634 212.512 96.6634 213.202ZM93.6613 213.202C93.6613 212.566 93.5349 211.967 93.2821 211.406C93.0293 210.838 92.6851 210.347 92.2498 209.935C91.8214 209.515 91.3123 209.184 90.7224 208.94C90.1395 208.697 89.518 208.575 88.8579 208.575C88.1908 208.575 87.5658 208.697 86.9829 208.94C86.4 209.184 85.8909 209.515 85.4555 209.935C85.0201 210.347 84.676 210.838 84.4232 211.406C84.1704 211.967 84.044 212.566 84.044 213.202C84.044 213.838 84.1704 214.436 84.4232 214.998C84.676 215.552 85.0201 216.039 85.4555 216.459C85.8909 216.878 86.4 217.209 86.9829 217.453C87.5658 217.697 88.1908 217.818 88.8579 217.818C89.518 217.818 90.1395 217.697 90.7224 217.453C91.3123 217.209 91.8214 216.878 92.2498 216.459C92.6851 216.039 93.0293 215.552 93.2821 214.998C93.5349 214.436 93.6613 213.838 93.6613 213.202Z" fill="white"/>
<path d="M101.677 208.778V214.602H104.701C105.115 214.602 105.505 214.528 105.87 214.379C106.235 214.223 106.555 214.013 106.828 213.75C107.102 213.486 107.316 213.178 107.471 212.826C107.633 212.468 107.713 212.089 107.713 211.69C107.713 211.291 107.633 210.915 107.471 210.564C107.316 210.205 107.102 209.894 106.828 209.63C106.555 209.366 106.235 209.16 105.87 209.011C105.505 208.856 105.115 208.778 104.701 208.778H101.677ZM101.677 220.416H98.6543V205.866H104.701C105.255 205.866 105.789 205.937 106.302 206.079C106.814 206.214 107.292 206.41 107.734 206.668C108.184 206.918 108.591 207.222 108.956 207.581C109.328 207.932 109.644 208.325 109.904 208.758C110.171 209.191 110.375 209.654 110.515 210.148C110.663 210.641 110.736 211.156 110.736 211.69C110.736 212.19 110.67 212.678 110.536 213.151C110.41 213.624 110.224 214.074 109.978 214.5C109.739 214.927 109.444 215.319 109.093 215.677C108.742 216.036 108.349 216.347 107.913 216.611L109.588 220.416H106.375L105.059 217.483L101.677 217.504V220.416Z" fill="white"/>
<path d="M124.81 216.053C124.81 216.655 124.69 217.22 124.451 217.747C124.213 218.275 123.886 218.738 123.472 219.137C123.064 219.53 122.587 219.841 122.039 220.071C121.491 220.301 120.905 220.416 120.28 220.416H112.727V205.866H120.28C120.905 205.866 121.491 205.981 122.039 206.211C122.587 206.441 123.064 206.755 123.472 207.155C123.886 207.547 124.213 208.007 124.451 208.534C124.69 209.062 124.81 209.627 124.81 210.229C124.81 210.499 124.771 210.777 124.694 211.061C124.616 211.345 124.508 211.619 124.367 211.883C124.227 212.147 124.058 212.387 123.861 212.603C123.665 212.82 123.447 212.999 123.208 213.141C123.454 213.269 123.675 213.445 123.872 213.668C124.069 213.885 124.237 214.125 124.378 214.389C124.518 214.653 124.623 214.93 124.694 215.221C124.771 215.505 124.81 215.782 124.81 216.053ZM115.75 217.504H120.28C120.491 217.504 120.687 217.467 120.87 217.392C121.052 217.318 121.21 217.216 121.344 217.088C121.484 216.952 121.593 216.797 121.67 216.621C121.748 216.445 121.786 216.256 121.786 216.053C121.786 215.85 121.748 215.661 121.67 215.485C121.593 215.309 121.484 215.157 121.344 215.028C121.21 214.893 121.052 214.788 120.87 214.714C120.687 214.639 120.491 214.602 120.28 214.602H115.75V217.504ZM115.75 211.69H120.28C120.491 211.69 120.687 211.653 120.87 211.578C121.052 211.504 121.21 211.402 121.344 211.274C121.484 211.139 121.593 210.983 121.67 210.807C121.748 210.625 121.786 210.432 121.786 210.229C121.786 210.026 121.748 209.837 121.67 209.661C121.593 209.485 121.484 209.333 121.344 209.204C121.21 209.069 121.052 208.964 120.87 208.89C120.687 208.815 120.491 208.778 120.28 208.778H115.75V211.69Z" fill="white"/>
<path d="M130.119 220.416H127.095V205.866H130.119V220.416Z" fill="white"/>
<path d="M139.272 220.416H136.26V208.778H131.72V205.866H143.802V208.778H139.272V220.416Z" fill="white"/>
<defs>
<linearGradient id="paint0_linear_1299_4477" x1="112.724" y1="334.789" x2="112.724" y2="12.2578" gradientUnits="userSpaceOnUse">
<stop stop-color="#0090FF"/>
<stop offset="0.37" stop-color="#001D33"/>
<stop offset="1" stop-color="#FF7E7E"/>
</linearGradient>
</defs>
</svg>
